<svg width="257" height="170" viewBox="0 0 257 170" fill="none" xmlns="http://www.w3.org/2000/svg">
<g clip-path="url(#clip0)">
<path d="M108.159 63.0099L103.645 60.1907L106.419 53.1539C106.686 52.4778 107.141 51.8926 107.732 51.468C108.322 51.0434 109.022 50.7973 109.748 50.7591C110.473 50.721 111.195 50.892 111.826 51.2519C112.457 51.6118 112.972 52.1454 113.308 52.7891C113.644 53.4328 113.788 54.1595 113.723 54.8827C113.658 55.606 113.386 56.2952 112.94 56.8684L108.159 63.0099Z" fill="#FEB8B8"/>
<path d="M84.4129 139.252L78.1978 136.558L81.5702 129.623L86.5896 132.558L84.4129 139.252Z" fill="#FEB8B8"/>
<path d="M82.0004 150.339L74.8513 143.054C74.1691 142.363 73.7879 141.431 73.7911 140.46C73.7943 139.49 74.1815 138.56 74.8683 137.874L78.4676 134.277C78.5973 134.146 78.756 134.048 78.9308 133.99C79.1057 133.932 79.2917 133.916 79.4739 133.943C79.6561 133.97 79.8294 134.04 79.9796 134.147C80.1299 134.253 80.2529 134.393 80.3388 134.556C81.2248 136.277 82.4317 137.205 83.9948 137.252C84.9318 137.281 85.0794 137.246 85.3234 138.15L85.0225 144.965L86.2592 146.372C86.7229 146.899 86.9803 147.576 86.984 148.278C86.9876 148.98 86.7373 149.659 86.2792 150.191C86.0168 150.496 85.6942 150.743 85.3316 150.917C84.969 151.091 84.5742 151.188 84.1723 151.202C83.7703 151.215 83.3698 151.146 82.996 150.998C82.6222 150.849 82.2832 150.625 82.0004 150.339Z" fill="#2F2E41"/>
<path d="M86.9993 133.773L80.5102 130.672L85.8707 96.8408L59.6654 99.0229C51.3799 99.7129 44.5408 92.309 46.2202 84.1723C46.7092 81.7096 48.064 79.5031 50.0395 77.9519L75.996 81.0531L92.814 83.3638C94.5018 83.5957 96.0778 84.339 97.3296 85.4936C98.5815 86.6483 99.449 88.1586 99.8153 89.8211C100.107 91.1458 100.071 92.5217 99.7088 93.8291L86.9993 133.773Z" fill="#2F2E41"/>
<path d="M41.9987 170C64.5924 170 82.9083 151.698 82.9083 129.121C82.9083 106.544 64.5924 88.2421 41.9987 88.2421C19.4049 88.2421 1.08902 106.544 1.08902 129.121C1.08902 151.698 19.4049 170 41.9987 170Z" fill="#E6E6E6"/>
<path d="M103.927 58.4992L110.417 61.6003L100.093 78.5479C99.6406 79.2903 98.9791 79.8827 98.1913 80.251C97.4035 80.6193 96.5244 80.7469 95.6643 80.618C94.8432 80.4949 94.0733 80.1431 93.4432 79.6028C92.813 79.0625 92.348 78.3557 92.1014 77.5634L80.5693 55.5223C80.177 54.7725 79.9509 53.9471 79.9065 53.1022C79.8621 52.2573 80.0003 51.4128 80.3118 50.626C80.6232 49.8393 81.1006 49.1288 81.7115 48.543C82.3224 47.9571 83.0524 47.5097 83.8518 47.231H83.8518C84.5928 46.9727 85.378 46.8648 86.1612 46.9138C86.9445 46.9627 87.7101 47.1674 88.4131 47.5158C89.1162 47.8643 89.7425 48.3495 90.2554 48.943C90.7683 49.5366 91.1575 50.2265 91.4 50.9723L96.874 67.8027L103.927 58.4992Z" fill="#3F3D56"/>
<path d="M75.5482 50.2329C77.6668 50.5263 79.8428 49.8285 81.6108 48.6256C83.3787 47.4227 84.7759 45.7462 85.9586 43.9654C87.9571 40.9532 89.3983 37.6069 90.2135 34.0859C90.8873 34.8951 91.7692 35.5055 92.7642 35.8514C93.7592 36.1974 94.8298 36.2657 95.8608 36.0492C99.2247 35.2945 101.242 31.3726 100.586 27.9905C99.9299 24.6083 97.1531 21.9269 93.9843 20.5695C90.8155 19.2121 87.284 18.9879 83.8364 18.9955C81.563 19.0006 79.2461 19.1065 77.1107 19.8857C74.9752 20.6648 73.0188 22.2176 72.2602 24.3591C71.7845 25.7016 71.8001 27.1877 71.2593 28.5054C70.2775 30.8976 67.7311 32.2039 65.3412 33.1951C62.9514 34.1863 60.3534 35.1929 58.944 37.3612C57.3526 39.8099 57.8119 43.2273 59.5657 45.5627C61.3194 47.898 64.1361 49.2521 67.0026 49.8183C69.869 50.3846 72.8222 50.2445 75.7406 50.1022" fill="#2F2E41"/>
<path d="M74.5382 139.252L68.3231 136.558L71.6954 129.623L76.7149 132.558L74.5382 139.252Z" fill="#FEB8B8"/>
<path d="M72.1256 150.339L64.9766 143.054C64.2944 142.363 63.9132 141.431 63.9164 140.46C63.9196 139.49 64.3068 138.56 64.9936 137.874L68.5928 134.277C68.7226 134.146 68.8813 134.048 69.0561 133.99C69.231 133.932 69.417 133.916 69.5992 133.943C69.7814 133.97 69.9546 134.04 70.1049 134.147C70.2551 134.253 70.3782 134.393 70.464 134.556C71.3501 136.277 72.5569 137.205 74.12 137.252C75.0571 137.281 75.2047 137.246 75.4487 138.15L75.1478 144.965L76.3845 146.372C76.8482 146.899 77.1056 147.576 77.1092 148.278C77.1129 148.98 76.8626 149.659 76.4044 150.191C76.1421 150.496 75.8195 150.743 75.4568 150.917C75.0942 151.091 74.6995 151.188 74.2975 151.202C73.8955 151.215 73.495 151.146 73.1212 150.998C72.7474 150.849 72.4085 150.625 72.1256 150.339Z" fill="#2F2E41"/>
<path d="M76.2781 135.464L69.789 132.363L75.1496 98.5323L48.9442 100.714C40.6587 101.404 33.8197 94.0005 35.4991 85.8638C35.988 83.4012 37.3428 81.1947 39.3184 79.6434L65.2748 82.7446L82.0929 85.0553C83.7806 85.2872 85.3566 86.0306 86.6085 87.1852C87.8603 88.3398 88.7279 89.8501 89.0941 91.5126C89.3859 92.8374 89.3494 94.2133 88.9877 95.5206L76.2781 135.464Z" fill="#2F2E41"/>
<path d="M85.7297 42.9934C91.4171 42.9934 96.0276 38.3863 96.0276 32.7032C96.0276 27.02 91.4171 22.413 85.7297 22.413C80.0423 22.413 75.4317 27.02 75.4317 32.7032C75.4317 38.3863 80.0423 42.9934 85.7297 42.9934Z" fill="#FEB8B8"/>
<path d="M78.5352 56.8076L74.3032 45.2488C77.3082 42.0625 77.9699 38.1525 76.8424 33.6899L88.9742 40.4561L78.5352 56.8076Z" fill="#FEB8B8"/>
<path d="M70.0712 84.1542C62.5387 86.6664 52.5704 85.8445 40.0805 81.5711C39.7429 81.4542 39.4391 81.2567 39.1952 80.9959C38.9514 80.735 38.775 80.4186 38.6813 80.0741C38.5877 79.7296 38.5796 79.3675 38.6577 79.0192C38.7359 78.6709 38.898 78.3469 39.1299 78.0754C47.5541 68.181 55.1121 58.4902 61.3493 49.1101C63.7031 46.0691 67.0516 43.9514 70.8095 43.1271L76.5603 41.8657L85.3065 46.3764L87.5986 47.671C88.1392 47.9764 88.612 48.3884 88.9881 48.8822C89.3641 49.376 89.6357 49.941 89.7862 50.5431C89.9367 51.1451 89.963 51.7714 89.8635 52.3839C89.764 52.9963 89.5407 53.5822 89.2073 54.1057C85.6953 62.6799 81.1176 70.5077 73.1747 75.9784L70.0712 84.1542Z" fill="#3F3D56"/>
<path d="M85.9684 30.7011C87.2342 32.7131 89.1149 34.264 91.332 35.1242C92.9022 35.7284 94.8947 35.8785 96.0733 34.6785C96.927 33.8092 97.0972 32.4712 96.9761 31.2593C96.5979 27.4764 93.7526 24.1822 90.2223 22.7648C86.6921 21.3474 82.6165 21.6572 79.0934 23.0922C75.7692 24.4462 72.6123 27.2199 72.4335 30.8024C72.3418 32.6384 73.0071 34.66 72.0208 36.2117C71.278 37.3804 69.8433 37.8552 68.5582 38.3727C67.2731 38.8903 65.8939 39.7069 65.6302 41.0661C65.4509 41.9899 65.8649 42.9542 66.515 43.6351C67.1983 44.2871 68.0069 44.7937 68.8919 45.1242C70.9875 46.016 73.2945 46.5718 75.546 46.2271C77.7975 45.8824 79.9746 44.5123 80.8558 42.4135C81.5343 40.7972 81.3953 38.9733 81.317 37.2223C81.2386 35.4713 81.2624 33.6064 82.198 32.1238C83.1336 30.6412 85.3058 29.8112 86.704 30.8695" fill="#2F2E41"/>
<path opacity="0.2" d="M60.9018 60.3317C60.9018 60.3317 69.0837 80.6302 71.0586 81.7579C73.0336 82.8856 73.0336 80.0686 73.0336 80.0686L60.9018 60.3317Z" fill="black"/>
<path d="M125.122 53.7142L75.4631 61.7865C75.2192 61.8259 74.9697 61.767 74.7692 61.6227C74.5688 61.4785 74.4338 61.2607 74.3939 61.0171L72.39 48.7081C72.3506 48.4644 72.4095 48.2151 72.5539 48.0148C72.6982 47.8145 72.9162 47.6796 73.16 47.6397L122.819 39.5673C123.063 39.528 123.312 39.5869 123.513 39.7311C123.713 39.8754 123.848 40.0932 123.888 40.3368L125.892 52.6458C125.931 52.8895 125.873 53.1388 125.728 53.3391C125.584 53.5394 125.366 53.6743 125.122 53.7142Z" fill="#EF802F"/>
<path d="M80.7488 57.5769C82.9099 57.5769 84.6619 55.8262 84.6619 53.6667C84.6619 51.5071 82.9099 49.7565 80.7488 49.7565C78.5876 49.7565 76.8356 51.5071 76.8356 53.6667C76.8356 55.8262 78.5876 57.5769 80.7488 57.5769Z" fill="white"/>
<path d="M89.2501 49.6436C89.1655 49.6573 89.0844 49.6874 89.0114 49.7324C88.9385 49.7774 88.8751 49.8363 88.825 49.9058C88.7748 49.9753 88.7389 50.0539 88.7192 50.1373C88.6995 50.2207 88.6964 50.3071 88.7102 50.3917C88.7239 50.4762 88.7543 50.5572 88.7994 50.63C88.8445 50.7029 88.9036 50.7661 88.9732 50.8161C89.0428 50.8661 89.1215 50.9019 89.205 50.9215C89.2885 50.9411 89.375 50.944 89.4596 50.9301L119.807 45.997C119.891 45.9833 119.972 45.953 120.045 45.908C120.118 45.863 120.181 45.8041 120.231 45.7346C120.281 45.6652 120.317 45.5866 120.337 45.5033C120.356 45.42 120.359 45.3336 120.346 45.2491C120.332 45.1647 120.302 45.0837 120.257 45.0109C120.212 44.9382 120.153 44.875 120.083 44.825C120.014 44.7749 119.935 44.7391 119.852 44.7195C119.768 44.6998 119.682 44.6968 119.597 44.7105L89.2501 49.6436Z" fill="white"/>
<path d="M89.8784 53.5031C89.7938 53.5167 89.7127 53.5469 89.6397 53.5919C89.5668 53.6369 89.5034 53.6958 89.4533 53.7653C89.4031 53.8348 89.3672 53.9134 89.3475 53.9968C89.3278 54.0802 89.3247 54.1666 89.3385 54.2511C89.3523 54.3357 89.3826 54.4167 89.4277 54.4895C89.4728 54.5624 89.5319 54.6256 89.6015 54.6756C89.6711 54.7256 89.7499 54.7614 89.8333 54.781C89.9168 54.8005 90.0033 54.8035 90.0879 54.7896L120.435 49.8565C120.606 49.8286 120.758 49.7342 120.859 49.5939C120.96 49.4537 121.001 49.2792 120.973 49.1088C120.946 48.9383 120.851 48.7858 120.711 48.6848C120.571 48.5838 120.396 48.5425 120.226 48.57L89.8784 53.5031Z" fill="white"/>
<path d="M88.9742 67.8026L84.4601 64.9834L87.2342 57.9466C87.5008 57.2705 87.9562 56.6853 88.5464 56.2607C89.1365 55.8361 89.8363 55.5901 90.5625 55.5519C91.2882 55.5137 92.0096 55.6847 92.6408 56.0446C93.272 56.4045 93.7864 56.9381 94.1227 57.5818C94.459 58.2255 94.6031 58.9522 94.5379 59.6755C94.4726 60.3987 94.2007 61.0879 93.7545 61.6611L88.9742 67.8026Z" fill="#FEB8B8"/>
<path d="M84.4601 63.2919L90.9492 66.3931L80.6255 83.3406C80.1733 84.083 79.5118 84.6755 78.724 85.0437C77.9362 85.412 77.0571 85.5397 76.197 85.4107C75.3758 85.2877 74.606 84.9358 73.9759 84.3955C73.3457 83.8552 72.8807 83.1484 72.6341 82.3561L61.102 60.315C60.7097 59.5652 60.4836 58.7398 60.4392 57.8949C60.3947 57.05 60.533 56.2055 60.8444 55.4187C61.1559 54.632 61.6333 53.9216 62.2442 53.3357C62.8551 52.7499 63.5851 52.3024 64.3845 52.0237H64.3845C65.1255 51.7654 65.9107 51.6576 66.6939 51.7065C67.4772 51.7554 68.2428 51.9601 68.9458 52.3085C69.6488 52.657 70.2752 53.1422 70.7881 53.7358C71.301 54.3293 71.6901 55.0192 71.9327 55.765L77.4067 72.5954L84.4601 63.2919Z" fill="#3F3D56"/>
<path d="M246.691 124.342C242.952 129.623 241.965 159.676 241.745 169.309C241.739 169.526 241.734 169.732 241.731 169.927H232.268C232.152 169.721 232.045 169.518 231.944 169.309C226.335 158.247 229.447 144.982 229.61 144.311C229.184 146.42 231.111 152.532 233.289 158.452C234.618 140.249 245.98 125.261 246.691 124.342Z" fill="#E6E6E6"/>
<path d="M257 169.309L256.887 169.927H0V169.309H257Z" fill="#3F3D56"/>
<path d="M234.153 55.306H157.976C157.602 55.3056 157.244 55.157 156.979 54.8927C156.715 54.6284 156.566 54.2701 156.565 53.8964V35.0144C156.566 34.6407 156.715 34.2824 156.979 34.0182C157.244 33.7539 157.602 33.6052 157.976 33.6048H234.153C234.527 33.6052 234.885 33.7539 235.15 34.0182C235.414 34.2824 235.563 34.6407 235.564 35.0144V53.8964C235.563 54.2701 235.414 54.6284 235.15 54.8927C234.885 55.157 234.527 55.3056 234.153 55.306ZM157.976 34.1686C157.752 34.1689 157.537 34.2581 157.378 34.4166C157.219 34.5752 157.13 34.7902 157.13 35.0144V53.8964C157.13 54.1207 157.219 54.3357 157.378 54.4942C157.537 54.6528 157.752 54.742 157.976 54.7422H234.153C234.377 54.742 234.592 54.6528 234.751 54.4942C234.91 54.3357 234.999 54.1207 234.999 53.8964V35.0144C234.999 34.7902 234.91 34.5752 234.751 34.4166C234.592 34.2581 234.377 34.1689 234.153 34.1686H157.976Z" fill="#E6E6E6"/>
<path d="M167.851 50.3758C171.123 50.3758 173.776 47.7251 173.776 44.4554C173.776 41.1856 171.123 38.535 167.851 38.535C164.579 38.535 161.926 41.1856 161.926 44.4554C161.926 47.7251 164.579 50.3758 167.851 50.3758Z" fill="#E6E6E6"/>
<path d="M181.535 40.5084C181.273 40.5084 181.021 40.6124 180.836 40.7974C180.651 40.9825 180.547 41.2335 180.547 41.4952C180.547 41.7569 180.651 42.0078 180.836 42.1929C181.021 42.3779 181.273 42.4819 181.535 42.4819H228.087C228.349 42.4819 228.6 42.3779 228.785 42.1929C228.97 42.0078 229.074 41.7569 229.074 41.4952C229.074 41.2335 228.97 40.9825 228.785 40.7974C228.6 40.6124 228.349 40.5084 228.087 40.5084H181.535Z" fill="#E6E6E6"/>
<path d="M181.535 46.4288C181.273 46.4288 181.021 46.5327 180.836 46.7178C180.651 46.9028 180.547 47.1538 180.547 47.4155C180.547 47.6772 180.651 47.9282 180.836 48.1132C181.021 48.2983 181.273 48.4022 181.535 48.4022H228.087C228.349 48.4022 228.6 48.2983 228.785 48.1132C228.97 47.9282 229.074 47.6772 229.074 47.4155C229.074 47.1538 228.97 46.9028 228.785 46.7178C228.6 46.5327 228.349 46.4288 228.087 46.4288H181.535Z" fill="#E6E6E6"/>
<path d="M234.153 86.8815H157.976C157.602 86.881 157.244 86.7324 156.979 86.4681C156.715 86.2039 156.566 85.8456 156.565 85.4719V66.5899C156.566 66.2161 156.715 65.8578 156.979 65.5936C157.244 65.3293 157.602 65.1807 157.976 65.1802H234.153C234.527 65.1807 234.885 65.3293 235.15 65.5936C235.414 65.8578 235.563 66.2161 235.564 66.5899V85.4719C235.563 85.8456 235.414 86.2039 235.15 86.4681C234.885 86.7324 234.527 86.881 234.153 86.8815ZM157.976 65.7441C157.752 65.7443 157.537 65.8335 157.378 65.9921C157.219 66.1506 157.13 66.3656 157.13 66.5899V85.4719C157.13 85.6961 157.219 85.9111 157.378 86.0696C157.537 86.2282 157.752 86.3174 157.976 86.3176H234.153C234.377 86.3174 234.592 86.2282 234.751 86.0696C234.91 85.9111 234.999 85.6961 234.999 85.4719V66.5899C234.999 66.3656 234.91 66.1506 234.751 65.9921C234.592 65.8335 234.377 65.7443 234.153 65.7441H157.976Z" fill="#E6E6E6"/>
<path d="M167.851 81.9512C171.123 81.9512 173.776 79.3006 173.776 76.0308C173.776 72.7611 171.123 70.1104 167.851 70.1104C164.579 70.1104 161.926 72.7611 161.926 76.0308C161.926 79.3006 164.579 81.9512 167.851 81.9512Z" fill="#E6E6E6"/>
<path d="M181.535 72.0839C181.273 72.0839 181.021 72.1878 180.836 72.3729C180.651 72.5579 180.547 72.8089 180.547 73.0706C180.547 73.3323 180.651 73.5833 180.836 73.7683C181.021 73.9534 181.273 74.0573 181.535 74.0573H228.087C228.349 74.0573 228.6 73.9534 228.785 73.7683C228.97 73.5833 229.074 73.3323 229.074 73.0706C229.074 72.8089 228.97 72.5579 228.785 72.3729C228.6 72.1878 228.349 72.0839 228.087 72.0839H181.535Z" fill="#E6E6E6"/>
<path d="M181.535 78.0043C181.273 78.0043 181.021 78.1082 180.836 78.2933C180.651 78.4783 180.547 78.7293 180.547 78.991C180.547 79.2527 180.651 79.5037 180.836 79.6887C181.021 79.8738 181.273 79.9777 181.535 79.9777H228.087C228.349 79.9777 228.6 79.8738 228.785 79.6887C228.97 79.5037 229.074 79.2527 229.074 78.991C229.074 78.7293 228.97 78.4783 228.785 78.2933C228.6 78.1082 228.349 78.0043 228.087 78.0043H181.535Z" fill="#E6E6E6"/>
<path d="M196.065 23.6816C193.721 23.6816 191.43 22.9871 189.481 21.6861C187.533 20.385 186.014 18.5357 185.117 16.3721C184.22 14.2085 183.985 11.8277 184.443 9.53078C184.9 7.23389 186.028 5.12406 187.686 3.46809C189.343 1.81213 191.454 0.684402 193.753 0.227523C196.051 -0.229357 198.434 0.00513119 200.599 0.901333C202.764 1.79753 204.615 3.3152 205.917 5.2624C207.219 7.20961 207.914 9.49891 207.914 11.8408C207.911 14.9801 206.661 17.9898 204.44 20.2096C202.218 22.4294 199.206 23.6781 196.065 23.6816ZM196.065 0.563851C193.832 0.563851 191.651 1.22523 189.795 2.46436C187.939 3.70349 186.492 5.4647 185.638 7.5253C184.784 9.58589 184.561 11.8533 184.996 14.0408C185.431 16.2283 186.506 18.2377 188.085 19.8148C189.663 21.3919 191.674 22.4659 193.863 22.9011C196.052 23.3362 198.321 23.1129 200.383 22.2593C202.445 21.4058 204.208 19.9604 205.448 18.1059C206.688 16.2515 207.35 14.0712 207.35 11.8408C207.347 8.85101 206.156 5.98465 204.041 3.87054C201.925 1.75644 199.057 0.567248 196.065 0.563851Z" fill="#EF802F"/>
<path d="M200.74 10.6728H197.233V7.16871C197.233 6.85893 197.11 6.56183 196.891 6.34278C196.672 6.12373 196.375 6.00067 196.065 6.00067C195.755 6.00067 195.457 6.12373 195.238 6.34278C195.019 6.56183 194.896 6.85893 194.896 7.16871V10.6728H191.389C191.079 10.6728 190.782 10.7958 190.562 11.0149C190.343 11.2339 190.22 11.531 190.22 11.8408C190.22 12.1506 190.343 12.4477 190.562 12.6667C190.782 12.8857 191.079 13.0088 191.389 13.0088H194.896V16.5129C194.896 16.8227 195.019 17.1198 195.238 17.3388C195.457 17.5579 195.755 17.6809 196.065 17.6809C196.375 17.6809 196.672 17.5579 196.891 17.3388C197.11 17.1198 197.233 16.8227 197.233 16.5129V13.0088H200.74C201.05 13.0088 201.347 12.8858 201.567 12.6667C201.786 12.4477 201.909 12.1506 201.909 11.8408C201.909 11.531 201.786 11.2339 201.567 11.0149C201.347 10.7958 201.05 10.6728 200.74 10.6728V10.6728Z" fill="#EF802F"/>
</g>
<defs>
<clipPath id="clip0">
<rect width="257" height="170" fill="white"/>
</clipPath>
</defs>
</svg>
