<svg width="558" height="385" viewBox="0 0 558 385" fill="none" xmlns="http://www.w3.org/2000/svg">
<g clip-path="url(#clip0)">
<path opacity="0.1" d="M315.621 52.4153C279.854 52.4631 245.427 42.3299 212.497 31.0729C179.568 19.8159 146.891 7.21033 111.789 1.86875C89.2144 -1.56478 63.5434 -1.24916 45.8967 11.2177C28.9103 23.2111 23.9915 43.0615 21.6182 61.4008C19.8334 75.1971 19.0104 89.6772 25.6949 102.297C30.3362 111.058 38.2792 118.279 43.8775 126.628C63.419 155.675 51.6673 192.779 32.6761 222.499C23.7714 236.444 13.3403 249.81 6.60796 264.553C-0.12439 279.296 -2.88527 296.014 3.98105 310.566C10.7852 324.989 26.1542 335.457 42.6478 342.606C76.142 357.153 115.139 360.271 153.088 361.471C237.092 364.135 321.258 358.702 405.199 353.27C436.263 351.261 467.465 349.239 497.887 343.419C514.778 340.191 532.171 335.399 544.148 324.898C559.349 311.565 562.46 289.797 551.397 274.151C532.846 247.906 483.93 242.957 470.628 214.561C463.293 198.928 469.618 181 478.934 165.932C498.916 133.601 533.31 104.64 533.889 68.4783C534.286 43.645 516.4 19.419 489.686 8.62582C461.685 -2.679 423.506 0.228498 403.888 21.2983C383.715 43.0042 347.202 52.3818 315.621 52.4153Z" fill="#EF802F"/>
<path d="M474.915 308.616C474.915 308.616 469.035 304.738 463.207 307.497C463.207 307.497 465.001 310.95 472.379 310.624L474.915 308.616Z" fill="#EF802F"/>
<path d="M475.662 308.822C475.662 308.822 477.451 315.631 472.963 320.265C472.963 320.265 470.264 317.458 472.963 310.581L475.662 308.822Z" fill="#EF802F"/>
<path d="M482.973 302.284C482.973 302.284 482.537 296.493 469.451 298.416C469.451 298.416 469.389 302.151 473.982 303.92C478.575 305.689 480.681 304.197 482.973 302.284Z" fill="#EF802F"/>
<path d="M483.796 302.246C483.796 302.246 489.327 304.02 484.394 316.286C484.394 316.286 480.743 315.473 480.088 310.591C479.432 305.708 481.375 304.025 483.796 302.246Z" fill="#EF802F"/>
<path d="M491.184 294.031C491.184 294.031 491.935 284.5 478.561 285.475C478.561 285.475 477.604 294.083 488.825 296.321L491.184 294.031Z" fill="#EF802F"/>
<path d="M500.021 283.271C500.021 283.271 498.189 272.468 484.82 275.687C484.82 275.687 484.772 285.026 497.84 285.844L500.021 283.271Z" fill="#EF802F"/>
<path d="M506.481 272.148C506.481 272.148 503.409 261.627 490.165 264.774C490.165 264.774 493.318 274.238 505.601 274.089L506.481 272.148Z" fill="#EF802F"/>
<path d="M512.615 261.283C512.615 261.283 509.615 250.365 496.825 253.632C496.825 253.632 501.093 264.004 511.768 263.129L512.615 261.283Z" fill="#EF802F"/>
<path d="M516.568 250.963C516.568 250.963 514.261 237.612 502.337 240.567C502.337 240.567 505.802 252.714 515.692 252.91L516.568 250.963Z" fill="#EF802F"/>
<path d="M520.276 238.496C520.276 238.496 517.505 225.04 505.443 228.932C505.443 228.932 510.17 241.653 519.419 240.337L520.276 238.496Z" fill="#EF802F"/>
<path d="M522.553 226.895C522.553 226.895 518.156 213.434 508.83 213.797C508.83 213.797 513.323 228.014 521.774 229.578L522.553 226.895Z" fill="#EF802F"/>
<path d="M524.027 215.571C524.027 215.571 519.242 199.369 511.653 200.618C511.653 200.618 514.965 213.003 523.759 218.096L524.027 215.571Z" fill="#EF802F"/>
<path d="M524.86 202.062C524.86 202.062 520.372 188.562 512.898 188.022C512.898 188.022 515.95 201.306 524.712 205.572L524.86 202.062Z" fill="#EF802F"/>
<path d="M525.764 189.456C525.764 189.456 520.171 175.942 515.237 175.636C515.237 175.636 517.668 188.945 525.286 191.675L525.764 189.456Z" fill="#EF802F"/>
<path d="M526.381 177.731C526.381 177.731 522.941 163.054 517.998 161.835C517.998 161.835 518.673 173.843 525.884 178.83L526.381 177.731Z" fill="#EF802F"/>
<path d="M528.248 162.371C528.248 162.371 524.63 150.669 520.625 148.885C520.625 148.885 521.415 162.681 527.324 165.23L528.248 162.371Z" fill="#EF802F"/>
<path d="M529.793 152.328L530.52 131.698C530.52 131.698 523.032 147.25 529.252 155.948L529.793 152.328Z" fill="#EF802F"/>
<path d="M535.573 131.808C535.573 131.808 540.966 116.745 542.272 115.903C542.272 115.903 531.697 125.678 532.731 138.25L535.573 131.808Z" fill="#EF802F"/>
<path d="M491.547 293.959C491.547 293.959 501.031 292.72 500.749 306.115C500.749 306.115 492.179 307.511 489.38 296.431L491.547 293.959Z" fill="#EF802F"/>
<path d="M500.471 282.907C500.471 282.907 511.429 282.874 510.519 296.584C510.519 296.584 501.318 298.229 498.284 285.499L500.471 282.907Z" fill="#EF802F"/>
<path d="M506.586 273.032C506.586 273.032 516.534 268.37 522.898 280.406C522.898 280.406 513.711 284.29 505.706 274.979L506.586 273.032Z" fill="#EF802F"/>
<path d="M512.835 261.383C512.835 261.383 523.022 256.424 529.004 268.179C529.004 268.179 518.391 271.832 511.993 263.244L512.835 261.383Z" fill="#EF802F"/>
<path d="M516.438 251.255C516.438 251.255 526.243 241.896 534.066 251.36C534.066 251.36 524.051 259.064 515.989 253.34L516.438 251.255Z" fill="#EF802F"/>
<path d="M519.721 238.176C519.721 238.176 529.582 228.612 537.344 238.616C537.344 238.616 526.276 246.473 519.367 240.184L519.721 238.176Z" fill="#EF802F"/>
<path d="M521.563 226.512C521.563 226.512 529.161 214.557 538.109 217.226C538.109 217.226 530.224 229.884 521.649 229.32L521.563 226.512Z" fill="#EF802F"/>
<path d="M523.802 215.495C523.802 215.495 531.458 200.441 538.703 203.061C538.703 203.061 533.181 214.634 523.606 218.034L523.802 215.495Z" fill="#EF802F"/>
<path d="M524.333 201.277C524.333 201.277 532.205 189.427 539.578 190.876C539.578 190.876 533.142 202.894 523.568 204.706L524.333 201.277Z" fill="#EF802F"/>
<path d="M524.946 189.193C524.946 189.193 531.047 175.894 536.004 175.803C536.004 175.803 533.075 189.007 525.357 191.45L524.946 189.193Z" fill="#EF802F"/>
<path d="M526.142 177.444C526.142 177.444 532.922 163.977 538.018 163.949C538.018 163.949 534.549 175.464 526.367 178.625L526.142 177.444Z" fill="#EF802F"/>
<path d="M527.161 163.212C527.161 163.212 532.233 152.07 536.435 150.807C536.435 150.807 533.899 164.389 527.721 166.168L527.161 163.212Z" fill="#EF802F"/>
<path d="M530.396 151.922L541.731 134.663C541.731 134.663 538.827 151.687 528.74 155.226L530.396 151.922Z" fill="#EF802F"/>
<path d="M538.176 133.2C538.176 133.2 551.349 124.114 551.828 122.646C551.828 122.646 545.129 135.371 532.688 137.619L538.176 133.2Z" fill="#EF802F"/>
<path d="M538.966 129.111C538.966 129.111 554.091 114.578 557.952 114.593C557.952 114.593 545.478 115.162 538.602 128.337L538.966 129.111Z" fill="#EF802F"/>
<path d="M527.31 165.369L527.86 165.441C530.702 143.209 534.846 130.053 539.525 128.442L539.344 127.916C534.382 129.637 530.209 142.592 527.31 165.369Z" fill="#444053"/>
<path d="M523.128 218.536L523.96 218.603C524.137 216.528 524.271 214.404 524.362 212.286C525.157 193.884 526.386 176.985 528.004 164.317L527.525 163.719C525.903 176.415 524.324 193.822 523.53 212.252C523.439 214.356 523.305 216.47 523.128 218.536Z" fill="#444053"/>
<path d="M459.393 319.223C459.536 319.16 474.193 312.619 489.404 297.019C498.316 287.883 505.721 277.392 511.343 265.936C518.376 251.623 522.664 234.035 524.099 216.948L523.233 217.355C520.003 255.707 502.534 281.913 488.643 296.187C473.58 311.648 459.087 318.123 458.943 318.185L459.393 319.223Z" fill="#444053"/>
<path d="M497.342 40.7576H37.571C36.4847 40.7576 35.4429 41.1889 34.6747 41.9566C33.9066 42.7242 33.4751 43.7654 33.4751 44.8511V56.7776H501.438V44.8511C501.438 43.7654 501.006 42.7242 500.238 41.9566C499.47 41.1889 498.428 40.7576 497.342 40.7576Z" fill="#3F3D56"/>
<path d="M33.4751 56.7776V325.167C33.4751 327.356 34.3452 329.455 35.894 331.003C37.4428 332.551 39.5435 333.421 41.7338 333.421H493.179C495.369 333.421 497.47 332.551 499.019 331.003C500.568 329.455 501.438 327.356 501.438 325.167V56.7776H33.4751Z" fill="white"/>
<path opacity="0.8" d="M40.8869 50.5609C41.944 50.5609 42.8009 49.7045 42.8009 48.648C42.8009 47.5916 41.944 46.7352 40.8869 46.7352C39.8299 46.7352 38.973 47.5916 38.973 48.648C38.973 49.7045 39.8299 50.5609 40.8869 50.5609Z" fill="#FA5959"/>
<path opacity="0.8" d="M46.1503 50.5609C47.2073 50.5609 48.0642 49.7045 48.0642 48.648C48.0642 47.5916 47.2073 46.7352 46.1503 46.7352C45.0932 46.7352 44.2363 47.5916 44.2363 48.648C44.2363 49.7045 45.0932 50.5609 46.1503 50.5609Z" fill="#FED253"/>
<path opacity="0.8" d="M51.4137 50.5609C52.4708 50.5609 53.3277 49.7045 53.3277 48.648C53.3277 47.5916 52.4708 46.7352 51.4137 46.7352C50.3567 46.7352 49.4998 47.5916 49.4998 48.648C49.4998 49.7045 50.3567 50.5609 51.4137 50.5609Z" fill="#8CCF4D"/>
<path opacity="0.05" d="M453.067 101.528H76.9746V266.806H453.067V101.528Z" fill="black"/>
<path d="M450.196 102.781H79.8455V264.415H450.196V102.781Z" fill="#3F3D56"/>
<path d="M180.807 144.38C173.52 144.38 166.396 146.54 160.338 150.586C154.279 154.632 149.556 160.383 146.768 167.111C143.979 173.84 143.249 181.243 144.671 188.386C146.093 195.529 149.602 202.09 154.754 207.239C159.907 212.389 166.472 215.896 173.619 217.317C180.766 218.738 188.174 218.008 194.906 215.221C201.639 212.434 207.393 207.715 211.441 201.66C215.49 195.604 217.65 188.485 217.65 181.202C217.65 176.367 216.697 171.579 214.846 167.111C212.994 162.644 210.28 158.585 206.859 155.165C203.438 151.746 199.376 149.034 194.906 147.183C190.436 145.333 185.645 144.38 180.807 144.38ZM187.415 182.087V199.522H174.39V182.087C172.588 180.724 171.26 178.829 170.593 176.67C169.926 174.511 169.954 172.198 170.674 170.056C171.393 167.915 172.768 166.053 174.603 164.734C176.439 163.415 178.642 162.705 180.902 162.705C183.163 162.705 185.366 163.415 187.202 164.734C189.037 166.053 190.412 167.915 191.131 170.056C191.851 172.198 191.879 174.511 191.212 176.67C190.545 178.829 189.217 180.724 187.415 182.087Z" fill="#EF802F"/>
<path opacity="0.05" d="M180.807 144.38C173.52 144.38 166.396 146.54 160.338 150.586C154.279 154.632 149.556 160.383 146.768 167.111C143.979 173.84 143.249 181.243 144.671 188.386C146.093 195.529 149.602 202.09 154.754 207.239C159.907 212.389 166.472 215.896 173.619 217.317C180.766 218.738 188.174 218.008 194.906 215.221C201.639 212.434 207.393 207.715 211.441 201.66C215.49 195.604 217.65 188.485 217.65 181.202C217.65 176.367 216.697 171.579 214.846 167.111C212.994 162.644 210.28 158.585 206.859 155.165C203.438 151.746 199.376 149.034 194.906 147.183C190.436 145.333 185.645 144.38 180.807 144.38ZM187.415 182.087V199.522H174.39V182.087C172.588 180.724 171.26 178.829 170.593 176.67C169.926 174.511 169.954 172.198 170.674 170.056C171.393 167.915 172.768 166.053 174.603 164.734C176.439 163.415 178.642 162.705 180.902 162.705C183.163 162.705 185.366 163.415 187.202 164.734C189.037 166.053 190.412 167.915 191.131 170.056C191.851 172.198 191.879 174.511 191.212 176.67C190.545 178.829 189.217 180.724 187.415 182.087Z" fill="black"/>
<path d="M180.807 133.86C171.438 133.86 162.279 136.636 154.489 141.838C146.699 147.041 140.628 154.434 137.042 163.085C133.457 171.736 132.519 181.255 134.347 190.438C136.174 199.622 140.686 208.058 147.311 214.679C153.936 221.3 162.376 225.808 171.565 227.635C180.754 229.462 190.279 228.524 198.935 224.941C207.59 221.358 214.989 215.29 220.194 207.504C225.399 199.719 228.177 190.566 228.177 181.202C228.177 168.646 223.186 156.605 214.303 147.726C205.419 138.848 193.37 133.86 180.807 133.86ZM189.3 182.34V204.754H172.553V182.34C170.235 180.587 168.526 178.15 167.668 175.374C166.81 172.598 166.846 169.623 167.772 166.868C168.697 164.114 170.465 161.719 172.825 160.023C175.185 158.327 178.019 157.414 180.926 157.414C183.834 157.414 186.667 158.327 189.028 160.023C191.388 161.719 193.156 164.114 194.081 166.868C195.006 169.623 195.043 172.598 194.185 175.374C193.327 178.15 191.618 180.587 189.3 182.34Z" fill="#EF802F"/>
<path d="M400.912 174.99H247.795V191.249H400.912V174.99Z" fill="white"/>
<path d="M400.912 204.639H367.896V220.898H400.912V204.639Z" fill="#EF802F"/>
<path d="M262.868 182.876H260.097L262.562 180.418C262.606 180.373 262.63 180.312 262.63 180.248C262.63 180.185 262.606 180.124 262.562 180.079C262.539 180.056 262.513 180.038 262.484 180.026C262.455 180.014 262.423 180.008 262.392 180.008C262.36 180.008 262.329 180.014 262.3 180.026C262.271 180.038 262.244 180.056 262.222 180.079L259.758 182.541V179.768C259.758 179.704 259.732 179.644 259.688 179.599C259.643 179.554 259.582 179.529 259.518 179.529C259.455 179.53 259.395 179.555 259.351 179.6C259.306 179.645 259.28 179.705 259.279 179.768V182.541L256.82 180.064C256.797 180.042 256.771 180.024 256.742 180.012C256.713 180 256.681 179.993 256.65 179.993C256.618 179.993 256.587 180 256.558 180.012C256.529 180.024 256.502 180.042 256.48 180.064C256.436 180.11 256.411 180.171 256.411 180.234C256.411 180.297 256.436 180.358 256.48 180.404L258.944 182.862H256.169C256.106 182.863 256.046 182.889 256.001 182.933C255.956 182.978 255.931 183.038 255.93 183.101C255.93 183.164 255.955 183.225 256 183.27C256.045 183.315 256.105 183.34 256.169 183.34H258.944L256.48 185.803C256.436 185.848 256.411 185.909 256.411 185.972C256.411 186.036 256.436 186.097 256.48 186.142C256.526 186.185 256.587 186.209 256.65 186.209C256.713 186.209 256.774 186.185 256.82 186.142L259.279 183.679V186.448C259.279 186.512 259.304 186.573 259.349 186.617C259.394 186.662 259.455 186.687 259.518 186.687C259.582 186.687 259.643 186.662 259.688 186.617C259.732 186.573 259.758 186.512 259.758 186.448V183.679L262.222 186.142C262.268 186.185 262.329 186.209 262.392 186.209C262.455 186.209 262.515 186.185 262.562 186.142C262.606 186.097 262.63 186.036 262.63 185.972C262.63 185.909 262.606 185.848 262.562 185.803L260.097 183.34H262.868C262.931 183.34 262.992 183.315 263.037 183.27C263.082 183.225 263.107 183.164 263.107 183.101C263.103 183.04 263.077 182.983 263.032 182.941C262.988 182.899 262.929 182.876 262.868 182.876Z" fill="#EF802F"/>
<path d="M272.916 182.876H270.146L272.61 180.418C272.654 180.373 272.679 180.312 272.679 180.248C272.679 180.185 272.654 180.124 272.61 180.079C272.588 180.056 272.561 180.038 272.532 180.026C272.503 180.014 272.471 180.008 272.44 180.008C272.408 180.008 272.377 180.014 272.348 180.026C272.319 180.038 272.292 180.056 272.27 180.079L269.806 182.541V179.768C269.806 179.704 269.781 179.644 269.736 179.599C269.691 179.554 269.63 179.529 269.567 179.529C269.504 179.53 269.443 179.555 269.399 179.6C269.354 179.645 269.329 179.705 269.327 179.768V182.541L266.868 180.064C266.846 180.042 266.819 180.024 266.79 180.012C266.761 180 266.73 179.993 266.698 179.993C266.666 179.993 266.635 180 266.606 180.012C266.577 180.024 266.55 180.042 266.528 180.064C266.484 180.11 266.459 180.171 266.459 180.234C266.459 180.297 266.484 180.358 266.528 180.404L268.992 182.862H266.217C266.154 182.863 266.094 182.889 266.049 182.933C266.005 182.978 265.979 183.038 265.978 183.101C265.978 183.164 266.003 183.225 266.048 183.27C266.093 183.315 266.154 183.34 266.217 183.34H268.992L266.528 185.803C266.484 185.848 266.459 185.909 266.459 185.972C266.459 186.036 266.484 186.097 266.528 186.142C266.574 186.185 266.635 186.209 266.698 186.209C266.761 186.209 266.822 186.185 266.868 186.142L269.327 183.679V186.448C269.327 186.512 269.353 186.573 269.397 186.617C269.442 186.662 269.503 186.687 269.567 186.687C269.63 186.687 269.691 186.662 269.736 186.617C269.781 186.573 269.806 186.512 269.806 186.448V183.679L272.27 186.142C272.316 186.185 272.377 186.209 272.44 186.209C272.503 186.209 272.564 186.185 272.61 186.142C272.654 186.097 272.679 186.036 272.679 185.972C272.679 185.909 272.654 185.848 272.61 185.803L270.146 183.34H272.916C272.979 183.34 273.04 183.315 273.085 183.27C273.13 183.225 273.155 183.164 273.155 183.101C273.152 183.04 273.125 182.983 273.08 182.941C273.036 182.899 272.977 182.876 272.916 182.876Z" fill="#EF802F"/>
<path d="M282.964 182.876H280.194L282.658 180.418C282.702 180.373 282.727 180.312 282.727 180.248C282.727 180.185 282.702 180.124 282.658 180.079C282.636 180.056 282.609 180.038 282.58 180.026C282.551 180.014 282.52 180.008 282.488 180.008C282.457 180.008 282.425 180.014 282.396 180.026C282.367 180.038 282.34 180.056 282.318 180.079L279.854 182.541V179.768C279.854 179.704 279.829 179.644 279.784 179.599C279.739 179.554 279.678 179.529 279.615 179.529C279.552 179.53 279.492 179.555 279.447 179.6C279.402 179.645 279.377 179.705 279.376 179.768V182.541L276.916 180.064C276.894 180.042 276.867 180.024 276.838 180.012C276.809 180 276.778 179.993 276.746 179.993C276.715 179.993 276.683 180 276.654 180.012C276.625 180.024 276.599 180.042 276.576 180.064C276.532 180.11 276.508 180.171 276.508 180.234C276.508 180.297 276.532 180.358 276.576 180.404L279.041 182.862H276.265C276.202 182.863 276.142 182.889 276.098 182.933C276.053 182.978 276.027 183.038 276.026 183.101C276.026 183.164 276.051 183.225 276.096 183.27C276.141 183.315 276.202 183.34 276.265 183.34H279.041L276.576 185.803C276.532 185.848 276.508 185.909 276.508 185.972C276.508 186.036 276.532 186.097 276.576 186.142C276.622 186.185 276.683 186.209 276.746 186.209C276.809 186.209 276.87 186.185 276.916 186.142L279.376 183.679V186.448C279.376 186.512 279.401 186.573 279.446 186.617C279.49 186.662 279.551 186.687 279.615 186.687C279.678 186.687 279.739 186.662 279.784 186.617C279.829 186.573 279.854 186.512 279.854 186.448V183.679L282.318 186.142C282.364 186.185 282.425 186.209 282.488 186.209C282.551 186.209 282.612 186.185 282.658 186.142C282.702 186.097 282.727 186.036 282.727 185.972C282.727 185.909 282.702 185.848 282.658 185.803L280.194 183.34H282.964C283.028 183.34 283.089 183.315 283.133 183.27C283.178 183.225 283.203 183.164 283.203 183.101C283.2 183.04 283.173 182.983 283.128 182.941C283.084 182.899 283.025 182.876 282.964 182.876Z" fill="#EF802F"/>
<path d="M293.013 182.876H290.242L292.706 180.418C292.75 180.373 292.775 180.312 292.775 180.248C292.775 180.185 292.75 180.124 292.706 180.079C292.684 180.056 292.658 180.038 292.628 180.026C292.599 180.014 292.568 180.008 292.536 180.008C292.505 180.008 292.474 180.014 292.444 180.026C292.415 180.038 292.389 180.056 292.367 180.079L289.902 182.541V179.768C289.902 179.704 289.877 179.644 289.832 179.599C289.787 179.554 289.727 179.529 289.663 179.529C289.6 179.53 289.54 179.555 289.495 179.6C289.451 179.645 289.425 179.705 289.424 179.768V182.541L286.964 180.064C286.942 180.042 286.916 180.024 286.887 180.012C286.857 180 286.826 179.993 286.795 179.993C286.763 179.993 286.732 180 286.703 180.012C286.673 180.024 286.647 180.042 286.625 180.064C286.581 180.11 286.556 180.171 286.556 180.234C286.556 180.297 286.581 180.358 286.625 180.404L289.089 182.862H286.314C286.251 182.863 286.19 182.889 286.146 182.933C286.101 182.978 286.076 183.038 286.074 183.101C286.074 183.164 286.1 183.225 286.145 183.27C286.189 183.315 286.25 183.34 286.314 183.34H289.089L286.625 185.803C286.581 185.848 286.556 185.909 286.556 185.972C286.556 186.036 286.581 186.097 286.625 186.142C286.671 186.185 286.731 186.209 286.795 186.209C286.858 186.209 286.918 186.185 286.964 186.142L289.424 183.679V186.448C289.424 186.512 289.449 186.573 289.494 186.617C289.539 186.662 289.6 186.687 289.663 186.687C289.727 186.687 289.787 186.662 289.832 186.617C289.877 186.573 289.902 186.512 289.902 186.448V183.679L292.367 186.142C292.413 186.185 292.473 186.209 292.536 186.209C292.599 186.209 292.66 186.185 292.706 186.142C292.75 186.097 292.775 186.036 292.775 185.972C292.775 185.909 292.75 185.848 292.706 185.803L290.242 183.34H293.013C293.076 183.34 293.137 183.315 293.182 183.27C293.227 183.225 293.252 183.164 293.252 183.101C293.248 183.04 293.221 182.983 293.177 182.941C293.132 182.899 293.074 182.876 293.013 182.876Z" fill="#EF802F"/>
<path d="M303.061 182.876H300.29L302.755 180.418C302.799 180.373 302.823 180.312 302.823 180.248C302.823 180.185 302.799 180.124 302.755 180.079C302.732 180.056 302.706 180.038 302.677 180.026C302.648 180.014 302.616 180.008 302.585 180.008C302.553 180.008 302.522 180.014 302.493 180.026C302.464 180.038 302.437 180.056 302.415 180.079L299.951 182.541V179.768C299.951 179.704 299.925 179.644 299.881 179.599C299.836 179.554 299.775 179.529 299.711 179.529C299.648 179.53 299.588 179.555 299.544 179.6C299.499 179.645 299.473 179.705 299.472 179.768V182.541L297.013 180.064C296.991 180.042 296.964 180.024 296.935 180.012C296.906 180 296.874 179.993 296.843 179.993C296.811 179.993 296.78 180 296.751 180.012C296.722 180.024 296.695 180.042 296.673 180.064C296.629 180.11 296.604 180.171 296.604 180.234C296.604 180.297 296.629 180.358 296.673 180.404L299.137 182.862H296.362C296.299 182.863 296.239 182.889 296.194 182.933C296.15 182.978 296.124 183.038 296.123 183.101C296.123 183.164 296.148 183.225 296.193 183.27C296.238 183.315 296.299 183.34 296.362 183.34H299.137L296.673 185.803C296.629 185.848 296.604 185.909 296.604 185.972C296.604 186.036 296.629 186.097 296.673 186.142C296.719 186.185 296.78 186.209 296.843 186.209C296.906 186.209 296.967 186.185 297.013 186.142L299.472 183.679V186.448C299.472 186.512 299.497 186.573 299.542 186.617C299.587 186.662 299.648 186.687 299.711 186.687C299.775 186.687 299.836 186.662 299.881 186.617C299.925 186.573 299.951 186.512 299.951 186.448V183.679L302.415 186.142C302.461 186.185 302.522 186.209 302.585 186.209C302.648 186.209 302.709 186.185 302.755 186.142C302.799 186.097 302.823 186.036 302.823 185.972C302.823 185.909 302.799 185.848 302.755 185.803L300.29 183.34H303.061C303.124 183.34 303.185 183.315 303.23 183.27C303.275 183.225 303.3 183.164 303.3 183.101C303.296 183.04 303.27 182.983 303.225 182.941C303.181 182.899 303.122 182.876 303.061 182.876Z" fill="#EF802F"/>
<path d="M313.109 182.876H310.339L312.803 180.418C312.847 180.373 312.872 180.312 312.872 180.248C312.872 180.185 312.847 180.124 312.803 180.079C312.781 180.056 312.754 180.038 312.725 180.026C312.696 180.014 312.665 180.008 312.633 180.008C312.601 180.008 312.57 180.014 312.541 180.026C312.512 180.038 312.485 180.056 312.463 180.079L309.999 182.541V179.768C309.999 179.704 309.974 179.644 309.929 179.599C309.884 179.554 309.823 179.529 309.76 179.529C309.697 179.53 309.636 179.555 309.592 179.6C309.547 179.645 309.522 179.705 309.52 179.768V182.541L307.061 180.064C307.039 180.042 307.012 180.024 306.983 180.012C306.954 180 306.923 179.993 306.891 179.993C306.86 179.993 306.828 180 306.799 180.012C306.77 180.024 306.744 180.042 306.721 180.064C306.677 180.11 306.652 180.171 306.652 180.234C306.652 180.297 306.677 180.358 306.721 180.404L309.185 182.862H306.41C306.347 182.863 306.287 182.889 306.242 182.933C306.198 182.978 306.172 183.038 306.171 183.101C306.171 183.164 306.196 183.225 306.241 183.27C306.286 183.315 306.347 183.34 306.41 183.34H309.185L306.721 185.803C306.677 185.848 306.652 185.909 306.652 185.972C306.652 186.036 306.677 186.097 306.721 186.142C306.767 186.185 306.828 186.209 306.891 186.209C306.954 186.209 307.015 186.185 307.061 186.142L309.52 183.679V186.448C309.52 186.512 309.546 186.573 309.591 186.617C309.635 186.662 309.696 186.687 309.76 186.687C309.823 186.687 309.884 186.662 309.929 186.617C309.974 186.573 309.999 186.512 309.999 186.448V183.679L312.463 186.142C312.509 186.185 312.57 186.209 312.633 186.209C312.696 186.209 312.757 186.185 312.803 186.142C312.847 186.097 312.872 186.036 312.872 185.972C312.872 185.909 312.847 185.848 312.803 185.803L310.339 183.34H313.109C313.173 183.34 313.233 183.315 313.278 183.27C313.323 183.225 313.348 183.164 313.348 183.101C313.345 183.04 313.318 182.983 313.273 182.941C313.229 182.899 313.17 182.876 313.109 182.876Z" fill="#EF802F"/>
<path d="M323.157 182.876H320.387L322.851 180.418C322.895 180.373 322.92 180.312 322.92 180.248C322.92 180.185 322.895 180.124 322.851 180.079C322.829 180.056 322.802 180.038 322.773 180.026C322.744 180.014 322.713 180.008 322.681 180.008C322.65 180.008 322.618 180.014 322.589 180.026C322.56 180.038 322.534 180.056 322.511 180.079L320.047 182.541V179.768C320.047 179.704 320.022 179.644 319.977 179.599C319.932 179.554 319.871 179.529 319.808 179.529C319.745 179.53 319.685 179.555 319.64 179.6C319.595 179.645 319.57 179.705 319.569 179.768V182.541L317.109 180.064C317.087 180.042 317.061 180.024 317.031 180.012C317.002 180 316.971 179.993 316.939 179.993C316.908 179.993 316.876 180 316.847 180.012C316.818 180.024 316.792 180.042 316.769 180.064C316.725 180.11 316.701 180.171 316.701 180.234C316.701 180.297 316.725 180.358 316.769 180.404L319.234 182.862H316.458C316.395 182.863 316.335 182.889 316.291 182.933C316.246 182.978 316.22 183.038 316.219 183.101C316.219 183.164 316.244 183.225 316.289 183.27C316.334 183.315 316.395 183.34 316.458 183.34H319.234L316.769 185.803C316.725 185.848 316.701 185.909 316.701 185.972C316.701 186.036 316.725 186.097 316.769 186.142C316.816 186.185 316.876 186.209 316.939 186.209C317.002 186.209 317.063 186.185 317.109 186.142L319.569 183.679V186.448C319.569 186.512 319.594 186.573 319.639 186.617C319.684 186.662 319.744 186.687 319.808 186.687C319.871 186.687 319.932 186.662 319.977 186.617C320.022 186.573 320.047 186.512 320.047 186.448V183.679L322.511 186.142C322.557 186.185 322.618 186.209 322.681 186.209C322.744 186.209 322.805 186.185 322.851 186.142C322.895 186.097 322.92 186.036 322.92 185.972C322.92 185.909 322.895 185.848 322.851 185.803L320.387 183.34H323.157C323.221 183.34 323.282 183.315 323.326 183.27C323.371 183.225 323.397 183.164 323.397 183.101C323.393 183.04 323.366 182.983 323.322 182.941C323.277 182.899 323.218 182.876 323.157 182.876Z" fill="#EF802F"/>
<path d="M333.206 182.876H330.435L332.899 180.418C332.944 180.373 332.968 180.312 332.968 180.248C332.968 180.185 332.944 180.124 332.899 180.079C332.877 180.056 332.851 180.038 332.822 180.026C332.792 180.014 332.761 180.008 332.73 180.008C332.698 180.008 332.667 180.014 332.638 180.026C332.608 180.038 332.582 180.056 332.56 180.079L330.095 182.541V179.768C330.095 179.704 330.07 179.644 330.025 179.599C329.981 179.554 329.92 179.529 329.856 179.529C329.793 179.53 329.733 179.555 329.688 179.6C329.644 179.645 329.618 179.705 329.617 179.768V182.541L327.158 180.064C327.135 180.042 327.109 180.024 327.08 180.012C327.051 180 327.019 179.993 326.988 179.993C326.956 179.993 326.925 180 326.896 180.012C326.867 180.024 326.84 180.042 326.818 180.064C326.774 180.11 326.749 180.171 326.749 180.234C326.749 180.297 326.774 180.358 326.818 180.404L329.282 182.862H326.507C326.444 182.863 326.384 182.889 326.339 182.933C326.294 182.978 326.269 183.038 326.268 183.101C326.268 183.164 326.293 183.225 326.338 183.27C326.383 183.315 326.443 183.34 326.507 183.34H329.282L326.818 185.803C326.774 185.848 326.749 185.909 326.749 185.972C326.749 186.036 326.774 186.097 326.818 186.142C326.864 186.185 326.925 186.209 326.988 186.209C327.051 186.209 327.111 186.185 327.158 186.142L329.617 183.679V186.448C329.617 186.512 329.642 186.573 329.687 186.617C329.732 186.662 329.793 186.687 329.856 186.687C329.92 186.687 329.981 186.662 330.025 186.617C330.07 186.573 330.095 186.512 330.095 186.448V183.679L332.56 186.142C332.606 186.185 332.666 186.209 332.73 186.209C332.793 186.209 332.853 186.185 332.899 186.142C332.944 186.097 332.968 186.036 332.968 185.972C332.968 185.909 332.944 185.848 332.899 185.803L330.435 183.34H333.206C333.269 183.34 333.33 183.315 333.375 183.27C333.42 183.225 333.445 183.164 333.445 183.101C333.441 183.04 333.414 182.983 333.37 182.941C333.325 182.899 333.267 182.876 333.206 182.876Z" fill="#EF802F"/>
<path d="M343.254 182.876H340.484L342.948 180.418C342.992 180.373 343.017 180.312 343.017 180.248C343.017 180.185 342.992 180.124 342.948 180.079C342.926 180.056 342.899 180.038 342.87 180.026C342.841 180.014 342.809 180.008 342.778 180.008C342.746 180.008 342.715 180.014 342.686 180.026C342.657 180.038 342.63 180.056 342.608 180.079L340.144 182.541V179.768C340.144 179.704 340.119 179.644 340.074 179.599C340.029 179.554 339.968 179.529 339.905 179.529C339.842 179.53 339.781 179.555 339.737 179.6C339.692 179.645 339.667 179.705 339.665 179.768V182.541L337.206 180.064C337.184 180.042 337.157 180.024 337.128 180.012C337.099 180 337.068 179.993 337.036 179.993C337.004 179.993 336.973 180 336.944 180.012C336.915 180.024 336.888 180.042 336.866 180.064C336.822 180.11 336.797 180.171 336.797 180.234C336.797 180.297 336.822 180.358 336.866 180.404L339.33 182.862H336.555C336.492 182.863 336.432 182.889 336.387 182.933C336.343 182.978 336.317 183.038 336.316 183.101C336.316 183.164 336.341 183.225 336.386 183.27C336.431 183.315 336.492 183.34 336.555 183.34H339.33L336.866 185.803C336.822 185.848 336.797 185.909 336.797 185.972C336.797 186.036 336.822 186.097 336.866 186.142C336.912 186.185 336.973 186.209 337.036 186.209C337.099 186.209 337.16 186.185 337.206 186.142L339.665 183.679V186.448C339.665 186.512 339.691 186.573 339.735 186.617C339.78 186.662 339.841 186.687 339.905 186.687C339.968 186.687 340.029 186.662 340.074 186.617C340.119 186.573 340.144 186.512 340.144 186.448V183.679L342.608 186.142C342.654 186.185 342.715 186.209 342.778 186.209C342.841 186.209 342.902 186.185 342.948 186.142C342.992 186.097 343.017 186.036 343.017 185.972C343.017 185.909 342.992 185.848 342.948 185.803L340.484 183.34H343.254C343.317 183.34 343.378 183.315 343.423 183.27C343.468 183.225 343.493 183.164 343.493 183.101C343.49 183.04 343.463 182.983 343.418 182.941C343.374 182.899 343.315 182.876 343.254 182.876Z" fill="#EF802F"/>
<path d="M353.302 182.876H350.532L352.996 180.418C353.04 180.373 353.065 180.312 353.065 180.248C353.065 180.185 353.04 180.124 352.996 180.079C352.974 180.056 352.947 180.038 352.918 180.026C352.889 180.014 352.858 180.008 352.826 180.008C352.795 180.008 352.763 180.014 352.734 180.026C352.705 180.038 352.678 180.056 352.656 180.079L350.192 182.541V179.768C350.192 179.704 350.167 179.644 350.122 179.599C350.077 179.554 350.016 179.529 349.953 179.529C349.89 179.53 349.83 179.555 349.785 179.6C349.74 179.645 349.715 179.705 349.714 179.768V182.541L347.254 180.064C347.232 180.042 347.205 180.024 347.176 180.012C347.147 180 347.116 179.993 347.084 179.993C347.053 179.993 347.021 180 346.992 180.012C346.963 180.024 346.937 180.042 346.914 180.064C346.87 180.11 346.846 180.171 346.846 180.234C346.846 180.297 346.87 180.358 346.914 180.404L349.379 182.862H346.603C346.54 182.863 346.48 182.889 346.436 182.933C346.391 182.978 346.365 183.038 346.364 183.101C346.364 183.164 346.389 183.225 346.434 183.27C346.479 183.315 346.54 183.34 346.603 183.34H349.379L346.914 185.803C346.87 185.848 346.846 185.909 346.846 185.972C346.846 186.036 346.87 186.097 346.914 186.142C346.96 186.185 347.021 186.209 347.084 186.209C347.147 186.209 347.208 186.185 347.254 186.142L349.714 183.679V186.448C349.714 186.512 349.739 186.573 349.784 186.617C349.828 186.662 349.889 186.687 349.953 186.687C350.016 186.687 350.077 186.662 350.122 186.617C350.167 186.573 350.192 186.512 350.192 186.448V183.679L352.656 186.142C352.702 186.185 352.763 186.209 352.826 186.209C352.889 186.209 352.95 186.185 352.996 186.142C353.04 186.097 353.065 186.036 353.065 185.972C353.065 185.909 353.04 185.848 352.996 185.803L350.532 183.34H353.302C353.366 183.34 353.427 183.315 353.471 183.27C353.516 183.225 353.541 183.164 353.541 183.101C353.538 183.04 353.511 182.983 353.467 182.941C353.422 182.899 353.363 182.876 353.302 182.876Z" fill="#EF802F"/>
<path d="M363.35 182.876H360.58L363.044 180.418C363.088 180.373 363.113 180.312 363.113 180.248C363.113 180.185 363.088 180.124 363.044 180.079C363.022 180.056 362.995 180.038 362.966 180.026C362.937 180.014 362.906 180.008 362.874 180.008C362.843 180.008 362.811 180.014 362.782 180.026C362.753 180.038 362.727 180.056 362.704 180.079L360.24 182.541V179.768C360.24 179.704 360.215 179.644 360.17 179.599C360.125 179.554 360.064 179.529 360.001 179.529C359.938 179.53 359.878 179.555 359.833 179.6C359.789 179.645 359.763 179.705 359.762 179.768V182.541L357.302 180.064C357.28 180.042 357.254 180.024 357.224 180.012C357.195 180 357.164 179.993 357.132 179.993C357.101 179.993 357.07 180 357.04 180.012C357.011 180.024 356.985 180.042 356.963 180.064C356.918 180.11 356.894 180.171 356.894 180.234C356.894 180.297 356.918 180.358 356.963 180.404L359.427 182.862H356.652C356.589 182.863 356.528 182.889 356.484 182.933C356.439 182.978 356.414 183.038 356.412 183.101C356.412 183.164 356.438 183.225 356.482 183.27C356.527 183.315 356.588 183.34 356.652 183.34H359.427L356.963 185.803C356.918 185.848 356.894 185.909 356.894 185.972C356.894 186.036 356.918 186.097 356.963 186.142C357.009 186.185 357.069 186.209 357.132 186.209C357.196 186.209 357.256 186.185 357.302 186.142L359.762 183.679V186.448C359.762 186.512 359.787 186.573 359.832 186.617C359.877 186.662 359.938 186.687 360.001 186.687C360.064 186.687 360.125 186.662 360.17 186.617C360.215 186.573 360.24 186.512 360.24 186.448V183.679L362.704 186.142C362.751 186.185 362.811 186.209 362.874 186.209C362.937 186.209 362.998 186.185 363.044 186.142C363.088 186.097 363.113 186.036 363.113 185.972C363.113 185.909 363.088 185.848 363.044 185.803L360.58 183.34H363.35C363.414 183.34 363.475 183.315 363.52 183.27C363.564 183.225 363.59 183.164 363.59 183.101C363.586 183.04 363.559 182.983 363.515 182.941C363.47 182.899 363.411 182.876 363.35 182.876Z" fill="#EF802F"/>
<path d="M440.383 241.05C440.369 240.472 440.297 239.897 440.167 239.333C439.737 237.717 438.765 235.761 437.167 235.273C435.517 234.768 433.923 234.095 432.411 233.265C432.124 228.138 433.301 222.892 432.019 217.924C431.54 216.107 430.751 214.366 430.54 212.506C430.277 210.191 430.908 207.724 429.985 205.591C429.258 203.908 427.659 202.722 425.942 202.1C424.224 201.478 422.372 201.311 420.549 201.144C418.252 200.957 410.817 200.077 408.223 202.129C408.044 202.267 407.884 202.428 407.745 202.607C407.687 202.686 407.636 202.769 407.592 202.856L407.568 202.894C407.516 202.993 407.472 203.097 407.439 203.205C407.402 203.322 407.375 203.442 407.357 203.563C407.357 203.602 407.357 203.64 407.357 203.678C407.357 203.716 407.357 203.845 407.357 203.932V204.061C407.357 204.147 407.357 204.233 407.357 204.324C407.357 204.415 407.357 204.391 407.357 204.424C407.391 204.854 407.453 205.285 407.453 205.71C407.458 205.922 407.439 206.134 407.395 206.342C407.236 206.906 406.966 207.432 406.601 207.891L406.515 208.015C406.462 208.092 406.41 208.164 406.362 208.24C406.314 208.317 406.276 208.374 406.238 208.441C406.199 208.508 406.161 208.551 406.127 208.613C406.081 208.692 406.04 208.773 406.003 208.857C406.003 208.905 405.95 208.948 405.931 208.996C405.871 209.125 405.823 209.259 405.788 209.397C405.676 209.813 405.666 210.249 405.759 210.669C405.888 211.206 406.11 211.716 406.415 212.176C406.534 212.372 406.663 212.563 406.797 212.754L407.132 213.209C407.07 213.652 407.036 214.1 407.032 214.548C407.032 216.045 407.372 217.523 408.027 218.87C408.682 220.217 409.634 221.398 410.812 222.323C411.001 224.343 410.981 226.377 410.75 228.392C410.707 228.813 410.654 229.238 410.597 229.659C410.539 230.08 410.496 230.357 410.439 230.706C409.738 230.807 409.025 230.753 408.348 230.549C408.035 230.409 407.716 230.286 407.391 230.18C405.998 229.831 404.577 231.218 403.199 230.797C403.199 230.864 403.161 230.926 403.137 230.988C402.849 230.81 402.519 230.712 402.18 230.706C401.362 230.668 400.697 230.075 400.103 229.516L398.28 227.799C398.161 227.694 398.055 227.575 397.964 227.445C397.866 227.259 397.792 227.061 397.744 226.857C397.438 225.867 396.696 225.078 395.979 224.327C395.843 224.156 395.662 224.025 395.457 223.949C395.378 223.937 395.297 223.937 395.218 223.949C395.169 223.882 395.116 223.819 395.06 223.758C394.936 223.616 394.804 223.482 394.663 223.356C393.792 222.553 393.706 221.864 392.95 220.965C392.29 220.108 391.692 219.205 391.16 218.263C391.098 217.761 391.012 217.245 390.907 216.724C390.665 215.53 390.315 214.362 389.859 213.233L388.902 211.114L388.792 211.224C388.098 210.191 387.356 209.627 386.691 209.761C385.576 209.99 385.026 212.152 385.203 214.978L385.586 217.847C385.586 217.919 385.619 217.991 385.639 218.063C385.57 218.403 385.534 218.749 385.533 219.095C385.533 219.497 385.907 219.794 386.103 220.152C386.417 220.638 386.583 221.205 386.581 221.783C386.557 221.989 386.495 222.185 386.485 222.386C386.512 222.835 386.668 223.267 386.935 223.629L389.328 227.646L389.806 228.487L389.835 228.526C389.986 228.819 390.206 229.072 390.476 229.262C390.57 230.268 390.837 231.25 391.266 232.165C391.347 232.347 391.438 232.519 391.534 232.691C392.177 233.748 392.934 234.731 393.792 235.622L394.931 236.899C396.055 238.152 397.18 239.41 398.4 240.567C398.837 241.031 399.364 241.401 399.95 241.653C400.237 241.767 400.549 241.804 400.855 241.76C401.161 241.715 401.45 241.591 401.692 241.399C401.692 241.992 401.692 242.585 401.692 243.178C401.87 243.189 402.041 243.247 402.189 243.346C402.336 243.446 402.455 243.583 402.532 243.743C402.609 243.903 402.642 244.081 402.627 244.259C402.612 244.436 402.55 244.606 402.448 244.751C401.443 247.329 400.429 249.93 398.907 252.24C399.981 252.875 400.977 253.635 401.874 254.502C402.456 255.147 402.973 255.847 403.419 256.592C403.462 256.946 403.496 257.295 403.515 257.644C403.869 263.344 401.663 269.001 399.687 274.434C399.118 275.973 398.496 277.585 398.543 279.187C398.168 279.418 397.81 279.675 397.472 279.957C397.864 280.98 397.711 281.894 397.668 282.989C397.654 283.645 397.519 284.294 397.271 284.902C397.063 285.323 396.833 285.733 396.582 286.131C395.342 288.316 395.07 290.913 394.821 293.409C394.672 294.915 395.256 296.756 394.572 298.105C393.39 300.419 392.342 302.887 392.18 305.46C392.174 306.039 392.1 306.615 391.959 307.176C391.811 307.655 391.548 308.061 391.414 308.53C391.276 309.158 391.244 309.804 391.318 310.443C391.409 312.735 391.068 315.024 390.313 317.19C389.715 318.897 389.055 320.724 389.524 322.479C388.369 323.691 387.657 325.256 387.5 326.922C387.488 327.348 387.436 327.772 387.347 328.189C387.201 328.615 387.008 329.024 386.773 329.408C385.809 331.162 385.358 333.15 385.471 335.147C384.036 337.093 383.318 339.494 382.892 341.88C382.466 344.266 382.28 346.696 381.734 349.053C381.007 352.171 379.691 355.322 379.433 358.517C377.882 359.507 377.212 361.424 376.916 363.237C376.619 365.049 376.571 366.952 375.81 368.626C375.418 369.496 374.853 370.276 374.48 371.165C374.218 371.874 374.026 372.606 373.906 373.351C373.676 374.518 373.475 375.818 373.758 376.937C373.352 377.367 372.878 377.727 372.356 378.004C372.432 377.707 372.494 377.411 372.547 377.11C371.313 378.229 369.073 377.836 368.088 379.18C367.792 379.613 367.676 380.145 367.765 380.661C367.855 381.178 368.142 381.64 368.566 381.949C368.874 382.137 369.208 382.28 369.557 382.375C371.949 383.14 374.408 383.91 376.868 383.503C377.159 383.472 377.44 383.382 377.696 383.24C378.016 383.005 378.279 382.701 378.466 382.351C378.834 381.767 379.203 381.184 379.567 380.6C380.448 380.863 381.344 381.073 382.251 381.227C382.342 381.992 382.409 382.757 382.442 383.522C382.921 383.618 383.562 383.647 383.787 383.202C383.855 383.034 383.883 382.852 383.868 382.671C383.868 382.332 383.916 381.882 383.945 381.423H384.04C385.5 381.482 386.953 381.188 388.275 380.567C387.763 376.33 389.452 372.189 390.916 368.181C392.462 363.964 393.787 359.669 395.122 355.375C396.079 352.353 397.137 349.426 398.074 346.399C399.255 342.573 400.44 338.748 401.63 334.922C402.146 333.239 402.668 331.575 403.261 329.901C404.51 326.514 405.992 323.218 407.697 320.035C408.175 319.132 408.654 318.237 409.046 317.3C409.525 316.157 409.864 314.962 410.247 313.781C411.081 311.357 412.086 308.995 413.252 306.713C413.286 306.65 413.31 306.593 413.343 306.536C413.731 308.119 414.118 309.725 414.377 311.318C414.726 313.27 414.754 315.267 414.458 317.228C414.228 318.563 413.793 319.882 413.845 321.236C413.917 323.106 414.917 324.803 415.41 326.606C415.728 327.955 415.907 329.333 415.946 330.719C416.08 332.871 417.248 335.286 416.425 337.28C413.865 343.597 415.104 350.732 413.645 357.364C412.893 360.769 410.592 363.968 410.774 367.45C410.901 369.921 411.118 372.385 411.424 374.843C411.498 375.618 411.7 376.376 412.022 377.086C412.213 377.459 412.433 377.817 412.678 378.157C412.467 378.238 412.29 378.453 412.137 378.908C411.745 380.103 412.137 381.586 413.2 382.255C413.632 382.486 414.099 382.648 414.582 382.733C415.233 382.918 415.906 383.011 416.582 383.011C416.793 382.999 417.002 382.974 417.209 382.934C417.949 383.245 418.704 383.516 419.473 383.747C419.473 383.943 419.511 384.139 419.535 384.335C419.536 384.438 419.559 384.539 419.602 384.632C419.645 384.725 419.707 384.808 419.784 384.876C419.903 384.931 420.035 384.954 420.166 384.943H422.765C422.765 384.727 422.765 384.507 422.765 384.292C423.062 384.323 423.362 384.292 423.647 384.199C423.931 384.107 424.193 383.956 424.415 383.757C424.645 383.464 424.809 383.124 424.894 382.762C425.602 380.361 426.305 377.959 427.004 375.555C427.842 372.898 428.19 370.112 428.033 367.33C427.109 358.517 429.138 349.675 428.478 340.838C428.08 335.526 428.354 330.185 429.291 324.942C429.506 323.756 429.77 322.551 429.865 321.37C430.076 319.141 429.817 316.889 429.975 314.675C430.028 313.9 430.133 313.13 430.229 312.36C430.885 307.582 431.228 302.766 431.258 297.942C431.243 296.344 431.144 294.748 430.961 293.16C431.46 293.033 431.913 292.768 432.267 292.395C432.693 291.84 432.583 291.061 432.578 290.353C432.578 288.66 433.291 287.063 433.866 285.466C434.602 283.263 435.206 281.018 435.674 278.742C436.169 276.909 436.438 275.022 436.478 273.123C436.478 272.932 436.468 272.741 436.449 272.55C436.63 272.425 436.78 272.261 436.89 272.071C437.014 271.791 437.092 271.492 437.119 271.187C437.291 269.967 437.469 268.743 437.641 267.519C437.768 266.642 437.894 265.767 438.019 264.893L439.54 254.282C439.67 253.359 439.804 252.441 439.933 251.523L440.33 248.778C440.373 248.453 440.421 248.127 440.454 247.821C441.622 245.87 440.507 243.269 440.383 241.05ZM427.688 280.779C427.124 279.44 426.597 278.068 426.731 276.624H426.679C426.804 276.179 426.783 275.706 426.616 275.275C426.468 274.926 426.21 274.63 426.052 274.281C425.882 273.855 425.794 273.4 425.793 272.942C425.675 270.033 425.904 267.121 426.478 264.267C426.54 263.932 426.607 263.593 426.669 263.258C426.87 263.142 427.053 262.999 427.214 262.832C427.466 262.546 427.674 262.223 427.832 261.876C428.372 260.79 428.865 259.686 429.32 258.562C429.468 258.199 429.683 257.778 430.052 257.687C429.975 260.484 430.262 263.339 429.124 265.864C428.907 266.271 428.746 266.706 428.645 267.155C428.54 267.868 428.837 268.59 428.731 269.298C428.679 269.666 428.521 270.005 428.459 270.369C428.411 270.547 428.412 270.735 428.461 270.913C428.51 271.091 428.605 271.253 428.736 271.383C428.799 271.427 428.869 271.462 428.942 271.488C428.913 271.679 428.889 271.875 428.87 272.062C428.832 272.454 428.813 272.822 428.789 273.052C428.679 274.221 428.635 275.397 428.66 276.571C428.66 277.838 428.707 279.106 428.688 280.397C428.706 280.768 428.644 281.138 428.506 281.482C428.412 281.66 428.289 281.822 428.143 281.961C428.004 281.53 427.851 281.152 427.688 280.779Z" fill="url(#paint0_linear)"/>
<path d="M389.917 225.293C391.377 224.994 391.874 221.402 391.027 217.27C390.18 213.138 388.31 210.031 386.85 210.33C385.389 210.629 384.893 214.221 385.74 218.353C386.587 222.485 388.457 225.592 389.917 225.293Z" fill="#FBBEBE"/>
<path d="M412.214 378.998C411.822 380.184 412.214 381.667 413.276 382.312C413.707 382.542 414.17 382.703 414.649 382.791C415.299 382.974 415.97 383.066 416.645 383.063C417.473 383.025 418.267 382.7 419.095 382.585C419.19 382.561 419.291 382.575 419.377 382.623C419.418 382.668 419.449 382.721 419.468 382.779C419.486 382.837 419.491 382.898 419.482 382.958C419.491 383.428 419.526 383.898 419.587 384.364C419.588 384.467 419.611 384.568 419.654 384.661C419.697 384.754 419.759 384.837 419.836 384.904C419.956 384.96 420.088 384.983 420.219 384.971H422.812C422.871 382.694 422.622 380.42 422.071 378.209C422.035 378.04 421.97 377.878 421.879 377.731C421.659 377.49 421.37 377.323 421.052 377.253C420.418 376.989 419.733 376.87 419.047 376.904C418.209 377.014 417.511 377.554 416.798 378.004C416.085 378.453 415.114 378.85 414.248 378.621C413.381 378.391 412.659 377.669 412.214 378.998Z" fill="#3F3D56"/>
<path d="M374.136 376.899C373.406 377.679 372.512 378.287 371.518 378.678L371.078 378.889C371.017 378.912 370.965 378.953 370.93 379.008C370.921 379.045 370.921 379.084 370.929 379.121C370.938 379.158 370.954 379.193 370.978 379.223C371.344 379.789 371.885 380.221 372.519 380.451C373.153 380.682 373.845 380.699 374.49 380.5C374.775 380.429 375.039 380.291 375.26 380.098C375.625 379.666 375.834 379.124 375.853 378.559C375.998 377.976 375.973 377.363 375.782 376.794C375.116 375.297 374.872 375.976 374.136 376.899Z" fill="#FBBEBE"/>
<path d="M384.079 382.791C384.093 382.972 384.066 383.153 383.997 383.321C383.772 383.761 383.146 383.738 382.658 383.642C382.584 382.019 382.387 380.405 382.069 378.812C381.141 378.769 380.471 379.649 379.973 380.438L378.691 382.47C378.505 382.82 378.244 383.124 377.925 383.36C377.669 383.5 377.388 383.589 377.098 383.623C374.648 384.029 372.174 383.259 369.81 382.494C369.462 382.401 369.129 382.259 368.82 382.073C368.398 381.764 368.112 381.303 368.023 380.788C367.934 380.272 368.048 379.743 368.341 379.309C369.332 377.97 371.557 378.353 372.791 377.243C372.662 378.024 372.451 378.789 372.16 379.525C373.81 379.276 374.92 377.765 376.251 376.756C376.585 376.472 376.987 376.281 377.418 376.201C377.741 376.174 378.065 376.208 378.375 376.301C379.909 376.687 381.344 377.393 382.586 378.372C383.088 378.769 383.873 379.328 384.093 379.941C384.327 380.672 384.079 382.011 384.079 382.791Z" fill="#3F3D56"/>
<path d="M416.994 225.011C422.454 225.011 426.879 220.588 426.879 215.131C426.879 209.675 422.454 205.251 416.994 205.251C411.534 205.251 407.108 209.675 407.108 215.131C407.108 220.588 411.534 225.011 416.994 225.011Z" fill="#FBBEBE"/>
<path d="M436.468 273.463C436.429 275.352 436.16 277.229 435.669 279.053C435.201 281.319 434.597 283.555 433.861 285.748C433.291 287.34 432.578 288.938 432.583 290.626C432.583 291.329 432.698 292.108 432.267 292.663C431.884 293.052 431.4 293.329 430.87 293.462C430.606 293.532 430.361 293.663 430.157 293.845C429.952 294.027 429.793 294.254 429.693 294.509C429.244 293.838 428.908 293.098 428.698 292.319C427.84 289.692 427.042 287.05 426.305 284.395C426.238 284.242 426.209 284.075 426.221 283.908C426.232 283.742 426.284 283.58 426.372 283.438C426.494 283.333 426.635 283.253 426.789 283.204C427.279 283.004 427.728 282.716 428.114 282.353C428.295 282.192 428.444 281.999 428.554 281.784C428.693 281.441 428.757 281.072 428.741 280.703C428.741 279.436 428.741 278.173 428.707 276.906C428.687 275.736 428.732 274.566 428.841 273.401C428.841 273.171 428.884 272.803 428.923 272.411C428.995 271.66 429.138 270.79 429.545 270.498C430.152 270.092 431.971 270.637 432.66 270.732C433.846 270.895 435.052 271.086 436.21 271.311C436.378 272.016 436.465 272.738 436.468 273.463Z" fill="#3F3D56"/>
<path d="M396.553 226.192C396.17 226.957 395.251 227.325 394.543 227.808L392.117 229.473C391.955 229.619 391.765 229.73 391.559 229.801C391.352 229.872 391.134 229.9 390.916 229.884C390.719 229.811 390.538 229.699 390.384 229.556C390.231 229.412 390.107 229.239 390.021 229.047C390.023 229.034 390.023 229.021 390.021 229.009L389.519 228.167L387.127 224.16C386.861 223.801 386.706 223.372 386.682 222.926C386.682 222.72 386.753 222.529 386.772 222.323C386.779 221.746 386.612 221.18 386.294 220.697C386.103 220.339 385.72 220.042 385.729 219.641C385.711 219.113 385.802 218.587 385.997 218.096C386.248 217.642 386.608 217.257 387.045 216.977C387.27 216.814 387.5 216.661 387.739 216.499C387.866 216.412 388.007 216.347 388.155 216.308C388.552 216.226 388.945 216.556 389.347 216.571C391.074 217.728 391.739 219.918 393.098 221.496C393.864 222.395 393.94 223.084 394.806 223.887C394.945 224.011 395.079 224.145 395.208 224.284C395.379 224.471 395.524 224.68 395.639 224.906C395.797 225.317 396.749 225.8 396.553 226.192Z" fill="#3F3D56"/>
<path d="M413.52 225.016C414.233 226.522 414.788 228.177 414.582 229.831C414.54 230.279 414.398 230.713 414.166 231.098C413.477 232.155 412.032 232.347 410.773 232.409C410.508 232.387 410.241 232.417 409.988 232.499C409.735 232.582 409.501 232.713 409.3 232.887C409.132 233.131 409.049 233.424 409.066 233.72C409.082 234.016 409.196 234.298 409.391 234.522C409.795 234.954 410.297 235.282 410.855 235.479C412.845 236.354 414.994 237.076 417.157 236.875C418.161 236.78 419.138 236.488 420.138 236.34C421.228 236.222 422.323 236.161 423.42 236.158C424.721 236.11 426.018 235.981 427.315 235.852L430.75 235.512C430.938 235.515 431.12 235.449 431.262 235.326C431.516 235.029 431.191 234.594 430.875 234.369C429.052 233.021 426.731 232.093 425.693 230.066C425.214 229.109 425.066 227.971 424.712 226.938C424.358 225.905 423.793 224.973 423.573 223.921C423.456 222.998 423.403 222.068 423.415 221.137C423.427 220.199 423.086 219.291 422.458 218.593C421.774 217.957 420.783 217.795 419.855 217.757C417.568 217.656 415.133 218.201 413.51 219.813C413.075 220.248 412.702 220.769 412.252 221.161C411.802 221.553 411.19 221.668 411.486 222.185C411.783 222.701 412.367 223.022 412.683 223.476C413.002 223.966 413.282 224.481 413.52 225.016Z" fill="#FBBEBE"/>
<path d="M433.009 238.927C432.406 242.609 431.424 246.219 430.081 249.701C429.405 251.273 428.83 252.886 428.358 254.531C427.99 256.013 428.061 257.601 427.722 259.088C427.301 260.939 426.88 262.794 426.54 264.659C425.97 267.507 425.742 270.413 425.86 273.315C425.861 273.772 425.949 274.224 426.119 274.649C426.277 274.993 426.53 275.29 426.679 275.644C426.79 275.954 426.835 276.285 426.812 276.614C426.789 276.943 426.698 277.264 426.545 277.556C426.299 278.104 425.966 278.608 425.559 279.048C421.099 280.378 416.329 279.943 411.683 280.225C407.4 280.483 403.07 281.363 398.85 280.631C398.371 278.718 399.17 276.715 399.854 274.85C401.84 269.432 404.036 263.789 403.682 258.112C403.645 257.45 403.57 256.791 403.457 256.137C402.764 252.116 403.52 247.951 404.73 244.053C405.481 241.624 405.448 239.037 405.276 236.507C405.19 235.686 405.179 234.858 405.242 234.035C405.311 233.194 405.624 232.391 406.142 231.725C406.142 231.691 406.185 231.658 406.209 231.625C406.233 231.591 406.419 231.596 406.568 231.625C406.605 231.641 406.646 231.649 406.687 231.649C406.728 231.649 406.769 231.641 406.807 231.625L406.86 231.591C406.88 231.577 406.904 231.569 406.929 231.569C406.954 231.569 406.978 231.577 406.998 231.591C407.108 231.658 407.171 231.888 407.41 231.931C407.763 231.984 408.12 232.018 408.477 232.031C408.907 232.044 409.333 232.105 409.75 232.213H409.807C410.429 232.318 411.068 232.263 411.664 232.055C412.06 231.956 412.442 231.808 412.802 231.615C412.908 231.5 413.568 231.395 413.702 231.314C414.137 231.051 414.042 229.817 414.133 229.31C414.183 228.802 414.304 228.303 414.491 227.828C414.709 227.477 415.01 227.185 415.367 226.977C415.724 226.77 416.127 226.653 416.539 226.637C417.363 226.617 418.187 226.691 418.994 226.857C420.779 227.11 422.607 227.067 424.358 227.478C425.238 227.684 426.2 227.995 427.009 227.593C427.229 227.646 427.262 227.837 427.262 228.071C427.242 228.294 427.197 228.514 427.128 228.727C426.822 230.046 427.86 231.261 428.817 232.217C429.222 232.668 429.699 233.048 430.229 233.341C430.707 233.561 431.186 233.652 431.664 233.891C432.052 234.098 432.381 234.399 432.621 234.766C432.897 235.188 433.083 235.661 433.167 236.158C433.27 237.083 433.216 238.019 433.009 238.927Z" fill="#3F3D56"/>
<path opacity="0.1" d="M433.009 238.927C432.406 242.609 431.424 246.219 430.081 249.701C429.405 251.273 428.83 252.886 428.358 254.531C427.99 256.013 428.061 257.601 427.722 259.088C427.301 260.939 426.88 262.794 426.54 264.659C426.439 264.717 426.334 264.769 426.229 264.817C425.633 265.101 425.003 265.304 424.353 265.419C423.187 265.561 422.005 265.522 420.851 265.305L414.022 264.391C411.295 264.023 408.391 263.578 406.367 261.733C405.242 260.719 404.505 259.38 403.697 258.089C403.66 257.426 403.585 256.767 403.472 256.114C402.778 252.092 403.534 247.927 404.745 244.029C405.496 241.6 405.462 239.013 405.29 236.483C405.205 235.662 405.194 234.834 405.257 234.011C405.326 233.17 405.638 232.367 406.156 231.701C406.296 231.66 406.438 231.628 406.582 231.605C406.678 231.586 406.776 231.573 406.874 231.567H407.013C407.174 231.568 407.334 231.587 407.491 231.625C407.817 231.728 408.137 231.851 408.448 231.993H408.506C408.916 232.128 409.347 232.189 409.778 232.174C410.41 232.174 411.061 232.074 411.692 232.031C412.472 231.909 413.271 232.052 413.96 232.437C414.405 232.795 414.827 233.18 415.224 233.59C415.702 233.966 416.241 234.258 416.817 234.455C420.936 236.027 425.505 235.931 429.554 234.188C429.943 233.967 430.384 233.854 430.832 233.863C431.162 233.927 431.475 234.061 431.75 234.255C432.038 234.422 432.32 234.585 432.612 234.733C432.888 235.154 433.073 235.628 433.157 236.124C433.267 237.06 433.217 238.008 433.009 238.927Z" fill="black"/>
<path d="M437.177 235.761C435.271 235.179 433.44 234.377 431.722 233.37C431.446 233.177 431.133 233.044 430.803 232.978C430.355 232.973 429.912 233.085 429.521 233.303C425.473 235.046 420.905 235.142 416.788 233.571C416.213 233.372 415.675 233.079 415.195 232.705C414.797 232.296 414.375 231.911 413.932 231.553C412.357 230.534 410.18 231.73 408.419 231.075C408.107 230.935 407.788 230.812 407.462 230.706C406.07 230.357 404.654 231.744 403.285 231.323C402.776 232.706 402.4 234.135 402.161 235.589C401.966 237.259 401.862 238.938 401.85 240.62C401.85 241.629 401.802 242.638 401.85 243.647C402.018 243.674 402.179 243.737 402.323 243.83C402.466 243.923 402.588 244.044 402.682 244.187C402.745 244.354 402.771 244.532 402.758 244.71C402.744 244.887 402.693 245.06 402.606 245.215C401.606 247.783 400.591 250.38 399.074 252.68C400.143 253.317 401.136 254.074 402.032 254.937C403.706 256.707 404.529 259.188 406.338 260.824C408.376 262.665 411.281 263.114 413.994 263.478L420.822 264.391C421.978 264.608 423.161 264.648 424.329 264.511C424.977 264.393 425.606 264.188 426.2 263.904C426.588 263.741 426.942 263.508 427.243 263.215C427.495 262.929 427.703 262.606 427.86 262.259C428.401 261.178 428.894 260.073 429.348 258.954C429.506 258.557 429.746 258.093 430.176 258.06C432.712 255.774 435.105 253.431 437.641 251.145C438.66 250.301 439.574 249.338 440.363 248.276C441.622 246.415 440.478 243.781 440.363 241.533C440.349 240.958 440.277 240.386 440.148 239.826C439.736 238.195 438.77 236.244 437.177 235.761Z" fill="#EF802F"/>
<path opacity="0.1" d="M396.553 226.192C396.17 226.957 395.251 227.325 394.543 227.808L392.117 229.473C391.955 229.619 391.765 229.73 391.559 229.801C391.352 229.872 391.134 229.9 390.916 229.884C390.719 229.811 390.538 229.699 390.384 229.556C390.231 229.412 390.107 229.239 390.021 229.047C390.021 228.937 390.021 228.817 390.021 228.703C390.003 228.316 390.055 227.928 390.175 227.56C390.412 227.019 390.78 226.546 391.246 226.183C392.147 225.33 393.219 224.678 394.39 224.27C394.573 224.199 394.771 224.179 394.964 224.212C395.039 224.232 395.11 224.262 395.175 224.303C395.346 224.49 395.491 224.699 395.605 224.925C395.797 225.317 396.749 225.8 396.553 226.192Z" fill="black"/>
<path d="M402.266 231.232C401.453 231.194 400.788 230.606 400.194 230.046L398.381 228.363C398.259 228.261 398.153 228.141 398.065 228.009C397.967 227.823 397.893 227.626 397.845 227.421C397.46 226.455 396.858 225.591 396.084 224.896C395.949 224.725 395.768 224.595 395.562 224.523C395.368 224.487 395.167 224.507 394.983 224.581C393.812 224.988 392.74 225.64 391.84 226.493C391.374 226.857 391.006 227.33 390.768 227.871C390.648 228.239 390.596 228.626 390.615 229.014C390.626 230.277 390.91 231.523 391.447 232.667C391.529 232.844 391.62 233.021 391.715 233.193C392.354 234.248 393.108 235.228 393.964 236.115L395.103 237.387C396.223 238.64 397.342 239.893 398.558 241.045C398.993 241.51 399.521 241.878 400.108 242.126C400.402 242.246 400.724 242.283 401.038 242.232C401.352 242.182 401.646 242.046 401.888 241.839C402.117 241.574 402.29 241.265 402.395 240.93C403.132 239.018 403.831 237.028 403.874 234.967C403.884 234.142 403.849 233.316 403.768 232.495C403.697 231.625 403.079 231.285 402.266 231.232Z" fill="#EF802F"/>
<path d="M431.263 298.181C431.235 302.992 430.893 307.795 430.239 312.561C430.143 313.331 430.038 314.101 429.985 314.871C429.827 317.104 430.085 319.347 429.875 321.566C429.765 322.766 429.516 323.957 429.306 325.128C428.37 330.358 428.097 335.684 428.492 340.981C429.152 349.794 427.128 358.613 428.047 367.402C428.158 369.111 428.064 370.827 427.765 372.514C427.594 373.561 427.346 374.593 427.023 375.603C426.325 377.997 425.623 380.389 424.918 382.776C424.835 383.14 424.671 383.479 424.439 383.771C424.195 383.982 423.909 384.138 423.599 384.23C423.29 384.322 422.965 384.346 422.645 384.302C419.884 384.216 417.286 383.025 414.779 381.863C414.49 381.749 414.223 381.588 413.989 381.385C413.468 380.844 413.511 379.993 413.281 379.281C413.051 378.568 412.429 377.899 412.075 377.167C411.784 376.475 411.608 375.74 411.554 374.991C411.235 372.543 411.018 370.085 410.903 367.617C410.721 364.145 413.018 360.951 413.774 357.575C415.209 350.937 413.994 343.822 416.544 337.524C417.348 335.534 416.181 333.124 416.066 330.982C416.024 329.6 415.845 328.225 415.53 326.879C415.051 325.081 414.042 323.388 413.97 321.523C413.917 320.174 414.353 318.859 414.578 317.53C414.876 315.573 414.849 313.581 414.496 311.633C414.243 310.027 413.855 308.42 413.468 306.851L413.381 307.028C412.216 309.306 411.213 311.663 410.381 314.082C409.998 315.253 409.664 316.449 409.185 317.587C408.793 318.544 408.309 319.419 407.836 320.318C406.137 323.488 404.658 326.772 403.41 330.145C402.816 331.799 402.295 333.492 401.778 335.152L398.232 346.629C397.275 349.646 396.228 352.563 395.29 355.576C393.964 359.88 392.639 364.145 391.098 368.354C389.663 372.347 387.954 376.483 388.466 380.701C387.147 381.321 385.698 381.614 384.241 381.557C381.775 381.339 379.356 380.752 377.064 379.816C376.15 379.477 375.203 379.094 374.585 378.343C373.523 377.047 373.786 375.149 374.107 373.499C374.228 372.755 374.42 372.025 374.681 371.318C375.045 370.439 375.638 369.659 376.011 368.789C376.763 367.12 376.81 365.231 377.107 363.418C377.404 361.606 378.064 359.693 379.614 358.708C379.878 355.523 381.189 352.381 381.911 349.268C382.457 346.911 382.638 344.486 383.069 342.095C383.5 339.704 384.194 337.313 385.639 335.376C385.525 333.379 385.976 331.391 386.94 329.638C387.173 329.253 387.364 328.844 387.509 328.418C387.599 328.003 387.65 327.581 387.663 327.156C387.821 325.494 388.532 323.934 389.682 322.723C389.203 320.978 389.868 319.156 390.467 317.463C391.22 315.303 391.561 313.02 391.471 310.734C391.397 310.096 391.428 309.45 391.562 308.822C391.696 308.343 391.959 307.937 392.113 307.478C392.249 306.915 392.321 306.34 392.328 305.761C392.514 303.174 393.562 300.735 394.72 298.425C395.409 297.077 394.826 295.245 394.969 293.744C395.218 291.247 395.491 288.665 396.73 286.489C396.96 286.078 397.208 285.686 397.414 285.26C397.664 284.653 397.798 284.004 397.811 283.347C397.854 282.252 398.008 281.344 397.615 280.325C400.175 278.197 403.668 277.599 406.998 277.456C410.329 277.312 413.697 277.614 416.956 276.906C417.913 276.691 418.87 276.394 419.879 276.251C422.171 275.916 424.497 276.437 426.76 276.954C426.602 278.388 427.128 279.766 427.717 281.1C430.015 286.504 431.22 292.31 431.263 298.181Z" fill="#33313F"/>
<path opacity="0.1" d="M419.994 299.277L414.496 311.633C414.243 310.027 413.855 308.42 413.467 306.851L413.381 307.028V306.77L416.377 300.185L419.994 299.277Z" fill="black"/>
<path opacity="0.1" d="M436.468 273.463C436.151 273.7 435.773 273.841 435.377 273.869C434.771 273.891 434.166 273.808 433.588 273.625L429.282 272.55C429.146 272.516 429.015 272.47 428.889 272.411C428.961 271.66 429.104 270.79 429.511 270.498C430.119 270.092 431.937 270.637 432.626 270.732C433.813 270.895 435.019 271.086 436.177 271.311C436.356 272.015 436.454 272.737 436.468 273.463Z" fill="black"/>
<path d="M440.11 245.01C440.201 245.406 440.33 245.799 440.406 246.2C440.535 247.186 440.501 248.186 440.306 249.16L439.914 251.896L439.521 254.645L438.004 265.228L437.631 267.849L437.105 271.507C437.08 271.811 437.002 272.109 436.875 272.387C436.718 272.647 436.5 272.864 436.238 273.018C435.977 273.173 435.681 273.26 435.378 273.272C434.772 273.291 434.167 273.208 433.588 273.028L429.282 271.947C429.093 271.913 428.913 271.84 428.755 271.732C428.624 271.603 428.529 271.442 428.48 271.265C428.431 271.087 428.43 270.9 428.478 270.723C428.54 270.359 428.698 270.02 428.75 269.656C428.856 268.949 428.559 268.222 428.664 267.519C428.768 267.071 428.928 266.639 429.143 266.232C430.578 263.062 429.746 259.361 430.234 255.917C430.673 253.208 431.818 250.661 433.554 248.534C434.626 247.191 435.857 245.984 437.22 244.938C437.756 244.522 438.607 243.666 439.282 243.503C440.148 243.321 439.966 244.407 440.11 245.01Z" fill="#EF802F"/>
<path d="M407.52 203.817C407.204 204.821 407.697 205.926 407.472 206.949C407.228 208.078 406.166 208.862 405.864 209.995C405.386 211.722 406.85 213.295 407.922 214.729C411.893 220.057 411.372 227.431 410.013 233.929C408.919 239.144 407.407 244.261 405.491 249.232C404.893 250.777 404.233 252.345 403.056 253.503C405.257 252.871 407.596 252.235 409.802 252.847C412.597 253.622 415.008 256.334 417.841 255.717C419.544 255.339 420.74 253.828 422.272 252.991C425.143 251.446 428.602 252.417 431.803 252.914C432.493 253.077 433.215 253.04 433.885 252.809C434.397 252.534 434.831 252.134 435.148 251.647C436.576 249.815 437.432 247.603 437.607 245.287C437.683 244.134 437.513 242.978 437.108 241.895C436.703 240.813 436.072 239.829 435.258 239.008C434.578 238.367 433.765 237.851 433.243 237.095C432.736 236.213 432.464 235.215 432.454 234.197C432.076 228.937 433.358 223.567 432.038 218.479C431.559 216.666 430.779 214.93 430.569 213.075C430.305 210.765 430.932 208.293 430.014 206.179C429.291 204.501 427.698 203.31 425.98 202.698C424.262 202.086 422.425 201.913 420.602 201.741C417.98 201.521 408.616 200.398 407.52 203.817Z" fill="#33313F"/>
<g opacity="0.1">
<path opacity="0.1" d="M410.013 233.929C408.925 239.122 407.421 244.219 405.515 249.17C405.845 248.515 406.123 247.826 406.386 247.142C408.304 242.172 409.816 237.054 410.908 231.84C412.271 225.336 412.793 217.972 408.821 212.64C407.864 211.368 406.635 209.99 406.678 208.498C406.324 208.95 406.049 209.457 405.864 210C405.386 211.726 406.85 213.3 407.922 214.734C411.893 220.057 411.372 227.431 410.013 233.929Z" fill="black"/>
<path opacity="0.1" d="M407.529 206.466C407.913 205.989 408.2 205.442 408.371 204.854C408.445 204.144 408.426 203.427 408.314 202.722C407.946 202.999 407.669 203.38 407.52 203.817C407.238 204.663 407.563 205.581 407.529 206.466Z" fill="black"/>
<path opacity="0.1" d="M436.047 249.543C435.731 250.029 435.296 250.427 434.784 250.7C434.115 250.936 433.392 250.973 432.703 250.805C429.502 250.327 426.004 249.342 423.171 250.887C421.635 251.719 420.444 253.23 418.736 253.612C415.908 254.244 413.496 251.532 410.702 250.743C408.721 250.193 406.635 250.648 404.639 251.221C404.243 252.066 403.708 252.839 403.056 253.507C405.257 252.876 407.596 252.24 409.802 252.852C412.597 253.627 415.008 256.338 417.841 255.721C419.544 255.344 420.74 253.832 422.272 252.996C425.143 251.451 428.602 252.422 431.803 252.919C432.493 253.082 433.215 253.045 433.885 252.814C434.397 252.539 434.831 252.139 435.148 251.652C436.015 250.509 436.685 249.229 437.129 247.864C436.809 248.449 436.448 249.01 436.047 249.543Z" fill="black"/>
</g>
</g>
<defs>
<linearGradient id="paint0_linear" x1="367.767" y1="292.864" x2="440.976" y2="292.864" gradientUnits="userSpaceOnUse">
<stop stop-color="#808080" stop-opacity="0.25"/>
<stop offset="0.54" stop-color="#808080" stop-opacity="0.12"/>
<stop offset="1" stop-color="#808080" stop-opacity="0.1"/>
</linearGradient>
<clipPath id="clip0">
<rect width="558" height="385" fill="white"/>
</clipPath>
</defs>
</svg>
