<svg width="282" height="203" viewBox="0 0 282 203" fill="none" xmlns="http://www.w3.org/2000/svg">
<g clip-path="url(#clip0)">
<path d="M164.862 58.3836C217.711 99.2064 191.084 116.767 223.431 116.767C255.778 116.767 282 90.6279 282 58.3836C282 26.1392 255.778 0 223.431 0C191.084 0 112.012 17.5607 164.862 58.3836Z" fill="#F2F2F2"/>
<path d="M152.44 118.659C152.44 125.444 177.521 140.866 210.587 140.866C243.652 140.866 272.313 125.444 272.313 118.659C272.313 116.962 269.506 119.07 266.479 117.602C257.666 113.321 236.653 116.476 212.802 116.3C212.067 116.294 211.328 116.29 210.587 116.29C177.521 116.29 152.44 111.874 152.44 118.659Z" fill="#3F3D56"/>
<path opacity="0.1" d="M152.44 118.659C152.44 125.444 177.521 140.866 210.587 140.866C243.652 140.866 272.313 125.444 272.313 118.659C272.313 116.962 269.506 119.07 266.479 117.602C257.666 113.321 236.653 116.476 212.802 116.3C212.067 116.294 211.328 116.29 210.587 116.29C177.521 116.29 152.44 111.874 152.44 118.659Z" fill="black"/>
<path d="M152.573 118.532C152.573 125.317 179.377 130.82 212.443 130.82C245.509 130.82 272.313 125.317 272.313 118.532C272.313 116.835 270.64 115.221 267.613 113.753C258.801 109.472 238.509 106.43 214.659 106.254C213.923 106.248 213.184 106.244 212.443 106.244C179.377 106.244 152.573 111.747 152.573 118.532Z" fill="#3F3D56"/>
<path opacity="0.1" d="M213.947 106.506C216.49 110.639 219.939 114.144 224.034 116.759C228.13 119.374 232.766 121.031 237.596 121.605C242.426 122.18 247.323 121.657 251.921 120.075C256.519 118.494 260.698 115.896 264.145 112.476C255.791 109.068 236.556 106.646 213.947 106.506Z" fill="black"/>
<path d="M240.754 116.544C224.349 116.544 211.051 102.341 211.051 84.8202C211.051 67.2996 224.349 53.0963 240.754 53.0963C257.158 53.0963 270.457 67.2996 270.457 84.8202C270.457 102.341 257.158 116.544 240.754 116.544Z" fill="#3F3D56"/>
<path d="M208.439 35.6667V43.1035L212.27 47.5253C212.27 47.5253 213.883 46.9224 213.883 42.9025L214.488 37.0736L208.439 35.6667Z" fill="#FFB9B9"/>
<path d="M212.27 43.1035C212.27 43.1035 206.019 38.8826 205.818 37.4756C205.616 36.0686 196.744 29.6368 198.156 33.6567C199.567 37.6766 204.003 39.4856 204.003 39.4856C204.003 39.4856 207.431 48.7313 210.455 48.5303C213.48 48.3293 213.48 44.5104 212.27 43.1035Z" fill="#FFB9B9"/>
<path d="M215.899 88.3272L216.504 91.9453L213.278 91.1411V88.3272H215.899Z" fill="#FFB9B9"/>
<path d="M215.295 90.3372C215.295 90.3372 211.566 88.1351 211.414 89.1357C211.262 90.1362 209.649 93.9551 208.843 94.3571C208.036 94.7591 207.028 99.1809 208.843 98.9799C210.248 98.8243 215.403 96.1366 217.657 94.9325C217.934 94.7834 218.144 94.5341 218.242 94.2357C218.341 93.9373 218.32 93.6127 218.186 93.3286C218.054 93.0849 217.963 92.8212 217.916 92.5481C217.916 92.1462 215.295 90.3372 215.295 90.3372Z" fill="#2F2E41"/>
<path d="M217.109 49.5353C217.109 49.5353 202.39 56.3691 203.802 61.595C205.213 66.8208 210.456 88.9303 210.456 88.9303C210.456 88.9303 216.303 90.3372 216.706 88.9303C217.109 87.5233 212.875 65.6149 213.278 64.8109C213.682 64.0069 221.142 58.781 221.142 58.781L236.466 52.3492L230.014 46.3194L217.109 49.5353Z" fill="#2F2E41"/>
<path d="M206.019 89.5332L204.205 94.1562L207.431 95.5631L209.447 91.9453L206.019 89.5332Z" fill="#FFB9B9"/>
<path d="M216.908 16.5722C216.908 16.5722 218.723 18.9841 217.311 20.1901C215.9 21.396 216.908 25.8179 216.908 25.8179L218.723 30.8428L225.981 29.4358V21.195L225.578 17.1751C225.578 17.1751 221.949 13.7582 221.546 11.1453C221.142 8.53237 216.908 16.5722 216.908 16.5722Z" fill="#FFB9B9"/>
<path opacity="0.1" d="M216.908 16.5722C216.908 16.5722 218.723 18.9841 217.311 20.1901C215.9 21.396 216.908 25.8179 216.908 25.8179L218.723 30.8428L225.981 29.4358V21.195L225.578 17.1751C225.578 17.1751 221.949 13.7582 221.546 11.1453C221.142 8.53237 216.908 16.5722 216.908 16.5722Z" fill="black"/>
<path d="M229.006 47.9273C229.006 47.9273 219.529 58.3791 219.529 58.781C219.529 59.183 214.488 67.4238 214.488 67.4238L204.608 89.3322C204.608 89.3322 208.439 94.5581 210.052 94.1561C211.665 93.7541 223.159 70.4388 223.159 70.4388C223.159 70.4388 225.175 65.2129 230.619 64.0069C236.063 62.801 240.297 58.5801 238.281 53.7562C236.265 48.9323 229.006 47.9273 229.006 47.9273Z" fill="#2F2E41"/>
<path d="M216.908 17.9791C213.345 17.9791 210.456 15.0995 210.456 11.5473C210.456 7.99508 213.345 5.11545 216.908 5.11545C220.472 5.11545 223.36 7.99508 223.36 11.5473C223.36 15.0995 220.472 17.9791 216.908 17.9791Z" fill="#FFB9B9"/>
<path d="M217.109 21.999C217.109 21.999 217.916 26.6219 218.722 27.0239C219.529 27.4259 220.134 28.8328 221.949 26.8229C223.763 24.8129 225.376 20.793 225.376 20.793L231.627 28.4309L232.232 49.5353C232.232 49.5353 225.175 47.7263 222.957 49.5353C220.739 51.3442 215.9 51.1432 215.9 51.1432L216.908 47.1234L216.101 40.2895L216.303 34.0587L216.505 29.6368L217.109 21.999Z" fill="#F2F2F2"/>
<path d="M217.82 18.6159C217.82 18.6159 215.093 19.9891 214.892 20.793C214.69 21.597 211.06 23.205 211.06 23.205C211.06 23.205 209.649 24.6119 209.649 25.4159C209.649 26.2199 214.488 35.4657 214.488 35.4657C214.488 35.4657 215.496 41.6965 215.093 42.9025C214.69 44.1084 215.9 48.7313 215.9 48.7313L213.48 51.5452H215.698C215.698 51.5452 218.118 50.3393 218.118 49.7363C218.118 49.1333 217.714 44.9124 217.513 43.1034C217.311 41.2945 217.311 34.8627 217.714 32.6517C218.118 30.4408 217.916 24.6119 217.916 23.205C217.916 21.798 217.82 18.6159 217.82 18.6159Z" fill="#3F3D56"/>
<path d="M224.066 15.5639C224.066 15.5639 224.973 15.7682 227.594 16.5722C230.216 17.3761 234.248 18.5821 235.66 20.1901C236.65 21.3792 237.528 22.6577 238.281 24.009L237.474 38.4806C237.474 38.4806 239.088 41.4955 238.886 43.1035C238.684 44.7114 237.071 44.9124 238.281 48.3293C239.491 51.7462 241.91 54.7612 239.692 55.1631C237.474 55.5651 231.627 54.1582 229.006 54.9622C226.385 55.7661 223.36 51.9472 223.36 51.9472C223.36 51.9472 227.393 52.3492 226.788 50.7413C226.183 49.1333 219.529 31.0438 220.941 27.0239C222.352 23.004 224.066 15.5639 224.066 15.5639Z" fill="#3F3D56"/>
<path d="M210.657 24.411L209.649 25.2149C209.649 25.2149 206.826 35.2647 207.633 36.2696C208.439 37.2746 214.892 39.4856 215.295 38.0786C215.698 36.6716 210.657 24.411 210.657 24.411Z" fill="#3F3D56"/>
<path d="M240.499 31.4458C240.499 31.4458 243.523 40.0885 243.523 42.5005C243.523 44.9124 243.12 58.982 243.12 58.982C243.12 58.982 242.919 65.0119 238.684 62.5999C234.45 60.188 238.684 58.58 238.684 58.58C238.684 58.58 238.483 42.7015 236.87 40.4905C235.256 38.2796 234.652 35.0637 234.652 35.0637L240.499 31.4458Z" fill="#FFB9B9"/>
<path d="M207.431 93.9551C207.431 93.9551 204.406 92.3471 203.801 93.5531C203.197 94.7591 199.97 101.392 200.374 102.196C200.777 103 202.995 106.216 205.616 105.412C208.237 104.608 208.439 100.387 208.439 100.387L208.641 95.5631L207.431 93.9551Z" fill="#2F2E41"/>
<path d="M215.644 9.99365C216.089 10.2022 216.616 10.3268 216.895 10.7297C217.102 11.0281 217.123 11.416 217.274 11.7462C217.439 12.0731 217.722 12.3251 218.067 12.4507C218.412 12.5764 218.792 12.5663 219.129 12.4225C219.212 12.0221 219.445 11.6686 219.782 11.4349C219.951 11.3235 220.153 11.2693 220.356 11.2805C220.559 11.2916 220.753 11.3673 220.91 11.4966C221.325 11.8916 221.178 12.5803 221.372 13.119C221.554 13.4981 221.805 13.8404 222.111 14.1291C222.552 14.6366 222.904 15.2319 223.435 15.6449C223.967 16.0578 224.773 16.2368 225.301 15.8194C225.745 15.4685 225.837 14.8211 225.729 14.2666C225.621 13.7121 225.354 13.2015 225.203 12.6571C224.713 10.888 225.494 8.99928 225.252 7.17989C224.943 4.84861 222.955 3.00713 220.736 2.20797C219.813 1.83318 218.802 1.72642 217.821 1.90003C216.806 2.12587 215.939 2.76981 214.967 3.1381C213.928 3.53193 212.798 3.6007 211.711 3.83094C210.623 4.06119 209.504 4.50635 208.873 5.41877C208.433 6.05515 208.281 6.84548 207.917 7.5276C207.497 8.30618 206.816 8.91362 205.994 9.24445L207.144 9.17914C206.951 9.69067 206.637 10.148 206.228 10.5118C206.767 10.6214 207.327 10.5475 207.819 10.3021C207.81 10.5376 207.753 10.7689 207.651 10.9815C207.549 11.1941 207.404 11.3836 207.226 11.5383C208.11 11.5118 209.043 11.4711 209.791 10.9988C210.157 10.7674 210.456 10.4451 210.8 10.1829C211.535 9.62384 212.446 9.35849 213.334 9.10439C213.8 8.97096 214.362 8.78542 214.783 9.08443C215.135 9.33343 215.19 9.78052 215.644 9.99365Z" fill="#2F2E41"/>
<path d="M235.256 21.597L238.281 24.009L242.313 33.2547C242.313 33.2547 236.668 37.6766 235.256 37.0736C233.845 36.4706 231.425 25.8179 231.425 25.8179L235.256 21.597Z" fill="#3F3D56"/>
<path d="M189.893 32.6294L202.62 39.5977C202.694 39.6466 202.777 39.6787 202.865 39.6919C202.953 39.7051 203.042 39.699 203.127 39.674C203.212 39.649 203.29 39.6058 203.357 39.5473C203.423 39.4889 203.476 39.4166 203.511 39.3357L206.629 32.8397C206.688 32.6546 206.678 32.4544 206.602 32.2757C206.525 32.097 206.387 31.9516 206.212 31.866L195.646 26.437C195.515 26.3589 195.361 26.3315 195.212 26.3599C195.063 26.3884 194.929 26.4707 194.837 26.591L189.559 31.5476C189.507 31.64 189.475 31.7418 189.463 31.8471C189.452 31.9523 189.462 32.0588 189.494 32.1599C189.525 32.2611 189.576 32.3549 189.645 32.4356C189.714 32.5163 189.798 32.5822 189.893 32.6294Z" fill="#2F2E41"/>
<path d="M190.743 31.6698L202.674 38.4674L205.849 32.7634L195.614 27.2152L190.743 31.6698Z" fill="#EF802F"/>
<path d="M200.753 29.7049C200.691 29.6307 200.692 29.5276 200.756 29.4748C200.819 29.422 200.921 29.4394 200.983 29.5136C201.045 29.5879 201.044 29.6909 200.981 29.7437C200.917 29.7965 200.815 29.7791 200.753 29.7049Z" fill="#F2F2F2"/>
<path d="M196.362 35.5088C196.32 35.4593 196.321 35.3907 196.363 35.3554C196.405 35.3202 196.473 35.3318 196.515 35.3813C196.556 35.4308 196.556 35.4995 196.513 35.5347C196.471 35.5699 196.403 35.5583 196.362 35.5088Z" fill="#F2F2F2"/>
<path d="M256.265 116.237C256.265 120.841 259.01 122.449 262.398 122.449C262.476 122.449 262.555 122.448 262.633 122.446C262.79 122.443 262.945 122.435 263.099 122.425C266.156 122.209 268.531 120.519 268.531 116.237C268.531 111.806 262.851 106.215 262.423 105.8L262.423 105.8C262.406 105.783 262.398 105.775 262.398 105.775C262.398 105.775 256.265 111.633 256.265 116.237Z" fill="#EF802F"/>
<path d="M262.621 121.744L260.378 118.62L262.627 122.088L262.632 122.446C262.789 122.443 262.945 122.435 263.098 122.425L262.857 117.819L262.859 117.782L262.855 117.776L262.831 117.341L265.086 113.865L262.825 117.014L262.819 117.107L262.637 113.627L264.567 110.035L262.613 113.016L262.423 105.8L262.422 105.775V105.8L262.454 111.489L260.532 109.234L262.462 111.98L262.513 115.096L260.718 112.105L262.52 115.554L262.548 117.287L259.944 113.124L262.558 117.891L262.621 121.744Z" fill="#3F3D56"/>
<path d="M170.603 106.72C170.603 111.324 173.349 112.932 176.736 112.932C176.815 112.932 176.893 112.931 176.971 112.929C177.128 112.925 177.284 112.918 177.437 112.907C180.494 112.692 182.869 111.002 182.869 106.72C182.869 102.289 177.189 96.6977 176.762 96.283L176.761 96.2825C176.745 96.2661 176.736 96.2583 176.736 96.2583C176.736 96.2583 170.603 102.116 170.603 106.72Z" fill="#EF802F"/>
<path d="M176.959 112.227L174.716 109.103L176.965 112.57L176.971 112.929C177.128 112.925 177.283 112.918 177.437 112.907L177.195 108.301L177.197 108.265L177.193 108.259L177.17 107.824L179.424 104.348L177.163 107.497L177.157 107.59L176.975 104.109L178.905 100.518L176.951 103.499L176.761 96.283L176.761 96.2583V96.2825L176.792 101.972L174.871 99.7165L176.8 102.462L176.851 105.579L175.056 102.588L176.858 106.037L176.886 107.77L174.283 103.607L176.897 108.374L176.959 112.227Z" fill="#3F3D56"/>
<path d="M43.5195 69.1243H145.479V125.086H43.5195V69.1243Z" fill="#F2F2F2"/>
<path opacity="0.3" d="M128.392 97.7226C123.751 97.7226 119.989 93.9723 119.989 89.346C119.989 84.7198 123.751 80.9694 128.392 80.9694C133.033 80.9694 136.795 84.7198 136.795 89.346C136.795 93.9723 133.033 97.7226 128.392 97.7226Z" fill="#EF802F"/>
<path opacity="0.3" d="M94.4991 97.7226C89.8581 97.7226 86.0959 93.9723 86.0959 89.346C86.0959 84.7198 89.8581 80.9694 94.4991 80.9694C99.1401 80.9694 102.902 84.7198 102.902 89.346C102.902 93.9723 99.1401 97.7226 94.4991 97.7226Z" fill="#EF802F"/>
<path opacity="0.3" d="M60.6061 97.7226C55.9651 97.7226 52.2029 93.9723 52.2029 89.346C52.2029 84.7198 55.9651 80.9694 60.6061 80.9694C65.247 80.9694 69.0093 84.7198 69.0093 89.346C69.0093 93.9723 65.247 97.7226 60.6061 97.7226Z" fill="#EF802F"/>
<path opacity="0.3" d="M117.048 104.005H140.017V106.239H117.048V104.005Z" fill="#EF802F"/>
<path opacity="0.3" d="M82.8749 104.005H105.844V106.239H82.8749V104.005Z" fill="#EF802F"/>
<path d="M48.7016 104.005H71.6704V106.239H48.7016V104.005Z" fill="#EF802F"/>
<path d="M-34.0001 178.578C-34.0001 185.744 -7.51015 202.033 27.4134 202.033C62.337 202.033 92.6084 185.744 92.6084 178.578C92.6084 176.786 89.6432 179.012 86.4461 177.461C77.1382 172.94 54.944 176.273 29.7537 176.087C28.9766 176.08 28.1965 176.076 27.4135 176.076C-7.51015 176.076 -34.0001 171.412 -34.0001 178.578Z" fill="#3F3D56"/>
<path opacity="0.1" d="M-34.0001 178.578C-34.0001 185.744 -7.51015 202.033 27.4134 202.033C62.337 202.033 92.6084 185.744 92.6084 178.578C92.6084 176.786 89.6432 179.012 86.4461 177.461C77.1382 172.94 54.944 176.273 29.7537 176.087C28.9766 176.08 28.1965 176.076 27.4135 176.076C-7.51015 176.076 -34.0001 171.412 -34.0001 178.578Z" fill="black"/>
<path d="M-33.86 178.444C-33.86 185.61 -5.5494 191.422 29.3742 191.422C64.2978 191.422 92.6084 185.61 92.6084 178.444C92.6084 176.652 90.8414 174.947 87.6442 173.397C78.3364 168.876 56.9047 165.663 31.7144 165.477C30.9373 165.47 30.1572 165.466 29.3742 165.466C-5.5494 165.466 -33.86 171.278 -33.86 178.444Z" fill="#3F3D56"/>
<path d="M26.0987 166.919C17.7387 166.919 10.9616 159.258 10.9616 149.807C10.9616 140.356 17.7387 132.694 26.0987 132.694C34.4587 132.694 41.2358 140.356 41.2358 149.807C41.2358 159.258 34.4587 166.919 26.0987 166.919Z" fill="#36334A"/>
<path d="M19.4488 118.844L42.1983 119.541C42.1983 119.541 65.5365 141.375 48.9119 147.306C48.9119 147.306 25.2237 148.324 20.3238 144.486C20.3238 144.486 14.199 120.414 19.4488 118.844ZM20.4988 125.298L44.8232 126.868C44.8232 126.868 43.0733 120.937 36.0734 120.937C29.0736 120.937 21.1988 119.367 20.4988 123.03C19.7988 126.693 20.4988 125.298 20.4988 125.298Z" fill="#3F3D56"/>
<path d="M-3.82618 132.624L26.0981 131.578L19.0983 102.097C19.0983 102.097 -8.90105 100.004 -8.20107 107.156C-7.50108 114.308 -3.82618 132.624 -3.82618 132.624Z" fill="#36334A"/>
<path d="M25.0626 146.717C25.0626 146.717 43.0731 149.894 49.5479 140.474C56.0228 131.054 25.0485 136.113 25.0485 136.113L22.4235 143.265L25.0626 146.717Z" fill="#36334A"/>
<path d="M30.4734 186.701C25.931 186.701 22.2486 183.03 22.2486 178.502C22.2486 173.974 25.931 170.304 30.4734 170.304C35.0159 170.304 38.6982 173.974 38.6982 178.502C38.6982 183.03 35.0159 186.701 30.4734 186.701Z" fill="#36334A"/>
<path d="M29.6858 184.433C26.8347 184.433 24.5234 181.778 24.5234 178.502C24.5234 175.227 26.8347 172.571 29.6858 172.571C32.5369 172.571 34.8481 175.227 34.8481 178.502C34.8481 181.778 32.5369 184.433 29.6858 184.433Z" fill="#3F3D56"/>
<path d="M26.7987 145.708C26.7987 145.708 39.3983 144.312 42.8983 156.348C46.3982 168.385 46.0482 177.63 49.0231 176.932C51.998 176.235 58.2979 173.793 58.2979 173.793L57.7729 177.456C57.7729 177.456 46.7481 183.038 44.9982 177.107C43.2482 171.176 42.1983 149.371 32.2235 149.894C22.2488 150.417 20.4988 149.371 20.4988 149.371L26.7987 145.708Z" fill="#3F3D56"/>
<path d="M50.7728 139.951C50.7728 139.951 60.5725 141.172 64.4224 148.324C68.2723 155.476 70.1973 168.385 70.1973 168.385H66.5224C66.5224 168.385 64.4224 142.742 53.3977 144.138L50.7728 139.951Z" fill="#3F3D56"/>
<path d="M57.4225 179.898L72.9971 170.304C72.9971 170.304 73.8721 166.815 63.8973 165.419C63.8973 165.419 45.0386 171.994 46.8556 174.463C48.6727 176.932 54.7975 180.77 57.4225 179.898Z" fill="#36334A"/>
<path d="M28.5072 124.755C28.0275 125.276 19.2022 133.645 19.2022 133.645C19.2022 133.645 20.0792 139.487 29.5217 140.212L45.2592 141.421C45.2592 141.421 48.2338 152.302 51.7705 155.78C55.3072 159.257 53.6842 159.451 55.0115 161.146C56.3387 162.841 54.4758 163.295 56.4907 163.46C58.5055 163.625 62.6683 161.196 62.7136 159.318C62.7588 157.44 61.5835 156.364 61.0611 155.886C60.5387 155.408 59.214 150.836 58.4198 149.869C57.6256 148.902 54.619 137.271 54.619 137.271C54.619 137.271 51.6179 131.644 47.4576 131.195C43.2974 130.746 38.6688 128.729 38.6688 128.729" fill="#2F2E41"/>
<path opacity="0.1" d="M28.5072 124.755C28.0275 125.276 19.2022 133.645 19.2022 133.645C19.2022 133.645 20.0792 139.487 29.5217 140.212L45.2592 141.421C45.2592 141.421 48.2338 152.302 51.7705 155.78C55.3072 159.257 53.6842 159.451 55.0115 161.146C56.3387 162.841 54.4758 163.295 56.4907 163.46C58.5055 163.625 62.6683 161.196 62.7136 159.318C62.7588 157.44 61.5835 156.364 61.0611 155.886C60.5387 155.408 59.214 150.836 58.4198 149.869C57.6256 148.902 54.619 137.271 54.619 137.271C54.619 137.271 51.6179 131.644 47.4576 131.195C43.2974 130.746 38.6688 128.729 38.6688 128.729" fill="black"/>
<path d="M43.7727 96.8195C43.7727 96.8195 47.0847 87.8489 49.3516 90.7072C51.6185 93.5655 45.704 98.2593 45.704 98.2593L43.7727 96.8195Z" fill="#A0616A"/>
<path d="M26.3263 101.502L28.2119 100.707C28.2119 100.707 31.6733 103.039 31.9012 103.796C32.1291 104.553 31.6354 104.288 32.995 104.954C34.3545 105.62 38.0686 107.232 38.5623 107.497C39.056 107.762 44.6461 97.9034 43.3093 96.4878C43.3093 96.4878 45.8115 97.387 46.9507 97.0462C46.9507 97.0462 44.1069 110.79 43.6741 112.653C43.2414 114.515 42.2313 114.735 40.3478 114.803C38.4642 114.871 27.026 111.526 27.026 111.526L26.3263 101.502Z" fill="#575A89"/>
<path d="M55.8295 160.571C55.8295 160.571 55.9248 162.521 55.5983 162.745C55.2718 162.969 53.2538 167.713 56.3619 168.171C59.4701 168.629 61.1767 168.033 61.9283 168.285C62.6799 168.537 75.0694 167.518 74.9741 165.568C74.8787 163.618 68.6839 164.128 68.6839 164.128C68.6839 164.128 62.5478 161.238 61.3989 159.435C60.25 157.633 55.8295 160.571 55.8295 160.571Z" fill="#2F2E41"/>
<path opacity="0.1" d="M55.8295 160.571C55.8295 160.571 55.9248 162.521 55.5983 162.745C55.2718 162.969 53.2538 167.713 56.3619 168.171C59.4701 168.629 61.1767 168.033 61.9283 168.285C62.6799 168.537 75.0694 167.518 74.9741 165.568C74.8787 163.618 68.6839 164.128 68.6839 164.128C68.6839 164.128 62.5478 161.238 61.3989 159.435C60.25 157.633 55.8295 160.571 55.8295 160.571Z" fill="black"/>
<path d="M49.437 170.842C49.437 170.842 51.3213 179.025 52.7036 178.942C54.0859 178.859 63.8441 174.125 65.0448 173.187C66.5864 171.983 66.5255 169.856 64.7559 170.303C62.9863 170.749 57.9812 170.349 57.1305 169.448L54.943 167.131L49.437 170.842Z" fill="#2F2E41"/>
<path d="M30.1185 125.373C29.6021 125.857 13.8971 139.138 13.8971 139.138C13.8971 139.138 14.3457 145.028 23.7104 146.436L39.3182 148.781C39.3182 148.781 41.4913 159.849 44.7651 163.574C48.0389 167.298 46.406 167.374 47.6061 169.161C48.8063 170.948 46.9152 171.266 48.9127 171.576C50.9102 171.886 55.2391 169.766 55.4212 167.896C55.6033 166.026 54.5095 164.868 54.0234 164.353C53.5372 163.838 52.5495 159.182 51.8279 158.16C51.1062 157.138 48.9558 145.32 48.9558 145.32C48.9558 145.32 46.373 139.491 42.2564 138.742C38.1399 137.993 33.6706 135.645 33.6706 135.645" fill="#2F2E41"/>
<path d="M15.6621 96.6012C11.5494 96.6012 8.21533 93.2777 8.21533 89.178C8.21533 85.0782 11.5494 81.7548 15.6621 81.7548C19.7748 81.7548 23.1089 85.0782 23.1089 89.178C23.1089 93.2777 19.7748 96.6012 15.6621 96.6012Z" fill="#A0616A"/>
<path d="M11.7587 93.8117C11.7587 93.8117 12.8756 98.3465 11.1745 100.671C9.47351 102.995 22.5518 101.889 22.5518 101.889C22.5518 101.889 19.0119 94.5303 20.318 92.8191C21.6242 91.108 11.7587 93.8117 11.7587 93.8117Z" fill="#A0616A"/>
<path d="M28.4757 100.942C30.0556 102.615 29.5172 112.101 29.5172 112.101L28.5079 120.573C28.5079 120.573 29.7156 122.11 29.3207 122.723C28.9258 123.336 28.2803 123.942 29.5259 124.23C30.7715 124.517 33.6425 124.979 32.7236 126.327C32.4235 126.708 32.1021 127.073 31.761 127.419C31.4682 127.728 31.1199 128.086 30.7252 128.486C29.8015 129.416 28.6267 130.559 27.3233 131.765C26.9541 132.109 26.5757 132.456 26.1879 132.806C21.2154 137.29 15.0321 142.037 13.7528 139.759C11.6106 135.943 10.122 135.399 10.2204 132.151C10.3188 128.903 7.5611 120.567 7.5611 120.567C7.5611 120.567 4.3547 106.342 8.87328 102.102L9.57974 100.975C9.90771 100.452 10.3926 100.044 10.9659 99.8103C11.5391 99.5764 12.1716 99.5283 12.7738 99.6726C14.9793 100.198 18.3602 100.924 19.825 100.806C22.0883 100.624 21.5921 99.6968 21.5921 99.6968C21.5921 99.6968 26.8958 99.2688 28.4757 100.942Z" fill="#575A89"/>
<path d="M35.4584 131.285C35.4584 131.285 44.6713 133.563 43.3197 136.773C41.9681 139.983 33.9929 134.117 33.9929 134.117L35.4584 131.285Z" fill="#A0616A"/>
<path d="M11.5409 91.8938C11.7243 91.6723 11.5429 91.3488 11.3833 91.1098C10.5283 89.8298 10.365 88.0085 11.3057 86.7897C11.6764 86.3358 12.1402 85.966 12.6658 85.705C13.4037 85.3151 14.2093 85.0686 15.0395 84.9787C15.4812 84.9723 15.9181 84.8865 16.3293 84.7255C16.589 84.5941 17.8145 84.1663 18.0775 84.0417C18.6558 83.7676 19.4603 83.8861 19.8308 83.3655C20.1853 82.8674 19.8543 82.1852 19.5099 81.6802C18.7254 80.5296 16.7415 79.5761 15.3792 79.2741C14.3454 79.0449 13.2665 79.3671 12.3084 79.8171C11.204 80.3633 10.1563 81.0167 9.18052 81.7678C7.84036 82.7576 6.52008 83.8544 5.71519 85.3106C4.9103 86.7669 4.71633 88.6635 5.62561 90.0573C5.81502 90.3477 6.04663 90.6098 6.22398 90.9076C6.65662 91.6341 6.7347 92.5128 7.04038 93.3008C7.2679 93.8768 7.61397 94.3987 8.05628 94.8332C8.49858 95.2676 9.02729 95.6048 9.60835 95.823C10.5397 96.1662 11.6852 96.2611 12.2354 97.085L12.4922 95.3671C12.5591 95.1505 12.5495 94.9175 12.465 94.7071C12.3804 94.4966 12.226 94.3215 12.0275 94.2108L10.7083 93.1032C10.4455 92.925 10.2459 92.6684 10.1381 92.3703C9.85275 91.1837 11.2351 92.263 11.5409 91.8938Z" fill="#2F2E41"/>
<path opacity="0.1" d="M24.7491 124.586L30.7256 128.486C29.5404 129.68 27.9395 131.226 26.1883 132.806C24.5294 131.916 22.8378 130.953 21.3243 129.984C15.7873 126.442 11.0396 117.546 8.91265 113.231C6.78567 108.916 8.51701 105.592 8.51701 105.592C9.926 104.97 11.417 104.552 12.9447 104.35C15.7168 103.934 24.7491 124.586 24.7491 124.586Z" fill="black"/>
<path opacity="0.1" d="M25.5387 123.359L31.7612 127.419C31.4684 127.728 31.1201 128.086 30.7254 128.486C29.8017 129.416 28.6269 130.559 27.3235 131.765C25.5558 130.824 23.7319 129.793 22.1139 128.758C16.5769 125.215 11.8292 116.32 9.70226 112.005C7.57529 107.689 13.2982 109.237 13.2982 109.237C13.2982 109.237 10.3285 107.897 13.1006 107.481C15.8727 107.064 25.5387 123.359 25.5387 123.359Z" fill="black"/>
<path d="M8.79027 104.85C8.79027 104.85 7.05897 108.174 9.18594 112.489C11.3129 116.804 16.0606 125.7 21.5976 129.242C27.1346 132.785 35.0564 136.274 35.0564 136.274C35.0564 136.274 35.8079 132.171 37.0762 131.709L25.0223 123.844C25.0223 123.844 15.9901 103.192 13.218 103.608C11.6903 103.81 10.1993 104.228 8.79027 104.85Z" fill="#575A89"/>
<path d="M33.2729 148.673V169.083H30.998V148.324L33.2729 148.673Z" fill="#3F3D56"/>
<path d="M29.9483 161.233C29.9483 161.233 25.5734 178.328 28.3733 180.77C28.3733 180.77 32.0482 169.955 34.8481 171.35L33.9732 161.233H29.9483Z" fill="#36334A"/>
<path d="M-4.00063 124.077L18.7487 124.775C18.7487 124.775 38.8732 144.312 22.2486 150.243C22.2486 150.243 1.7742 153.557 -3.12567 149.72C-3.12567 149.72 -9.25049 125.647 -4.00063 124.077ZM-2.95065 130.531L21.3737 132.101C21.3737 132.101 19.6237 126.17 12.6239 126.17C5.6241 126.17 -2.25068 124.6 -2.95065 128.263C-3.65063 131.927 -2.95065 130.531 -2.95065 130.531V130.531Z" fill="#3F3D56"/>
<path d="M1.16155 186.701C-11.451 186.701 -21.6754 175.142 -21.6754 160.884C-21.6754 146.625 -11.451 135.067 1.16155 135.067C13.7741 135.067 23.9985 146.625 23.9985 160.884C23.9985 175.142 13.7741 186.701 1.16155 186.701Z" fill="#36334A"/>
<path d="M0.111542 180.072C-9.40824 180.072 -17.1255 171.481 -17.1255 160.884C-17.1255 150.286 -9.40824 141.695 0.111542 141.695C9.63132 141.695 17.3486 150.286 17.3486 160.884C17.3486 171.481 9.63132 180.072 0.111542 180.072Z" fill="#3F3D56"/>
<path d="M-4.35066 160.622C-4.35019 160.287 -4.31671 159.954 -4.25073 159.625L-17.1253 153.208L-16.2503 151.29L-3.24497 157.606C-3.11385 157.471 -2.96905 157.35 -2.81291 157.246L-2.82288 157.248L-6.6256 138.381L-3.2618 138.305L-1.02575 156.872L-1.24016 156.917C-1.06642 156.952 -0.897911 157.01 -0.738653 157.087L10.5092 145.578L12.0989 147.801L0.542604 158.399C0.832367 158.954 1.00641 159.561 1.05427 160.185L17.3487 166.815L17.6987 169.606L0.713667 162.485C0.555227 162.877 0.330719 163.239 0.0498428 163.555L5.27407 181.293H3.34912L-1.03604 164.277C-1.23067 164.339 -1.43378 164.372 -1.63826 164.373C-2.03308 164.369 -2.41875 164.254 -2.75046 164.04L-11.8755 176.06L-14.6754 174.141L-3.98377 162.5C-4.22918 161.904 -4.35388 161.266 -4.35066 160.622Z" fill="#36334A"/>
<path d="M55.6344 97.6047C50.9934 97.6047 47.2311 93.8544 47.2311 89.2281C47.2311 84.6019 50.9934 80.8515 55.6344 80.8515C60.2753 80.8515 64.0376 84.6019 64.0376 89.2281C64.0376 93.8544 60.2753 97.6047 55.6344 97.6047Z" fill="#EF802F"/>
</g>
<defs>
<clipPath id="clip0">
<rect width="316" height="202.033" fill="white" transform="matrix(-1 0 0 1 282 0)"/>
</clipPath>
</defs>
</svg>
