<svg width="394" height="197" viewBox="0 0 394 197" fill="none" xmlns="http://www.w3.org/2000/svg">
<path d="M307.77 37.006H211.157V35.0162H167.349V37.006H70.337C69.4788 37.006 68.629 37.175 67.8361 37.5031C67.0432 37.8313 66.3228 38.3123 65.716 38.9187C65.1091 39.5251 64.6277 40.245 64.2993 41.0373C63.9709 41.8296 63.8018 42.6788 63.8018 43.5364V175.732C63.8019 177.464 64.4904 179.125 65.716 180.35C66.9415 181.574 68.6038 182.262 70.337 182.262H307.77C309.504 182.262 311.166 181.574 312.391 180.35C313.617 179.125 314.306 177.464 314.306 175.732V43.5364C314.306 42.6788 314.137 41.8296 313.808 41.0373C313.48 40.245 312.998 39.5251 312.391 38.9187C311.785 38.3123 311.064 37.8313 310.271 37.5031C309.478 37.175 308.629 37.006 307.77 37.006Z" fill="#3F3D56"/>
<path opacity="0.1" d="M305.544 48.5469H72.5635V179.875H305.544V48.5469Z" fill="black"/>
<path d="M188.855 44.9652C190.174 44.9652 191.244 43.8962 191.244 42.5775C191.244 41.2587 190.174 40.1897 188.855 40.1897C187.535 40.1897 186.465 41.2587 186.465 42.5775C186.465 43.8962 187.535 44.9652 188.855 44.9652Z" fill="#EF802F"/>
<path d="M320.847 177.487H298.11V175.85C298.11 175.807 298.101 175.765 298.085 175.726C298.069 175.686 298.045 175.65 298.015 175.62C297.984 175.59 297.949 175.566 297.909 175.55C297.87 175.534 297.828 175.525 297.785 175.525H289.989C289.947 175.525 289.904 175.534 289.865 175.55C289.826 175.566 289.79 175.59 289.76 175.62C289.729 175.65 289.705 175.686 289.689 175.726C289.673 175.765 289.664 175.807 289.664 175.85V177.487H284.792V175.85C284.792 175.807 284.784 175.765 284.767 175.726C284.751 175.686 284.727 175.65 284.697 175.62C284.667 175.59 284.631 175.566 284.592 175.55C284.552 175.534 284.51 175.525 284.467 175.525H276.672C276.629 175.525 276.587 175.534 276.547 175.55C276.508 175.566 276.472 175.59 276.442 175.62C276.412 175.65 276.388 175.686 276.372 175.726C276.355 175.765 276.347 175.807 276.347 175.85V177.487H271.475V175.85C271.475 175.807 271.466 175.765 271.45 175.726C271.433 175.686 271.41 175.65 271.379 175.62C271.349 175.59 271.313 175.566 271.274 175.55C271.235 175.534 271.192 175.525 271.15 175.525H263.354C263.311 175.525 263.269 175.534 263.23 175.55C263.19 175.566 263.155 175.59 263.124 175.62C263.094 175.65 263.07 175.686 263.054 175.726C263.038 175.765 263.029 175.807 263.029 175.85V177.487H258.157V175.85C258.157 175.807 258.149 175.765 258.132 175.726C258.116 175.686 258.092 175.65 258.062 175.62C258.032 175.59 257.996 175.566 257.956 175.55C257.917 175.534 257.875 175.525 257.832 175.525H250.036C249.994 175.525 249.952 175.534 249.912 175.55C249.873 175.566 249.837 175.59 249.807 175.62C249.777 175.65 249.753 175.686 249.736 175.726C249.72 175.765 249.712 175.807 249.712 175.85V177.487H244.839V175.85C244.839 175.807 244.831 175.765 244.815 175.726C244.798 175.686 244.774 175.65 244.744 175.62C244.714 175.59 244.678 175.566 244.639 175.55C244.599 175.534 244.557 175.525 244.515 175.525H236.719C236.676 175.525 236.634 175.534 236.595 175.55C236.555 175.566 236.519 175.59 236.489 175.62C236.459 175.65 236.435 175.686 236.419 175.726C236.402 175.765 236.394 175.807 236.394 175.85V177.487H231.522V175.85C231.522 175.807 231.513 175.765 231.497 175.726C231.481 175.686 231.457 175.65 231.427 175.62C231.396 175.59 231.361 175.566 231.321 175.55C231.282 175.534 231.24 175.525 231.197 175.525H223.401C223.359 175.525 223.316 175.534 223.277 175.55C223.238 175.566 223.202 175.59 223.172 175.62C223.141 175.65 223.117 175.686 223.101 175.726C223.085 175.765 223.076 175.807 223.076 175.85V177.487H218.204V175.85C218.204 175.807 218.196 175.765 218.179 175.726C218.163 175.686 218.139 175.65 218.109 175.62C218.079 175.59 218.043 175.566 218.004 175.55C217.964 175.534 217.922 175.525 217.879 175.525H156.813C156.771 175.525 156.728 175.534 156.689 175.55C156.65 175.566 156.614 175.59 156.584 175.62C156.553 175.65 156.529 175.686 156.513 175.726C156.497 175.765 156.488 175.807 156.488 175.85V177.487H151.616V175.85C151.616 175.807 151.608 175.765 151.591 175.726C151.575 175.686 151.551 175.65 151.521 175.62C151.491 175.59 151.455 175.566 151.416 175.55C151.376 175.534 151.334 175.525 151.291 175.525H143.496C143.453 175.525 143.411 175.534 143.371 175.55C143.332 175.566 143.296 175.59 143.266 175.62C143.236 175.65 143.212 175.686 143.196 175.726C143.179 175.765 143.171 175.807 143.171 175.85V177.487H138.299V175.85C138.299 175.807 138.29 175.765 138.274 175.726C138.257 175.686 138.234 175.65 138.203 175.62C138.173 175.59 138.137 175.566 138.098 175.55C138.059 175.534 138.016 175.525 137.974 175.525H130.178C130.135 175.525 130.093 175.534 130.054 175.55C130.014 175.566 129.979 175.59 129.948 175.62C129.918 175.65 129.894 175.686 129.878 175.726C129.862 175.765 129.853 175.807 129.853 175.85V177.487H124.981V175.85C124.981 175.807 124.973 175.765 124.956 175.726C124.94 175.686 124.916 175.65 124.886 175.62C124.856 175.59 124.82 175.566 124.78 175.55C124.741 175.534 124.699 175.525 124.656 175.525H116.86C116.818 175.525 116.776 175.534 116.736 175.55C116.697 175.566 116.661 175.59 116.631 175.62C116.601 175.65 116.577 175.686 116.56 175.726C116.544 175.765 116.536 175.807 116.536 175.85V177.487H111.663V175.85C111.663 175.807 111.655 175.765 111.639 175.726C111.622 175.686 111.598 175.65 111.568 175.62C111.538 175.59 111.502 175.566 111.463 175.55C111.423 175.534 111.381 175.525 111.338 175.525H103.543C103.5 175.525 103.458 175.534 103.419 175.55C103.379 175.566 103.343 175.59 103.313 175.62C103.283 175.65 103.259 175.686 103.243 175.726C103.226 175.765 103.218 175.807 103.218 175.85V177.487H98.3457V175.85C98.3457 175.807 98.3373 175.765 98.321 175.726C98.3047 175.686 98.2807 175.65 98.2506 175.62C98.2204 175.59 98.1846 175.566 98.1452 175.55C98.1058 175.534 98.0635 175.525 98.0209 175.525H90.2252C90.1826 175.525 90.1403 175.534 90.1009 175.55C90.0615 175.566 90.0257 175.59 89.9955 175.62C89.9654 175.65 89.9415 175.686 89.9251 175.726C89.9088 175.765 89.9004 175.807 89.9004 175.85V177.487H85.0281V175.85C85.0281 175.807 85.0197 175.765 85.0034 175.726C84.9871 175.686 84.9631 175.65 84.933 175.62C84.9028 175.59 84.867 175.566 84.8276 175.55C84.7882 175.534 84.7459 175.525 84.7033 175.525H76.9076C76.865 175.525 76.8227 175.534 76.7833 175.55C76.7439 175.566 76.7081 175.59 76.6779 175.62C76.6478 175.65 76.6238 175.686 76.6075 175.726C76.5912 175.765 76.5828 175.807 76.5828 175.85V177.487H61.6411C59.5736 177.487 57.5907 178.308 56.1287 179.768C54.6668 181.229 53.8454 183.211 53.8454 185.277V188.799C53.8454 190.865 54.6668 192.847 56.1287 194.307C57.5907 195.768 59.5736 196.589 61.6411 196.589H320.847C322.915 196.589 324.898 195.768 326.359 194.307C327.821 192.847 328.643 190.865 328.643 188.799V185.277C328.643 183.211 327.821 181.229 326.359 179.768C324.898 178.308 322.915 177.487 320.847 177.487Z" fill="#3F3D56"/>
<path d="M236.255 63.4536H141.932V162.53H236.255V63.4536Z" fill="#EF802F"/>
<path d="M191.82 59.3405C191.82 59.3405 183.777 56.4702 178.607 67.9513C173.436 79.4325 165.394 92.0618 165.394 92.0618L169.989 93.2099C169.989 93.2099 171.138 85.1731 174.011 84.025L172.862 94.358C172.862 94.358 207.331 106.413 222.842 93.2099L222.267 89.1915C222.267 89.1915 224.565 89.7656 224.565 93.2099L226.289 91.4877C226.289 91.4877 224.565 88.0434 219.395 83.4509C216.001 80.4366 214.835 74.702 214.434 71.1166C214.134 68.1227 212.935 65.2894 210.995 62.9883C207.559 59.0092 201.299 54.7799 191.82 59.3405Z" fill="#2F2E41"/>
<path d="M147.377 70.1725L144.035 35.2916C144.035 35.2916 137.351 16.3669 147.377 17.8511C157.404 19.3354 151.462 33.8073 151.462 33.8073L157.032 70.1725H147.377Z" fill="#FFB9B9"/>
<path d="M196.024 96.1476C203.407 96.1476 209.392 90.1668 209.392 82.789C209.392 75.4112 203.407 69.4304 196.024 69.4304C188.641 69.4304 182.655 75.4112 182.655 82.789C182.655 90.1668 188.641 96.1476 196.024 96.1476Z" fill="#FFB9B9"/>
<path d="M186.369 88.7262C186.369 88.7262 185.626 103.94 181.913 105.053C178.199 106.167 167.801 118.412 172.629 122.123C177.456 125.834 205.308 123.236 205.308 123.236L202.708 103.94C202.708 103.94 196.767 99.8584 201.594 92.808L186.369 88.7262Z" fill="#FFB9B9"/>
<path d="M214.245 163.272H161.736C161.926 159.914 162.401 155.172 163.01 149.958C163.196 148.377 163.393 146.748 163.597 145.105C165.398 130.614 167.801 114.702 167.801 114.702L168.432 113.244L174.856 98.3752L174.923 98.4012L183.397 101.715L183.698 103.14L185.997 113.96L200.869 101.964L214.59 99.8187L215.519 99.674L217.19 115.445C217.19 115.445 217.116 118.97 217.038 123.99C216.948 129.761 216.852 137.509 216.859 144.147C216.863 147.32 216.889 150.24 216.952 152.571C217.004 154.533 217.082 156.081 217.19 157.005C217.439 159.109 216.117 161.294 214.245 163.272Z" fill="#3F3D56"/>
<path d="M175.228 100.23L174.857 98.0031L164.459 85.3866L158.518 64.2354L144.035 69.8015L154.433 95.4056L169.287 114.33L175.228 100.23Z" fill="#3F3D56"/>
<path d="M178.461 84.3866C178.461 84.3866 183.057 78.072 187.078 76.9238C191.1 75.7757 191.674 70.0352 191.674 70.0352C191.674 70.0352 202.015 81.5163 208.334 82.0904C214.654 82.6644 208.909 68.313 208.909 68.313L197.419 65.4427L186.504 66.5908L177.887 72.3314L178.461 84.3866Z" fill="#2F2E41"/>
<path d="M215.459 150.656L179.932 152.064C179.932 152.064 160.354 156.542 162.973 146.758C165.592 136.973 179.303 144.522 179.303 144.522L216.093 143.138L215.459 150.656Z" fill="#FFB9B9"/>
<path d="M211.435 102.27L214.777 99.6728C214.777 99.6728 220.347 96.7042 221.461 107.094C222.575 117.484 230.745 151.994 222.575 152.365C214.406 152.736 193.61 153.107 193.61 153.107L195.838 141.604L212.92 140.491L211.435 102.27Z" fill="#3F3D56"/>
<path opacity="0.15" d="M212.549 118.227L211.435 139.378L195.095 142.717L209.949 136.78L212.549 118.227Z" fill="black"/>
<path d="M197.149 0H106.54V23.7487H197.149V0Z" fill="#EF802F"/>
<path d="M394 196.258H0V197H394V196.258Z" fill="#3F3D56"/>
<path d="M355.735 170.333C361.074 176.058 361.35 184.471 361.35 184.471C361.35 184.471 352.97 183.604 347.632 177.879C342.293 172.155 342.017 163.741 342.017 163.741C342.017 163.741 350.397 164.609 355.735 170.333Z" fill="#EF802F"/>
<path d="M372.541 179.268C366.813 184.603 358.393 184.879 358.393 184.879C358.393 184.879 359.261 176.505 364.99 171.171C370.718 165.836 379.138 165.561 379.138 165.561C379.138 165.561 378.27 173.934 372.541 179.268Z" fill="#EF802F"/>
<path d="M371.118 196.258H350.048C349.643 196.258 349.247 196.144 348.905 195.93C348.562 195.716 348.287 195.41 348.11 195.046L343.522 185.624C343.362 185.295 343.289 184.932 343.308 184.567C343.328 184.203 343.439 183.849 343.633 183.539C343.827 183.23 344.096 182.975 344.416 182.798C344.736 182.621 345.095 182.528 345.46 182.528H375.705C376.07 182.528 376.43 182.621 376.749 182.798C377.069 182.975 377.338 183.23 377.532 183.539C377.726 183.849 377.838 184.203 377.857 184.567C377.876 184.932 377.803 185.295 377.643 185.624L373.056 195.046C372.879 195.41 372.603 195.716 372.261 195.93C371.918 196.144 371.522 196.258 371.118 196.258Z" fill="#3F3D56"/>
<path d="M22.6363 170.333C27.9748 176.058 28.2507 184.471 28.2507 184.471C28.2507 184.471 19.8712 183.604 14.5328 177.879C9.19427 172.155 8.91835 163.741 8.91835 163.741C8.91835 163.741 17.2978 164.609 22.6363 170.333Z" fill="#EF802F"/>
<path d="M34.6765 196.258H13.6066C13.2024 196.258 12.8063 196.144 12.4636 195.93C12.1209 195.716 11.8455 195.41 11.6686 195.046L7.08121 185.624C6.92138 185.295 6.84769 184.932 6.86709 184.567C6.88649 184.203 6.99833 183.849 7.1921 183.539C7.38587 183.23 7.6552 182.975 7.9748 182.798C8.2944 182.621 8.65377 182.528 9.01913 182.528H39.2639C39.6293 182.528 39.9887 182.621 40.3083 182.798C40.6278 182.975 40.8972 183.23 41.091 183.539C41.2847 183.849 41.3966 184.203 41.416 184.567C41.4354 184.932 41.3617 185.295 41.2018 185.624L36.6144 195.046C36.4376 195.41 36.1621 195.716 35.8194 195.93C35.4768 196.144 35.0807 196.258 34.6765 196.258Z" fill="#3F3D56"/>
<path d="M185.637 9.54517H118.052V14.2035H185.637V9.54517Z" fill="white"/>
</svg>
