<svg width="245" height="220" viewBox="0 0 245 220" fill="none" xmlns="http://www.w3.org/2000/svg">
<g clip-path="url(#clip0)">
<path d="M239.594 200.627C237.454 208.051 231.206 213.248 224.687 217.662C223.777 218.279 222.867 218.881 221.956 219.469C221.95 219.472 221.944 219.478 221.938 219.481C221.894 219.509 221.85 219.537 221.809 219.565C221.621 219.687 221.433 219.808 221.247 219.928L221.349 219.973C221.349 219.973 221.45 220.027 221.34 219.982C221.307 219.968 221.273 219.956 221.24 219.942C217.453 218.415 213.599 216.775 210.698 213.914C207.687 210.944 205.928 206.284 207.558 202.381C207.772 201.87 208.043 201.384 208.365 200.933C208.497 200.744 208.64 200.563 208.788 200.385C209.687 199.287 210.862 198.449 212.193 197.957C213.523 197.464 214.961 197.335 216.358 197.582C217.755 197.829 219.061 198.444 220.141 199.363C221.222 200.282 222.038 201.473 222.506 202.812C222.985 198.353 219.309 194.619 215.77 191.863C212.231 189.109 208.209 186.109 207.525 181.675C207.142 179.208 208 176.818 209.563 174.899C209.611 174.84 209.66 174.782 209.71 174.725C211.612 172.49 214.287 171.055 217.202 170.706C222.629 170.142 227.901 173.015 231.844 176.788C238.19 182.86 242.027 192.186 239.594 200.627Z" fill="#F2F2F2"/>
<path d="M229.392 190.916C230.434 192.537 231.233 194.301 231.766 196.152C232.216 197.807 232.417 199.52 232.361 201.234C232.215 204.761 231.225 208.202 229.473 211.267C228.154 213.592 226.546 215.741 224.687 217.662C223.777 218.279 222.867 218.881 221.956 219.469C221.95 219.472 221.943 219.478 221.937 219.481C221.893 219.509 221.849 219.537 221.809 219.565C221.621 219.687 221.433 219.808 221.246 219.928C221.246 219.928 221.449 220.027 221.339 219.982C221.306 219.968 221.272 219.956 221.239 219.942C221.579 217.16 221.246 214.337 220.27 211.709C219.294 209.082 217.702 206.727 215.627 204.841C213.548 202.984 211.06 201.645 208.365 200.933C208.497 200.744 208.639 200.563 208.788 200.385C209.828 200.677 210.842 201.06 211.815 201.53C215.294 203.201 218.143 205.948 219.94 209.364C221.552 212.466 222.246 215.963 221.94 219.446C222.096 219.305 222.252 219.161 222.403 219.018C225.28 216.336 227.836 213.256 229.566 209.703C231.066 206.693 231.804 203.361 231.713 199.999C231.572 196.334 230.111 192.939 227.997 189.983C225.679 186.83 222.942 184.008 219.86 181.597C216.754 179.109 213.355 177.011 209.739 175.349C209.658 175.311 209.594 175.243 209.561 175.159C209.528 175.075 209.529 174.982 209.563 174.899C209.587 174.824 209.639 174.762 209.709 174.725C209.745 174.71 209.784 174.703 209.823 174.704C209.862 174.706 209.9 174.716 209.935 174.735C210.381 174.94 210.824 175.149 211.264 175.366C214.927 177.176 218.351 179.435 221.457 182.09C224.457 184.647 227.281 187.57 229.392 190.916Z" fill="white"/>
<path d="M20.0594 200.554H44.3453L56.4882 179.522L44.3453 158.49H20.0594L7.9165 179.522L20.0594 200.554Z" fill="#F2F2F2"/>
<path d="M20.0594 124.503H44.3453L56.4882 103.471L44.3453 82.439H20.0594L7.9165 103.471L20.0594 124.503Z" fill="#F2F2F2"/>
<path d="M20.0594 49.1567H44.3453L56.4882 28.1245L44.3453 7.09235H20.0594L7.9165 28.1245L20.0594 49.1567Z" fill="#F2F2F2"/>
<path d="M47.4235 56.2489H16.9809C16.672 56.2484 16.3686 56.1669 16.1011 56.0124C15.8335 55.858 15.6112 55.636 15.4563 55.3687L0.235049 29.0045C0.0810453 28.7367 0 28.4332 0 28.1243C0 27.8153 0.0810453 27.5118 0.235049 27.244L15.4564 0.880157C15.6113 0.612868 15.8336 0.390905 16.1011 0.236444C16.3686 0.0819821 16.672 0.000430065 16.9809 -6.10352e-05H47.4235C47.7325 0.000424302 48.0358 0.0819708 48.3034 0.236433C48.5709 0.390895 48.7932 0.612864 48.9481 0.880157L64.1694 27.244C64.3234 27.5118 64.4045 27.8153 64.4045 28.1243C64.4045 28.4332 64.3234 28.7367 64.1694 29.0045L48.948 55.3687C48.7932 55.636 48.5709 55.858 48.3033 56.0125C48.0358 56.1669 47.7324 56.2485 47.4235 56.2489ZM16.9809 0.704129C16.7956 0.704421 16.6135 0.753349 16.453 0.846026C16.2925 0.938702 16.1591 1.07188 16.0662 1.23226L0.844888 27.5962C0.752486 27.7568 0.703855 27.9389 0.703862 28.1243C0.70387 28.3096 0.75251 28.4917 0.844926 28.6524L16.0662 55.0166C16.1591 55.177 16.2925 55.3102 16.453 55.4029C16.6135 55.4955 16.7956 55.5445 16.9809 55.5448H47.4235C47.6088 55.5445 47.7909 55.4956 47.9514 55.4029C48.1119 55.3102 48.2453 55.177 48.3382 55.0166L63.5596 28.6524C63.652 28.4917 63.7006 28.3096 63.7006 28.1243C63.7006 27.9389 63.652 27.7568 63.5596 27.5961L48.3382 1.23224C48.2453 1.07187 48.1119 0.938688 47.9514 0.846009C47.7909 0.753331 47.6089 0.704401 47.4235 0.704113L16.9809 0.704129Z" fill="#CCCCCC"/>
<path d="M47.4235 131.962H16.9809C16.672 131.961 16.3686 131.88 16.1011 131.725C15.8335 131.571 15.6112 131.349 15.4563 131.082L0.235049 104.717C0.0810453 104.45 0 104.146 0 103.837C0 103.528 0.0810453 103.225 0.235049 102.957L15.4564 76.593C15.6113 76.3258 15.8336 76.1038 16.1011 75.9493C16.3686 75.7949 16.672 75.7133 16.9809 75.7128H47.4235C47.7325 75.7133 48.0358 75.7949 48.3034 75.9493C48.5709 76.1038 48.7932 76.3258 48.9481 76.593L64.1694 102.957C64.3234 103.225 64.4045 103.528 64.4045 103.837C64.4045 104.146 64.3234 104.45 64.1694 104.717L48.9481 131.082C48.7932 131.349 48.5709 131.571 48.3033 131.725C48.0358 131.88 47.7324 131.961 47.4235 131.962ZM16.9809 76.417C16.7956 76.4173 16.6135 76.4662 16.453 76.5589C16.2925 76.6516 16.1591 76.7848 16.0662 76.9451L0.844888 103.309C0.752486 103.47 0.703855 103.652 0.703862 103.837C0.70387 104.023 0.75251 104.205 0.844926 104.365L16.0662 130.73C16.1591 130.89 16.2925 131.023 16.453 131.116C16.6135 131.208 16.7956 131.257 16.9809 131.258H47.4235C47.6088 131.257 47.7909 131.208 47.9514 131.116C48.1119 131.023 48.2453 130.89 48.3382 130.73L63.5596 104.365C63.652 104.205 63.7006 104.023 63.7006 103.837C63.7006 103.652 63.652 103.47 63.5596 103.309L48.3382 76.9451C48.2453 76.7848 48.1119 76.6516 47.9514 76.5589C47.7909 76.4662 47.6089 76.4173 47.4235 76.417H16.9809Z" fill="#CCCCCC"/>
<path d="M47.4235 207.675H16.981C16.6721 207.674 16.3687 207.593 16.1011 207.438C15.8336 207.284 15.6113 207.062 15.4564 206.794L0.235113 180.43C0.0810645 180.162 -7.41374e-06 179.859 5.08491e-10 179.55C7.41475e-06 179.241 0.0810946 178.938 0.235156 178.67L15.4564 152.306C15.6113 152.039 15.8336 151.817 16.1012 151.662C16.3687 151.508 16.6721 151.426 16.981 151.426H47.4236C47.7325 151.426 48.0359 151.508 48.3034 151.662C48.571 151.817 48.7933 152.039 48.9482 152.306L64.1694 178.67C64.3235 178.938 64.4046 179.241 64.4046 179.55C64.4046 179.859 64.3235 180.162 64.1694 180.43L48.9481 206.794C48.7933 207.062 48.5709 207.284 48.3034 207.438C48.0359 207.593 47.7325 207.674 47.4235 207.675ZM16.981 152.13C16.7956 152.13 16.6136 152.179 16.4531 152.272C16.2926 152.364 16.1592 152.498 16.0662 152.658L0.844953 179.022C0.75253 179.183 0.703893 179.365 0.7039 179.55C0.703907 179.735 0.752555 179.917 0.844991 180.078L16.0662 206.442C16.1592 206.603 16.2926 206.736 16.4531 206.829C16.6136 206.921 16.7956 206.97 16.981 206.97H47.4235C47.6089 206.97 47.7909 206.921 47.9514 206.829C48.112 206.736 48.2453 206.603 48.3383 206.442L63.5596 180.078C63.652 179.917 63.7007 179.735 63.7007 179.55C63.7007 179.365 63.652 179.183 63.5596 179.022L48.3383 152.658C48.2454 152.498 48.112 152.364 47.9515 152.272C47.791 152.179 47.6089 152.13 47.4236 152.13H16.981Z" fill="#CCCCCC"/>
<path d="M32.2025 91.8604C29.9061 91.8604 27.6613 92.5413 25.7519 93.8171C23.8426 95.0929 22.3544 96.9062 21.4756 99.0278C20.5968 101.149 20.3669 103.484 20.8149 105.736C21.2629 107.988 22.3687 110.057 23.9925 111.681C25.6163 113.305 27.6851 114.411 29.9373 114.859C32.1896 115.307 34.5241 115.077 36.6457 114.198C38.7672 113.319 40.5806 111.831 41.8564 109.922C43.1322 108.012 43.8131 105.767 43.8131 103.471C43.8131 101.946 43.5128 100.436 42.9293 99.0278C42.3458 97.6191 41.4906 96.3392 40.4125 95.261C39.3343 94.1829 38.0544 93.3276 36.6457 92.7442C35.237 92.1607 33.7272 91.8604 32.2025 91.8604ZM32.2025 95.3435C32.8914 95.3435 33.5648 95.5478 34.1376 95.9306C34.7104 96.3133 35.1569 96.8573 35.4205 97.4938C35.6842 98.1302 35.7531 98.8306 35.6187 99.5063C35.4843 100.182 35.1526 100.803 34.6655 101.29C34.1783 101.777 33.5577 102.109 32.882 102.243C32.2063 102.377 31.506 102.308 30.8695 102.045C30.233 101.781 29.689 101.335 29.3063 100.762C28.9236 100.189 28.7193 99.5156 28.7193 98.8267C28.7193 97.9029 29.0863 97.017 29.7395 96.3638C30.3927 95.7105 31.2787 95.3436 32.2025 95.3436V95.3435ZM32.2025 112.112C30.8265 112.106 29.4728 111.764 28.2588 111.116C27.0449 110.468 26.0073 109.534 25.2361 108.394C25.2919 106.072 29.8803 104.794 32.2025 104.794C34.5246 104.794 39.113 106.072 39.1689 108.394C38.3968 109.533 37.359 110.467 36.1453 111.114C34.9315 111.762 33.5782 112.105 32.2025 112.112V112.112Z" fill="#EF802F"/>
<path d="M32.1801 20.0364C31.6057 19.4335 30.9181 18.9498 30.1567 18.6127C29.3953 18.2757 28.5749 18.0919 27.7425 18.072C26.91 18.0521 26.0818 18.1963 25.3051 18.4966C24.5285 18.7968 23.8185 19.2471 23.2159 19.8217C22.6133 20.3964 22.1298 21.0841 21.793 21.8456C21.4563 22.6072 21.2728 23.4276 21.2532 24.2601C21.2336 25.0925 21.3782 25.9207 21.6787 26.6972C21.9792 27.4738 22.4297 28.1836 23.0046 28.786C23.0739 28.8586 23.1449 28.9296 23.2176 28.9989L32.3956 38.177L41.3582 29.2145C42.5279 27.9878 43.1715 26.3522 43.1513 24.6574C43.1312 22.9625 42.449 21.3427 41.2504 20.1441C40.0519 18.9456 38.4321 18.2633 36.7372 18.2432C35.0423 18.2231 33.4068 18.8666 32.1801 20.0364H32.1801Z" fill="#EF802F"/>
<path d="M39.6789 172.488C39.6789 176.617 32.2023 185.682 32.2023 185.682C32.2023 185.682 24.7256 176.617 24.7256 172.488C24.7248 171.506 24.9174 170.534 25.2924 169.626C25.6674 168.719 26.2174 167.894 26.9111 167.199C27.6048 166.505 28.4286 165.953 29.3354 165.577C30.2422 165.2 31.2143 165.006 32.1962 165.005C33.178 165.004 34.1504 165.197 35.0578 165.572C35.9652 165.947 36.7899 166.497 37.4848 167.191C38.1796 167.885 38.731 168.708 39.1075 169.615C39.484 170.522 39.6782 171.494 39.679 172.476L39.6789 172.488Z" fill="#EF802F"/>
<path d="M32.2024 175.425C33.8246 175.425 35.1397 174.11 35.1397 172.488C35.1397 170.866 33.8246 169.551 32.2024 169.551C30.5802 169.551 29.2651 170.866 29.2651 172.488C29.2651 174.11 30.5802 175.425 32.2024 175.425Z" fill="white"/>
<path d="M31.9353 194.038C33.5575 194.038 34.8726 192.723 34.8726 191.101C34.8726 189.479 33.5575 188.164 31.9353 188.164C30.3131 188.164 28.998 189.479 28.998 191.101C28.998 192.723 30.3131 194.038 31.9353 194.038Z" fill="#EF802F"/>
<path d="M174.989 81.4882C172.491 80.3257 169.423 79.9447 166.88 81.0248C164.338 82.105 162.604 84.8737 163.426 87.324C163.799 88.4349 164.648 89.5274 164.317 90.6494C164.063 91.513 163.175 92.0832 162.303 92.4886C161.43 92.894 160.476 93.2349 159.846 93.9187C159.215 94.6024 159.083 95.7795 159.871 96.3098C160.131 96.4845 160.455 96.5674 160.707 96.7515C160.921 96.9258 161.076 97.1627 161.15 97.4292C161.223 97.6956 161.212 97.9784 161.117 98.238C160.907 98.7605 160.56 99.2166 160.113 99.5586C159.219 100.33 158.036 101.213 158.314 102.308C158.417 102.601 158.589 102.864 158.816 103.076C159.043 103.288 159.317 103.442 159.616 103.525C160.237 103.704 160.881 103.789 161.527 103.778L187.921 104.609C188.793 104.675 189.669 104.626 190.527 104.464C190.945 104.387 191.342 104.226 191.694 103.989C192.046 103.753 192.346 103.446 192.574 103.089C193.079 102.153 192.748 101.001 192.123 100.127C191.499 99.2533 190.616 98.5641 189.886 97.7619C189.156 96.9597 188.559 95.9583 188.687 94.9215C188.79 94.0915 189.338 93.3741 189.731 92.62C190.124 91.8659 190.352 90.9235 189.843 90.2297C189.126 89.2521 187.404 89.3405 186.589 88.4295C185.973 87.7421 186.092 86.7524 186.031 85.8659C185.884 83.7334 184.407 81.7195 182.306 80.7844C181.237 80.3256 180.075 80.1276 178.914 80.2066C177.754 80.2856 176.629 80.6394 175.632 81.2388L174.989 81.4882Z" fill="#2F2E41"/>
<path d="M158.31 215.336L154.176 214.094L157 197.557L163.101 199.39L158.31 215.336Z" fill="#A0616A"/>
<path d="M158.161 219.66L144.832 215.655L144.882 215.486C145.087 214.805 145.424 214.17 145.874 213.619C146.323 213.068 146.877 212.611 147.504 212.274C148.13 211.937 148.817 211.727 149.525 211.655C150.233 211.583 150.948 211.652 151.629 211.857L151.629 211.857L159.771 214.303L158.161 219.66Z" fill="#2F2E41"/>
<path d="M197.321 215.475L193.004 215.475L190.951 198.826L197.321 198.826L197.321 215.475Z" fill="#A0616A"/>
<path d="M198.421 219.66L184.503 219.659V219.483C184.503 218.772 184.643 218.067 184.915 217.41C185.188 216.753 185.587 216.155 186.09 215.652C186.593 215.149 187.19 214.75 187.847 214.478C188.504 214.206 189.209 214.066 189.92 214.066H189.921L198.421 214.066L198.421 219.66Z" fill="#2F2E41"/>
<path d="M191.328 202.883C190.952 202.882 190.587 202.748 190.301 202.504C190.014 202.259 189.824 201.921 189.764 201.549L183.355 161.568C183.313 161.303 183.185 161.059 182.992 160.874C182.798 160.688 182.549 160.57 182.283 160.539C182.016 160.508 181.747 160.564 181.516 160.699C181.284 160.835 181.103 161.042 181 161.29L164.396 201.265C164.241 201.634 163.953 201.931 163.589 202.097C163.225 202.263 162.811 202.285 162.431 202.16L156.434 200.161C156.06 200.038 155.746 199.779 155.553 199.437C155.36 199.094 155.302 198.692 155.389 198.309L168.997 138.094C169.064 137.804 169.21 137.539 169.42 137.327C169.63 137.116 169.895 136.968 170.184 136.9L188.434 132.664C188.658 132.613 188.891 132.611 189.116 132.657C189.341 132.704 189.554 132.799 189.739 132.935C201.756 141.666 200.741 170.193 198.501 201.168C198.473 201.556 198.304 201.92 198.025 202.191C197.746 202.462 197.378 202.621 196.989 202.638L191.398 202.881C191.374 202.882 191.351 202.883 191.328 202.883Z" fill="#2F2E41"/>
<path d="M175.966 104.405C180.742 104.405 184.614 100.533 184.614 95.7569C184.614 90.981 180.742 87.1093 175.966 87.1093C171.19 87.1093 167.318 90.981 167.318 95.7569C167.318 100.533 171.19 104.405 175.966 104.405Z" fill="#A0616A"/>
<path d="M176.34 140.577C174.264 140.563 172.217 140.09 170.346 139.191L170.282 139.161L170.256 139.095L162.5 118.999L162.352 115.508C162.303 114.34 162.498 113.175 162.927 112.087C163.355 111 164.006 110.014 164.838 109.194C165.67 108.373 166.665 107.736 167.758 107.323C168.852 106.91 170.019 106.731 171.186 106.797L179.421 107.261C181.548 107.382 183.549 108.309 185.016 109.853C186.484 111.397 187.308 113.443 187.32 115.574C187.534 115.984 189.053 119.197 186.076 122.216C185.965 122.903 184.924 130.049 188.853 133.978L188.964 134.088L188.867 134.211C188.805 134.291 183.758 140.576 176.34 140.577Z" fill="#CCCCCC"/>
<path d="M187.903 142.093C188.39 141.916 188.832 141.635 189.198 141.269C189.564 140.904 189.846 140.462 190.023 139.976C190.2 139.489 190.268 138.97 190.223 138.455C190.178 137.939 190.02 137.44 189.761 136.991L197.985 127.47L191.502 126.626L184.686 135.797C183.962 136.282 183.441 137.016 183.223 137.86C183.004 138.703 183.102 139.598 183.498 140.374C183.895 141.15 184.562 141.753 185.374 142.07C186.186 142.387 187.086 142.395 187.903 142.093Z" fill="#A0616A"/>
<path d="M172.829 140.087C172.312 140.111 171.796 140.021 171.318 139.824C170.839 139.627 170.409 139.328 170.059 138.947C169.708 138.566 169.446 138.113 169.289 137.619C169.133 137.126 169.087 136.604 169.154 136.091L157.902 130.461L163.564 127.19L173.381 133.038C174.235 133.208 174.998 133.686 175.524 134.38C176.05 135.075 176.304 135.939 176.236 136.807C176.168 137.676 175.783 138.49 175.156 139.094C174.528 139.699 173.7 140.052 172.829 140.087Z" fill="#A0616A"/>
<path d="M193.045 134.743C192.736 134.743 192.434 134.653 192.176 134.483L188.108 131.815C187.766 131.592 187.524 131.245 187.432 130.847C187.34 130.449 187.406 130.03 187.615 129.68L190.56 124.732C190.719 124.465 190.82 124.166 190.856 123.857C190.892 123.548 190.862 123.234 190.768 122.937C190.674 122.64 190.519 122.366 190.311 122.134C190.104 121.901 189.85 121.715 189.566 121.588L181.106 117.795C180.066 117.323 179.216 116.511 178.697 115.493C178.179 114.475 178.021 113.311 178.25 112.191C178.408 111.436 178.738 110.728 179.215 110.122C179.691 109.515 180.301 109.027 180.997 108.695C181.693 108.362 182.457 108.195 183.228 108.206C183.999 108.217 184.757 108.405 185.444 108.757L198.278 115.334C199.144 115.777 199.904 116.403 200.505 117.167C201.107 117.932 201.536 118.818 201.764 119.764C201.991 120.709 202.012 121.693 201.824 122.648C201.636 123.602 201.243 124.505 200.674 125.294L194.329 134.085C194.183 134.289 193.99 134.455 193.767 134.57C193.543 134.684 193.296 134.744 193.045 134.743Z" fill="#CCCCCC"/>
<path d="M166.634 136.305C166.4 136.305 166.169 136.253 165.958 136.153L156.148 131.537C155.268 131.122 154.487 130.523 153.86 129.779C153.233 129.035 152.774 128.164 152.515 127.227C152.256 126.289 152.202 125.306 152.358 124.346C152.514 123.386 152.875 122.471 153.418 121.663L161.458 109.692C161.888 109.051 162.46 108.519 163.13 108.136C163.799 107.752 164.548 107.529 165.318 107.482C166.088 107.435 166.858 107.567 167.569 107.867C168.279 108.166 168.911 108.626 169.415 109.21C170.158 110.078 170.584 111.173 170.624 112.315C170.663 113.456 170.313 114.578 169.632 115.495L164.069 122.912C163.882 123.162 163.75 123.448 163.682 123.751C163.613 124.055 163.61 124.37 163.671 124.675C163.733 124.981 163.859 125.27 164.04 125.523C164.221 125.776 164.454 125.988 164.723 126.145L169.696 129.046C170.05 129.251 170.31 129.585 170.422 129.978C170.535 130.37 170.491 130.791 170.3 131.152L168.035 135.457C167.901 135.713 167.699 135.927 167.452 136.076C167.205 136.226 166.922 136.305 166.634 136.305Z" fill="#CCCCCC"/>
<path d="M167.12 94.5275C169.85 94.3082 172.118 91.58 171.834 88.8551C171.802 89.9783 172.184 91.074 172.907 91.9339C173.63 92.7938 174.644 93.3578 175.757 93.5187C177.009 93.6567 178.383 93.2777 179.473 93.9097C180.681 94.6097 181.067 96.3095 182.325 96.914C183.541 97.4981 185.085 96.7015 185.685 95.4939C186.286 94.2864 186.138 92.8356 185.74 91.547C185.173 89.7094 184.139 88.0499 182.74 86.73C181.341 85.4101 179.625 84.4747 177.757 84.0148C175.89 83.5549 173.935 83.5862 172.083 84.1055C170.231 84.6249 168.545 85.6147 167.189 86.9787C166.041 88.1337 165.129 89.6057 164.981 91.2277C164.833 92.8497 165.586 94.6096 167.042 95.3383L167.12 94.5275Z" fill="#2F2E41"/>
<path d="M244.687 219.956H110.542C110.448 219.956 110.359 219.918 110.293 219.852C110.227 219.786 110.189 219.697 110.189 219.603C110.189 219.51 110.227 219.421 110.293 219.355C110.359 219.288 110.448 219.251 110.542 219.251H244.687C244.78 219.251 244.87 219.288 244.936 219.355C245.002 219.421 245.039 219.51 245.039 219.603C245.039 219.697 245.002 219.786 244.936 219.852C244.87 219.918 244.78 219.956 244.687 219.956Z" fill="#3F3D56"/>
</g>
<defs>
<clipPath id="clip0">
<rect width="245.039" height="220" fill="white"/>
</clipPath>
</defs>
</svg>
