<svg width="316" height="228" viewBox="0 0 316 228" fill="none" xmlns="http://www.w3.org/2000/svg">
<g clip-path="url(#clip0)">
<path d="M0 226.973H50.8295" stroke="#3F3D56" stroke-miterlimit="10"/>
<path d="M294.138 39.1182H80.3463C77.066 39.1182 74.4067 41.7774 74.4067 45.0578V185.973C74.4067 189.254 77.066 191.913 80.3463 191.913H294.138C297.418 191.913 300.077 189.254 300.077 185.973V45.0578C300.077 41.7774 297.418 39.1182 294.138 39.1182Z" fill="#F2F2F2"/>
<path d="M287.249 29.4728H73.4572C70.1768 29.4728 67.5176 32.1321 67.5176 35.4124V176.328C67.5176 179.608 70.1768 182.267 73.4572 182.267H287.249C290.529 182.267 293.188 179.608 293.188 176.328V35.4124C293.188 32.1321 290.529 29.4728 287.249 29.4728Z" stroke="#3F3D56" stroke-miterlimit="10"/>
<path d="M67.5176 44.1215H293.188" stroke="#3F3D56" stroke-miterlimit="10"/>
<path opacity="0.3" d="M261.774 78.4651H204.571C203.372 78.4651 202.399 79.4374 202.399 80.6368V85.7856C202.399 86.985 203.372 87.9573 204.571 87.9573H261.774C262.974 87.9573 263.946 86.985 263.946 85.7856V80.6368C263.946 79.4374 262.974 78.4651 261.774 78.4651Z" fill="#EF802F"/>
<path opacity="0.3" d="M273.563 104.798H192.782C191.583 104.798 190.61 105.771 190.61 106.97V110.282C190.61 111.481 191.583 112.453 192.782 112.453H273.563C274.762 112.453 275.734 111.481 275.734 110.282V106.97C275.734 105.771 274.762 104.798 273.563 104.798Z" fill="#EF802F"/>
<path opacity="0.3" d="M273.563 125.62H192.782C191.583 125.62 190.61 126.592 190.61 127.792V131.103C190.61 132.303 191.583 133.275 192.782 133.275H273.563C274.762 133.275 275.734 132.303 275.734 131.103V127.792C275.734 126.592 274.762 125.62 273.563 125.62Z" fill="#EF802F"/>
<path opacity="0.3" d="M273.563 146.442H192.782C191.583 146.442 190.61 147.414 190.61 148.614V151.925C190.61 153.124 191.583 154.097 192.782 154.097H273.563C274.762 154.097 275.734 153.124 275.734 151.925V148.614C275.734 147.414 274.762 146.442 273.563 146.442Z" fill="#EF802F"/>
<path d="M264.836 75.4031H207.633C206.434 75.4031 205.461 76.3754 205.461 77.5748V82.7236C205.461 83.923 206.434 84.8953 207.633 84.8953H264.836C266.036 84.8953 267.008 83.923 267.008 82.7236V77.5748C267.008 76.3754 266.036 75.4031 264.836 75.4031Z" stroke="#3F3D56" stroke-miterlimit="10"/>
<path d="M276.625 101.736H195.844C194.645 101.736 193.672 102.709 193.672 103.908V107.22C193.672 108.419 194.645 109.391 195.844 109.391H276.625C277.824 109.391 278.796 108.419 278.796 107.22V103.908C278.796 102.709 277.824 101.736 276.625 101.736Z" stroke="#3F3D56" stroke-miterlimit="10"/>
<path d="M276.625 122.558H195.844C194.645 122.558 193.672 123.53 193.672 124.73V128.041C193.672 129.241 194.645 130.213 195.844 130.213H276.625C277.824 130.213 278.796 129.241 278.796 128.041V124.73C278.796 123.53 277.824 122.558 276.625 122.558Z" stroke="#3F3D56" stroke-miterlimit="10"/>
<path d="M276.625 143.38H195.844C194.645 143.38 193.672 144.352 193.672 145.552V148.863C193.672 150.062 194.645 151.035 195.844 151.035H276.625C277.824 151.035 278.796 150.062 278.796 148.863V145.552C278.796 144.352 277.824 143.38 276.625 143.38Z" stroke="#3F3D56" stroke-miterlimit="10"/>
<path opacity="0.3" d="M84.6648 43.2519C87.2014 43.2519 89.2578 41.1955 89.2578 38.6589C89.2578 36.1222 87.2014 34.0659 84.6648 34.0659C82.1281 34.0659 80.0718 36.1222 80.0718 38.6589C80.0718 41.1955 82.1281 43.2519 84.6648 43.2519Z" fill="#EF802F"/>
<path opacity="0.3" d="M97.5252 43.2519C100.062 43.2519 102.118 41.1955 102.118 38.6589C102.118 36.1222 100.062 34.0659 97.5252 34.0659C94.9885 34.0659 92.9321 36.1222 92.9321 38.6589C92.9321 41.1955 94.9885 43.2519 97.5252 43.2519Z" fill="#EF802F"/>
<path opacity="0.3" d="M110.386 43.2519C112.922 43.2519 114.979 41.1955 114.979 38.6589C114.979 36.1222 112.922 34.0659 110.386 34.0659C107.849 34.0659 105.792 36.1222 105.792 38.6589C105.792 41.1955 107.849 43.2519 110.386 43.2519Z" fill="#EF802F"/>
<path d="M86.5017 41.4147C89.0384 41.4147 91.0947 39.3583 91.0947 36.8217C91.0947 34.285 89.0384 32.2286 86.5017 32.2286C83.9651 32.2286 81.9087 34.285 81.9087 36.8217C81.9087 39.3583 83.9651 41.4147 86.5017 41.4147Z" stroke="#3F3D56" stroke-miterlimit="10"/>
<path d="M99.3626 41.4147C101.899 41.4147 103.956 39.3583 103.956 36.8217C103.956 34.285 101.899 32.2286 99.3626 32.2286C96.8259 32.2286 94.7695 34.285 94.7695 36.8217C94.7695 39.3583 96.8259 41.4147 99.3626 41.4147Z" stroke="#3F3D56" stroke-miterlimit="10"/>
<path d="M112.223 41.4147C114.76 41.4147 116.816 39.3583 116.816 36.8217C116.816 34.285 114.76 32.2286 112.223 32.2286C109.686 32.2286 107.63 34.285 107.63 36.8217C107.63 39.3583 109.686 41.4147 112.223 41.4147Z" stroke="#3F3D56" stroke-miterlimit="10"/>
<path d="M138.818 175.837C138.049 172.295 137.845 167.457 138.103 164.091C138.103 164.091 134.215 147.009 131.156 145.415L131.155 145.416C131.108 145.477 129.623 147.423 129.435 153.446C129.244 159.565 127.077 163.581 127.077 163.581C127.077 163.581 127.778 171.207 127.377 175.837L138.818 175.837Z" fill="#EF802F"/>
<path d="M167.103 67.1356H96.5368C95.5809 67.1356 94.6343 67.3239 93.7512 67.6897C92.8681 68.0555 92.0657 68.5917 91.3898 69.2676C90.7139 69.9435 90.1777 70.7459 89.8119 71.629C89.4461 72.5121 89.2578 73.4587 89.2578 74.4145V168.558C89.2578 169.514 89.4461 170.461 89.8119 171.344C90.1777 172.227 90.7139 173.029 91.3898 173.705C92.0657 174.381 92.8681 174.917 93.7512 175.283C94.6343 175.649 95.5809 175.837 96.5368 175.837H121.295C120.468 172.408 119.44 167.052 120.481 163.328L120.481 163.326L120.481 163.327C120.53 163.153 120.581 162.982 120.639 162.816C121.354 160.399 121.593 157.866 121.341 155.359C121.801 153.216 121.801 151 121.341 148.857C120.576 145.288 120.041 141.782 120.041 141.782C120.041 141.782 119.619 137.066 119.987 134.175C119.995 134.112 120.005 134.051 120.014 133.99C119.884 133.96 119.811 133.943 119.811 133.943C119.811 133.943 120.895 129.035 121.277 125.912C121.367 125.175 121.486 124.24 121.615 123.244C121.262 123.185 120.914 123.097 120.576 122.98C117.134 121.769 116.05 110.806 116.05 110.806V107.333C116.05 107.333 114.903 102.011 118.919 99.6525C122.785 97.3815 124.329 96.76 124.438 96.7171C124.468 96.696 124.496 96.6769 124.527 96.6536C124.964 96.3106 125.309 95.8654 125.534 95.3573C125.539 95.2697 125.54 95.1828 125.538 95.0963C125.472 93.8511 124.605 92.7187 123.783 91.7305C123.081 90.8877 122.38 90.0449 121.678 89.2021C121.438 88.9511 121.253 88.6522 121.136 88.3249C121.092 88.1443 121.073 87.9584 121.079 87.7725C121.078 87.7038 121.079 87.6351 121.08 87.5665C121.092 86.9381 121.109 86.3098 121.131 85.6816C121.151 85.1329 121.289 84.4404 121.827 84.3277C122.106 84.269 122.476 84.3713 122.624 84.1269C122.674 84.0262 122.686 83.9112 122.66 83.8021C122.658 83.8103 122.657 83.8188 122.655 83.8268C122.653 83.8166 122.652 83.8063 122.65 83.7962C122.539 83.3562 122.472 82.9063 122.45 82.4531C122.445 82.2486 122.474 82.0446 122.537 81.8499C122.848 80.9389 123.92 80.5651 124.867 80.3933C125.815 80.2214 126.878 80.0735 127.473 79.3163C127.632 79.0649 127.804 78.8222 127.99 78.5894C128.263 78.3415 128.598 78.1725 128.959 78.1005C130.135 77.8029 131.377 77.9132 132.482 78.4132C132.941 78.6223 133.401 78.9039 133.904 78.872C134.426 78.839 134.872 78.4715 135.387 78.3821C136.22 78.2377 137.016 78.8615 137.426 79.6002C137.687 80.0701 137.817 80.6011 137.804 81.1383C137.813 81.6731 137.62 82.1918 137.263 82.59C136.905 82.9702 136.37 83.2313 136.222 83.732C136.161 83.9359 136.175 84.1554 136.122 84.3611C136.115 84.3869 136.104 84.4109 136.095 84.4358C136.105 84.4485 136.116 84.4606 136.125 84.4734C136.752 85.2994 137.172 86.2632 137.351 87.2846C137.529 88.3059 137.461 89.3551 137.151 90.3446C136.841 91.3341 136.3 92.2352 135.571 92.9726C134.842 93.7101 133.948 94.2626 132.962 94.584C132.959 94.6485 132.957 94.713 132.957 94.7778C132.939 95.1796 133.007 95.5807 133.157 95.9539C133.307 96.3271 133.535 96.6638 133.827 96.941L139.506 99.27C139.506 99.27 142.925 98.8556 144.159 103.958C144.356 104.806 144.427 105.679 144.37 106.548C144.325 107.317 144.429 108.671 145.306 110.424C146.708 113.228 146.389 119.666 143.521 120.303C140.805 120.907 139.748 120.653 139.644 120.625L139.637 120.738C139.682 121.946 140.112 132.364 141.673 133.624C142.104 133.973 142.022 134.208 141.668 134.367L141.669 134.368C141.669 134.368 141.672 134.435 141.678 134.556C141.725 135.318 141.966 138.219 143.011 139.87C144.222 141.782 144.095 152.81 144.095 152.81L144.923 159.311C144.923 159.311 144.414 163.326 144.923 164.027C145.213 164.424 145.563 170.581 145.813 175.837H167.103C169.033 175.837 170.885 175.07 172.25 173.705C173.615 172.34 174.382 170.489 174.382 168.558V74.4145C174.382 73.4587 174.194 72.5121 173.828 71.629C173.462 70.7459 172.926 69.9435 172.25 69.2676C171.574 68.5917 170.772 68.0555 169.888 67.6897C169.005 67.3239 168.059 67.1356 167.103 67.1356Z" fill="#EF802F"/>
<path d="M159.754 58.8682H89.1876C85.1676 58.8682 81.9087 62.127 81.9087 66.1471V160.291C81.9087 164.311 85.1676 167.57 89.1876 167.57H159.754C163.774 167.57 167.033 164.311 167.033 160.291V66.1471C167.033 62.127 163.774 58.8682 159.754 58.8682Z" stroke="#3F3D56" stroke-miterlimit="10"/>
<path d="M30.8725 98.4838C30.8725 98.4838 28.0174 97.6397 27.405 98.5583C26.7926 99.4769 28.2399 106.136 28.2399 106.136L34.5311 106.518L32.3355 100.974L30.8725 98.4838Z" fill="#2F2E41"/>
<path d="M8.86275 153.168C8.86275 153.168 14.5871 165.736 10.1787 165.341C5.77029 164.946 4.05957 153.168 4.05957 153.168H8.86275Z" fill="#A0616A"/>
<path d="M46.3015 151.859C46.3015 151.859 43.7902 165.438 47.9719 163.988C52.1535 162.538 50.9617 150.696 50.9617 150.696L46.3015 151.859Z" fill="#A0616A"/>
<path d="M29.6545 95.3327C29.6545 95.3327 29.5887 101.649 32.0232 101.978C34.4577 102.307 30.6414 105.663 30.6414 105.663L26.2988 106.518L20.0481 106.058L17.2847 102.505C17.2847 102.505 22.1536 100.202 20.0481 93.0298L29.6545 95.3327Z" fill="#A0616A"/>
<path opacity="0.1" d="M29.6545 95.3327C29.6545 95.3327 29.5887 101.649 32.0232 101.978C34.4577 102.307 30.6414 105.663 30.6414 105.663L26.2988 106.518L20.0481 106.058L17.2847 102.505C17.2847 102.505 22.1536 100.202 20.0481 93.0298L29.6545 95.3327Z" fill="black"/>
<path d="M40.8404 148.76C40.8404 148.76 43.9329 155.405 41.4984 176.263C41.4984 176.263 42.2222 183.632 41.63 185.014C41.0378 186.396 36.1688 205.148 36.1688 205.148C36.1688 205.148 29.9181 206.53 29.0628 202.384C29.0628 202.384 29.9181 196.463 29.8523 195.542C29.7865 194.62 31.2341 184.554 31.2341 184.554L28.2732 165.078L26.0361 182.645C26.0361 182.645 26.0361 187.712 25.3123 188.83C24.5886 189.949 25.3123 212.451 25.3123 212.451C25.3123 212.451 27.352 215.873 24.2596 215.939C21.1671 216.004 18.4037 215.873 18.1405 213.702C17.8773 211.53 17.7457 209.359 17.0877 208.043C16.4297 206.727 15.5744 191.66 15.7718 186.396C15.9692 181.132 11.4292 154.089 12.8767 151.26C14.3242 148.431 40.8404 148.76 40.8404 148.76Z" fill="#2F2E41"/>
<path d="M26.299 97.7014C30.6596 97.7014 34.1946 94.1664 34.1946 89.8058C34.1946 85.4452 30.6596 81.9102 26.299 81.9102C21.9383 81.9102 18.4033 85.4452 18.4033 89.8058C18.4033 94.1664 21.9383 97.7014 26.299 97.7014Z" fill="#A0616A"/>
<path d="M18.4031 102.636C18.4031 102.636 23.2063 106.189 30.1808 103.36C30.1808 103.36 32.4837 102.241 32.2863 100.531C32.0889 98.8201 37.0895 114.282 37.0895 114.282L42.1558 141.193L41.8927 152.181C41.8927 152.181 39.6556 151.063 32.6811 153.563C25.7066 156.063 14.3237 150.734 14.3237 150.734L14.7185 122.507L15.1133 106.058L16.166 102.439C16.166 102.439 16.6924 101.452 18.4031 102.636Z" fill="#F2F2F2"/>
<path d="M29.874 98.2194C29.874 98.2194 31.0363 98.0306 32.1549 99.8071C33.2734 101.584 35.9053 102.702 35.9053 102.702C35.9053 102.702 42.2876 103.097 43.2088 106.518C44.1299 109.94 46.4328 114.611 47.5514 123.231C48.6699 131.85 50.907 145.602 51.236 146.72C51.565 147.839 50.7754 151.26 51.6966 152.313C52.6178 153.366 45.1827 153.366 45.1827 153.366C45.1827 153.366 44.5247 147.97 44.0641 147.97C43.6035 147.97 43.7352 151.589 44.1957 154.221C44.6563 156.853 40.8401 154.221 40.8401 154.221C40.8401 154.221 37.8792 142.18 35.0499 131.324C32.2207 120.467 30.5758 114.48 31.1021 112.045C31.6285 109.611 33.076 102.636 32.0233 101.978C30.9705 101.32 29.874 98.2194 29.874 98.2194Z" fill="#2F2E41"/>
<path d="M20.3856 98.2136C20.3856 98.2136 18.6666 99.1491 14.324 102.242C9.98136 105.334 7.02051 107.703 7.02051 107.703C7.02051 107.703 5.30979 109.019 4.25704 116.848C3.20429 124.678 0.835595 144.944 1.75676 147.51C2.67792 150.076 3.0069 151.589 2.67791 153.103C2.34893 154.616 9.5866 154.55 9.71819 154.221C9.84978 153.892 9.5208 147.905 9.84978 147.773C10.1788 147.641 11.9553 151.326 12.2843 154.419C12.6133 157.511 16.4295 159.946 17.2849 159.946C18.1402 159.946 22.5486 142.115 22.6144 129.942C22.6802 117.77 21.1669 107.505 20.0483 106.058C18.9298 104.61 20.3856 98.2136 20.3856 98.2136Z" fill="#2F2E41"/>
<path d="M31.9576 205.74C31.9576 205.74 32.484 204.293 34.3263 204.753C36.1686 205.214 37.4187 203.569 37.4187 203.569C37.4187 203.569 38.4057 203.437 37.7477 204.687C37.0897 205.938 36.5634 206.793 36.5634 206.793C36.5634 206.793 40.5112 215.807 37.9451 217.978C35.379 220.15 32.4182 218.834 32.4182 218.834C32.4182 218.834 29.5231 216.794 29.6547 211.399C29.6547 211.399 29.5231 209.688 27.944 206.924C26.3649 204.161 25.1805 199.95 27.0886 199.16C28.9967 198.371 29.4879 198.342 29.4879 198.342C29.4879 198.342 28.595 202.425 30.9014 203.852L31.9576 205.74Z" fill="#3F3D56"/>
<path d="M19.7193 215.939C19.7193 215.939 18.1402 212.978 20.772 212.649C23.4039 212.32 26.2332 212.122 26.1016 213.504C25.97 214.886 25.641 216.991 25.641 216.991L26.1016 218.505C26.1016 218.505 26.2332 222.255 26.6938 222.716C27.1543 223.176 29.6546 227.124 24.3251 227.124C18.9955 227.124 17.4164 226.532 17.877 225.282C18.3375 224.032 18.4691 217.847 18.4691 217.847L19.7193 215.939Z" fill="#3F3D56"/>
<path d="M23.7985 83.4893C23.7985 83.4893 27.4832 84.4762 29.3913 84.871C31.2994 85.2658 31.102 84.1472 31.102 84.1472C31.102 84.1472 33.6023 84.4762 33.4707 84.213C33.3391 83.9499 34.5234 82.5681 33.1417 80.989C31.76 79.4099 32.1547 78.2255 32.1547 78.2255H30.9704L30.6414 77.765H28.7991C28.7991 77.765 27.4174 77.2386 23.7985 77.765C20.1797 78.2913 15.2449 78.4229 14.8501 80.5942C14.4553 82.7655 12.4156 85.4632 13.1394 86.7133C13.8632 87.9635 18.0084 93.0956 18.4032 95.2669C18.7979 97.4382 20.6413 97.9206 20.575 96.5609C20.5087 95.2011 18.6663 90.4637 20.2455 90.2664C21.8246 90.069 24.5223 86.0554 23.7985 83.4893Z" fill="#2F2E41"/>
<path d="M286.262 2.28351C284.957 2.35723 283.698 2.79309 282.627 3.54221C281.555 4.29133 280.714 5.3241 280.196 6.52471C278.68 10.1911 280.633 14.4978 283.564 17.1714C286.496 19.845 290.262 21.3732 293.684 23.3819C298.28 26.0799 302.409 29.8252 304.709 34.6329C307.009 39.4406 307.253 45.3959 304.55 49.9889C302.041 54.252 297.479 56.8034 293.128 59.1565" stroke="#3F3D56" stroke-miterlimit="10"/>
<path d="M290.126 5.20543C293.086 5.20543 295.485 4.04015 295.485 2.60271C295.485 1.16527 293.086 0 290.126 0C287.167 0 284.768 1.16527 284.768 2.60271C284.768 4.04015 287.167 5.20543 290.126 5.20543Z" fill="#EF802F"/>
<path d="M294.413 22.3527C297.372 22.3527 299.771 21.1874 299.771 19.75C299.771 18.3126 297.372 17.1473 294.413 17.1473C291.453 17.1473 289.054 18.3126 289.054 19.75C289.054 21.1874 291.453 22.3527 294.413 22.3527Z" fill="#EF802F"/>
<path d="M284.614 25.1085C287.574 25.1085 289.973 23.9432 289.973 22.5058C289.973 21.0684 287.574 19.9031 284.614 19.9031C281.655 19.9031 279.256 21.0684 279.256 22.5058C279.256 23.9432 281.655 25.1085 284.614 25.1085Z" fill="#EF802F"/>
<path d="M299.924 39.5C302.884 39.5 305.283 38.3347 305.283 36.8973C305.283 35.4598 302.884 34.2946 299.924 34.2946C296.965 34.2946 294.566 35.4598 294.566 36.8973C294.566 38.3347 296.965 39.5 299.924 39.5Z" fill="#EF802F"/>
<path d="M310.641 39.5C313.601 39.5 316 38.3347 316 36.8973C316 35.4598 313.601 34.2946 310.641 34.2946C307.682 34.2946 305.283 35.4598 305.283 36.8973C305.283 38.3347 307.682 39.5 310.641 39.5Z" fill="#EF802F"/>
</g>
<defs>
<clipPath id="clip0">
<rect width="316" height="227.126" fill="white"/>
</clipPath>
</defs>
</svg>
