<svg width="239" height="182" viewBox="0 0 239 182" fill="none" xmlns="http://www.w3.org/2000/svg">
<g clip-path="url(#clip0)">
<path d="M315.606 175.419H0.394015C0.289516 175.419 0.189296 175.377 0.115404 175.303C0.0415119 175.23 0 175.13 0 175.025C0 174.921 0.0415119 174.821 0.115404 174.747C0.189296 174.673 0.289516 174.632 0.394015 174.632H315.606C315.71 174.632 315.811 174.673 315.885 174.747C315.958 174.821 316 174.921 316 175.025C316 175.13 315.958 175.23 315.885 175.303C315.811 175.377 315.71 175.419 315.606 175.419Z" fill="#3F3D56"/>
<path d="M163.226 74.995H108.565C107.779 74.9941 107.026 74.6819 106.47 74.1269C105.914 73.5719 105.602 72.8195 105.601 72.0347V2.96033C105.602 2.17547 105.914 1.42302 106.47 0.868044C107.026 0.313068 107.779 0.000892746 108.565 0H163.226C164.011 0.000893798 164.765 0.31307 165.32 0.86805C165.876 1.42303 166.188 2.17549 166.189 2.96034V72.0347C166.188 72.8195 165.876 73.572 165.32 74.1269C164.765 74.6819 164.011 74.9941 163.226 74.995ZM108.565 0.65787C107.954 0.658554 107.368 0.90135 106.936 1.333C106.503 1.76465 106.26 2.3499 106.26 2.96034V72.0347C106.26 72.6451 106.503 73.2303 106.936 73.662C107.368 74.0937 107.954 74.3365 108.565 74.3371H163.226C163.837 74.3365 164.423 74.0937 164.855 73.662C165.287 73.2303 165.53 72.6451 165.531 72.0347V2.96034C165.53 2.3499 165.287 1.76466 164.855 1.33301C164.423 0.901357 163.837 0.658555 163.226 0.65787H108.565Z" fill="#3F3D56"/>
<path d="M131.348 33.2023H119.316C118.923 33.2018 118.546 33.0457 118.268 32.7683C117.991 32.4908 117.834 32.1145 117.834 31.7221V17.539C117.834 17.1466 117.991 16.7703 118.268 16.4928C118.546 16.2153 118.923 16.0592 119.316 16.0588H131.348C131.741 16.0592 132.117 16.2153 132.395 16.4928C132.673 16.7703 132.829 17.1466 132.83 17.539V31.7221C132.829 32.1145 132.673 32.4908 132.395 32.7683C132.117 33.0457 131.741 33.2018 131.348 33.2023Z" fill="#EF802F"/>
<path d="M154.727 39.7808H142.695C142.302 39.7804 141.926 39.6243 141.648 39.3468C141.37 39.0693 141.214 38.6931 141.213 38.3006V24.1175C141.214 23.725 141.37 23.3488 141.648 23.0713C141.926 22.7938 142.302 22.6377 142.695 22.6373H154.727C155.12 22.6377 155.497 22.7938 155.774 23.0713C156.052 23.3488 156.209 23.725 156.209 24.1175V38.3006C156.209 38.6931 156.052 39.0693 155.774 39.3468C155.497 39.6243 155.12 39.7804 154.727 39.7808Z" fill="#CCCCCC"/>
<path d="M135.958 59.8452H123.926C123.533 59.8448 123.157 59.6887 122.879 59.4112C122.601 59.1337 122.445 58.7575 122.444 58.3651V44.1819C122.445 43.7895 122.601 43.4133 122.879 43.1358C123.157 42.8583 123.533 42.7022 123.926 42.7018H135.958C136.351 42.7022 136.728 42.8583 137.005 43.1358C137.283 43.4133 137.439 43.7895 137.44 44.1819V58.3651C137.439 58.7575 137.283 59.1337 137.005 59.4112C136.728 59.6887 136.351 59.8448 135.958 59.8452Z" fill="#FF6584"/>
<path d="M45.6784 7.19758C47.0857 7.19758 48.2265 6.05802 48.2265 4.6523C48.2265 3.24658 47.0857 2.10703 45.6784 2.10703C44.2712 2.10703 43.1304 3.24658 43.1304 4.6523C43.1304 6.05802 44.2712 7.19758 45.6784 7.19758Z" fill="#F2F2F2"/>
<path d="M45.6784 17.3416C47.0857 17.3416 48.2265 16.202 48.2265 14.7963C48.2265 13.3906 47.0857 12.251 45.6784 12.251C44.2712 12.251 43.1304 13.3906 43.1304 14.7963C43.1304 16.202 44.2712 17.3416 45.6784 17.3416Z" fill="#F2F2F2"/>
<path d="M45.6784 27.4856C47.0857 27.4856 48.2265 26.346 48.2265 24.9403C48.2265 23.5346 47.0857 22.395 45.6784 22.395C44.2712 22.395 43.1304 23.5346 43.1304 24.9403C43.1304 26.346 44.2712 27.4856 45.6784 27.4856Z" fill="#F2F2F2"/>
<path d="M45.6784 37.6296C47.0857 37.6296 48.2265 36.49 48.2265 35.0843C48.2265 33.6786 47.0857 32.539 45.6784 32.539C44.2712 32.539 43.1304 33.6786 43.1304 35.0843C43.1304 36.49 44.2712 37.6296 45.6784 37.6296Z" fill="#F2F2F2"/>
<path d="M56.3171 7.19758C57.7243 7.19758 58.8651 6.05802 58.8651 4.6523C58.8651 3.24658 57.7243 2.10703 56.3171 2.10703C54.9098 2.10703 53.769 3.24658 53.769 4.6523C53.769 6.05802 54.9098 7.19758 56.3171 7.19758Z" fill="#F2F2F2"/>
<path d="M56.3171 17.3416C57.7243 17.3416 58.8651 16.202 58.8651 14.7963C58.8651 13.3906 57.7243 12.251 56.3171 12.251C54.9098 12.251 53.769 13.3906 53.769 14.7963C53.769 16.202 54.9098 17.3416 56.3171 17.3416Z" fill="#F2F2F2"/>
<path d="M56.3171 27.4856C57.7243 27.4856 58.8651 26.346 58.8651 24.9403C58.8651 23.5346 57.7243 22.395 56.3171 22.395C54.9098 22.395 53.769 23.5346 53.769 24.9403C53.769 26.346 54.9098 27.4856 56.3171 27.4856Z" fill="#F2F2F2"/>
<path d="M56.3171 37.6296C57.7243 37.6296 58.8651 36.49 58.8651 35.0843C58.8651 33.6786 57.7243 32.539 56.3171 32.539C54.9098 32.539 53.769 33.6786 53.769 35.0843C53.769 36.49 54.9098 37.6296 56.3171 37.6296Z" fill="#F2F2F2"/>
<path d="M66.9553 7.19758C68.3625 7.19758 69.5033 6.05802 69.5033 4.6523C69.5033 3.24658 68.3625 2.10703 66.9553 2.10703C65.548 2.10703 64.4072 3.24658 64.4072 4.6523C64.4072 6.05802 65.548 7.19758 66.9553 7.19758Z" fill="#F2F2F2"/>
<path d="M66.9553 17.3416C68.3625 17.3416 69.5033 16.202 69.5033 14.7963C69.5033 13.3906 68.3625 12.251 66.9553 12.251C65.548 12.251 64.4072 13.3906 64.4072 14.7963C64.4072 16.202 65.548 17.3416 66.9553 17.3416Z" fill="#F2F2F2"/>
<path d="M66.9553 27.4856C68.3625 27.4856 69.5033 26.346 69.5033 24.9403C69.5033 23.5346 68.3625 22.395 66.9553 22.395C65.548 22.395 64.4072 23.5346 64.4072 24.9403C64.4072 26.346 65.548 27.4856 66.9553 27.4856Z" fill="#F2F2F2"/>
<path d="M66.9553 37.6296C68.3625 37.6296 69.5033 36.49 69.5033 35.0843C69.5033 33.6786 68.3625 32.539 66.9553 32.539C65.548 32.539 64.4072 33.6786 64.4072 35.0843C64.4072 36.49 65.548 37.6296 66.9553 37.6296Z" fill="#F2F2F2"/>
<path d="M77.5935 7.19758C79.0007 7.19758 80.1415 6.05802 80.1415 4.6523C80.1415 3.24658 79.0007 2.10703 77.5935 2.10703C76.1862 2.10703 75.0454 3.24658 75.0454 4.6523C75.0454 6.05802 76.1862 7.19758 77.5935 7.19758Z" fill="#F2F2F2"/>
<path d="M77.5935 17.3416C79.0007 17.3416 80.1415 16.202 80.1415 14.7963C80.1415 13.3906 79.0007 12.251 77.5935 12.251C76.1862 12.251 75.0454 13.3906 75.0454 14.7963C75.0454 16.202 76.1862 17.3416 77.5935 17.3416Z" fill="#F2F2F2"/>
<path d="M77.5935 27.4856C79.0007 27.4856 80.1415 26.346 80.1415 24.9403C80.1415 23.5346 79.0007 22.395 77.5935 22.395C76.1862 22.395 75.0454 23.5346 75.0454 24.9403C75.0454 26.346 76.1862 27.4856 77.5935 27.4856Z" fill="#F2F2F2"/>
<path d="M77.5935 37.6296C79.0007 37.6296 80.1415 36.49 80.1415 35.0843C80.1415 33.6786 79.0007 32.539 77.5935 32.539C76.1862 32.539 75.0454 33.6786 75.0454 35.0843C75.0454 36.49 76.1862 37.6296 77.5935 37.6296Z" fill="#F2F2F2"/>
<path d="M88.2321 7.19758C89.6394 7.19758 90.7802 6.05802 90.7802 4.6523C90.7802 3.24658 89.6394 2.10703 88.2321 2.10703C86.8249 2.10703 85.6841 3.24658 85.6841 4.6523C85.6841 6.05802 86.8249 7.19758 88.2321 7.19758Z" fill="#F2F2F2"/>
<path d="M88.2321 17.3416C89.6394 17.3416 90.7802 16.202 90.7802 14.7963C90.7802 13.3906 89.6394 12.251 88.2321 12.251C86.8249 12.251 85.6841 13.3906 85.6841 14.7963C85.6841 16.202 86.8249 17.3416 88.2321 17.3416Z" fill="#F2F2F2"/>
<path d="M88.2321 27.4856C89.6394 27.4856 90.7802 26.346 90.7802 24.9403C90.7802 23.5346 89.6394 22.395 88.2321 22.395C86.8249 22.395 85.6841 23.5346 85.6841 24.9403C85.6841 26.346 86.8249 27.4856 88.2321 27.4856Z" fill="#F2F2F2"/>
<path d="M88.2321 37.6296C89.6394 37.6296 90.7802 36.49 90.7802 35.0843C90.7802 33.6786 89.6394 32.539 88.2321 32.539C86.8249 32.539 85.6841 33.6786 85.6841 35.0843C85.6841 36.49 86.8249 37.6296 88.2321 37.6296Z" fill="#F2F2F2"/>
<path d="M98.8703 7.19758C100.278 7.19758 101.418 6.05802 101.418 4.6523C101.418 3.24658 100.278 2.10703 98.8703 2.10703C97.4631 2.10703 96.3223 3.24658 96.3223 4.6523C96.3223 6.05802 97.4631 7.19758 98.8703 7.19758Z" fill="#F2F2F2"/>
<path d="M98.8703 17.3416C100.278 17.3416 101.418 16.202 101.418 14.7963C101.418 13.3906 100.278 12.251 98.8703 12.251C97.4631 12.251 96.3223 13.3906 96.3223 14.7963C96.3223 16.202 97.4631 17.3416 98.8703 17.3416Z" fill="#F2F2F2"/>
<path d="M98.8703 27.4856C100.278 27.4856 101.418 26.346 101.418 24.9403C101.418 23.5346 100.278 22.395 98.8703 22.395C97.4631 22.395 96.3223 23.5346 96.3223 24.9403C96.3223 26.346 97.4631 27.4856 98.8703 27.4856Z" fill="#F2F2F2"/>
<path d="M98.8703 37.6296C100.278 37.6296 101.418 36.49 101.418 35.0843C101.418 33.6786 100.278 32.539 98.8703 32.539C97.4631 32.539 96.3223 33.6786 96.3223 35.0843C96.3223 36.49 97.4631 37.6296 98.8703 37.6296Z" fill="#F2F2F2"/>
<path d="M71.3342 178.859C80.4765 178.859 87.8877 171.455 87.8877 162.323C87.8877 153.191 80.4765 145.788 71.3342 145.788C62.192 145.788 54.7808 153.191 54.7808 162.323C54.7808 171.455 62.192 178.859 71.3342 178.859Z" fill="#2F2E41"/>
<path d="M65.0398 173.187L56.9834 177.217L59.2352 181.709L67.2916 177.679L65.0398 173.187Z" fill="#2F2E41"/>
<path d="M60.297 181.253C60.7748 180.529 59.5957 178.911 57.6634 177.638C55.7311 176.365 53.7774 175.921 53.2996 176.644C52.8219 177.368 54.001 178.987 55.9333 180.259C57.8656 181.532 59.8193 181.977 60.297 181.253Z" fill="#2F2E41"/>
<path d="M77.6288 173.187L75.377 177.679L83.4334 181.709L85.6852 177.217L77.6288 173.187Z" fill="#2F2E41"/>
<path d="M86.7352 180.259C88.6675 178.987 89.8466 177.368 89.3688 176.644C88.891 175.921 86.9373 176.365 85.005 177.638C83.0728 178.911 81.8937 180.529 82.3714 181.253C82.8492 181.977 84.8029 181.532 86.7352 180.259Z" fill="#2F2E41"/>
<path d="M70.1756 163.93C73.3001 163.93 75.8331 161.4 75.8331 158.278C75.8331 155.157 73.3001 152.627 70.1756 152.627C67.051 152.627 64.5181 155.157 64.5181 158.278C64.5181 161.4 67.051 163.93 70.1756 163.93Z" fill="white"/>
<path d="M66.8628 158.415C68.8813 156.879 71.1631 159.159 69.6257 161.175C67.6071 162.711 65.3254 160.431 66.8628 158.415Z" fill="#3F3D56"/>
<path d="M84.3929 144.334C84.6418 138.213 79.36 133.028 72.5957 132.753C65.8314 132.479 60.1461 137.219 59.8971 143.34C59.6482 149.462 64.3503 150.853 71.1146 151.127C77.8789 151.402 84.1439 150.456 84.3929 144.334Z" fill="#CCCCCC"/>
<path d="M93.9346 170.982C95.0235 170.048 93.4924 166.482 90.5149 163.018C87.5374 159.553 84.241 157.502 83.1522 158.435C82.0633 159.369 83.5944 162.935 86.5719 166.399C89.5494 169.864 92.8458 171.915 93.9346 170.982Z" fill="#2F2E41"/>
<path d="M56.1433 166.399C59.1208 162.934 60.6519 159.369 59.5631 158.435C58.4742 157.502 55.1778 159.553 52.2003 163.018C49.2228 166.482 47.6918 170.048 48.7806 170.982C49.8694 171.915 53.1658 169.864 56.1433 166.399Z" fill="#2F2E41"/>
<path d="M75.8807 168.84C75.9699 169.327 75.9621 169.826 75.8578 170.31C75.7536 170.794 75.5548 171.253 75.273 171.66C74.9912 172.067 74.6318 172.415 74.2154 172.683C73.7989 172.952 73.3336 173.136 72.8461 173.224C72.3585 173.313 71.8582 173.305 71.3738 173.2C70.8894 173.096 70.4304 172.897 70.023 172.615C69.6156 172.333 69.2678 171.974 68.9995 171.557C68.7312 171.141 68.5476 170.676 68.4593 170.189L68.458 170.182C68.0869 168.134 69.6717 167.41 71.7214 167.039C73.7711 166.668 75.5096 166.792 75.8807 168.84Z" fill="white"/>
<path d="M246.376 128.83H224.308C224.308 129.091 224.204 129.341 224.019 129.526C223.834 129.71 223.584 129.814 223.323 129.814H201.66C201.354 130.044 201.075 130.308 200.828 130.601C200.088 131.483 199.683 132.598 199.686 133.75V134.537C199.686 135.842 200.205 137.093 201.129 138.015C202.052 138.938 203.305 139.456 204.611 139.457H246.376C247.682 139.456 248.934 138.937 249.858 138.014C250.781 137.092 251.3 135.841 251.302 134.537V133.75C251.3 132.445 250.78 131.195 249.857 130.273C248.934 129.351 247.682 128.832 246.376 128.83Z" fill="#3F3D56"/>
<path d="M228.25 139.261H223.127V175.471H228.25V139.261Z" fill="#3F3D56"/>
<path d="M242.828 175.291C242.828 175.844 235.066 175.505 225.491 175.505C215.917 175.505 208.155 175.844 208.155 175.291C208.155 174.739 215.917 170.354 225.491 170.354C235.066 170.354 242.828 174.739 242.828 175.291Z" fill="#3F3D56"/>
<path d="M245.411 129.963L244.552 124.595C244.443 123.918 244.07 123.312 243.515 122.91C242.959 122.508 242.267 122.343 241.589 122.45L232.728 123.863L217.55 126.283L212.613 127.071H223.323C223.584 127.071 223.834 127.174 224.019 127.359C224.204 127.543 224.307 127.794 224.308 128.054V128.83C224.307 129.091 224.204 129.341 224.019 129.526C223.834 129.71 223.584 129.814 223.323 129.814H196.069C195.688 129.992 195.359 130.262 195.111 130.601C194.901 130.876 194.75 131.191 194.666 131.527C194.582 131.863 194.567 132.212 194.623 132.553L194.867 134.08L195.162 135.934L195.481 137.926C195.59 138.601 195.962 139.205 196.516 139.606C197.07 140.008 197.761 140.173 198.436 140.067L205.478 138.945L225.785 135.706L243.264 132.919C243.94 132.809 244.545 132.437 244.947 131.883C245.349 131.329 245.516 130.639 245.411 129.963Z" fill="#EF802F"/>
<path d="M204.938 130.601C204.679 130.257 204.335 129.986 203.941 129.814H196.407C196.011 129.985 195.666 130.256 195.407 130.601C195.056 131.049 194.866 131.602 194.867 132.171V162.167C194.868 162.85 195.14 163.505 195.624 163.988C196.108 164.472 196.763 164.744 197.448 164.745H202.897C203.581 164.744 204.237 164.472 204.721 163.988C205.204 163.505 205.477 162.85 205.478 162.167V132.171C205.478 131.602 205.288 131.05 204.938 130.601Z" fill="#EF802F"/>
<path d="M221.337 79.5135L221.285 79.4466L217.905 75.2864C217.725 75.0632 217.507 74.8728 217.263 74.7236C217.133 74.6358 216.992 74.5644 216.845 74.5111C216.629 74.4247 216.402 74.3691 216.171 74.3457C216.017 74.3293 215.861 74.3267 215.706 74.3378C215.703 74.3382 215.7 74.3395 215.698 74.3418C215.176 74.3802 214.678 74.578 214.272 74.9085L207.333 80.5289L198.417 87.7552L185.111 98.5394L184.142 99.3266H200.978L201.951 98.5394L205.17 95.93L205.399 95.7489L220.946 83.1502L220.958 83.1424C221.278 82.8851 221.531 82.5542 221.695 82.1781C221.803 81.9318 221.872 81.6702 221.9 81.4027C221.936 81.0662 221.905 80.726 221.808 80.4017C221.711 80.0775 221.551 79.7756 221.337 79.5135Z" fill="#EF802F"/>
<path d="M221.285 79.4466C221.068 78.386 220.585 77.3976 219.883 76.5735C219.182 75.743 218.28 75.106 217.263 74.7236C217.105 74.6646 216.951 74.6095 216.794 74.5662C216.438 74.4604 216.074 74.384 215.706 74.3379C215.703 74.3382 215.7 74.3396 215.698 74.3418C214.04 74.1504 212.373 74.6106 211.049 75.6249L199.047 84.7876C198.792 85.0152 198.586 85.2918 198.44 85.6008C198.295 85.9098 198.213 86.245 198.2 86.5863C198.181 86.9874 198.255 87.3874 198.417 87.7552C198.456 87.8379 198.499 87.9205 198.547 87.9992C198.639 88.1591 198.75 88.3071 198.878 88.44L200.8 90.5969L205.273 95.6072L205.399 95.7489L205.686 96.0756C205.915 96.3263 206.191 96.5294 206.499 96.6732C206.807 96.817 207.14 96.8988 207.479 96.9138C207.818 96.9288 208.157 96.8767 208.476 96.7606C208.796 96.6444 209.089 96.4665 209.339 96.237L219.689 85.13C220.227 84.5533 220.653 83.882 220.946 83.1502C221.419 81.9753 221.537 80.6877 221.285 79.4466Z" fill="#2F2E41"/>
<path d="M225.862 65.1946C236.769 65.1946 245.61 56.3624 245.61 45.4672C245.61 34.5721 236.769 25.7399 225.862 25.7399C214.955 25.7399 206.113 34.5721 206.113 45.4672C206.113 56.3624 214.955 65.1946 225.862 65.1946Z" fill="#EF802F"/>
<path d="M233.268 127.248L232.728 123.863L232.409 121.875C232.3 121.2 231.927 120.595 231.372 120.193C230.818 119.792 230.126 119.627 229.449 119.734L215.096 122.021L211.203 122.643L210.415 122.769V127.071H223.323C223.584 127.071 223.834 127.174 224.019 127.359C224.204 127.543 224.308 127.794 224.308 128.055V128.83C224.308 129.091 224.204 129.341 224.019 129.526C223.834 129.71 223.584 129.814 223.323 129.814H182.475C182.475 129.822 182.479 129.83 182.479 129.837L182.723 131.365L183.338 135.206C183.446 135.881 183.819 136.485 184.372 136.887C184.926 137.288 185.617 137.454 186.293 137.347L193.334 136.225L194.867 135.981L195.162 135.934L205.478 134.289L212.495 133.167L223.63 131.392L223.796 131.365L231.12 130.2C231.796 130.091 232.402 129.72 232.804 129.167C233.207 128.613 233.373 127.923 233.268 127.248Z" fill="#EF802F"/>
<path d="M252.739 112.772C252.739 128.853 251.104 138.473 225.887 135.718C225.852 135.714 225.82 135.71 225.785 135.706C221.287 135.262 216.839 134.412 212.495 133.167C210.237 132.509 208.043 131.65 205.938 130.601C205.442 130.349 204.965 130.085 204.496 129.814H223.322C223.583 129.814 223.834 129.71 224.019 129.526C224.203 129.341 224.307 129.091 224.307 128.83V128.054C224.307 127.794 224.203 127.543 224.019 127.359C223.834 127.174 223.583 127.071 223.322 127.071H210.414V102.212C210.413 101.447 210.109 100.714 209.567 100.173C209.026 99.6321 208.292 99.3278 207.526 99.3267H208.058C208.149 99.0669 208.239 98.8032 208.338 98.5395C209.295 95.8828 209.201 93.7929 210.56 91.1913C212.428 87.6018 212.44 83.9926 214.895 80.9581C216.723 78.7028 211.124 76.2428 213.18 74.5504C217.132 71.2915 221.435 69.2764 225.801 69.2764C241.9 69.2764 252.739 96.6896 252.739 112.772Z" fill="#2F2E41"/>
<path d="M226.276 52.7789L226.297 52.0417C224.924 52.0035 223.713 51.9175 222.804 51.2537C222.546 51.0548 222.334 50.8028 222.182 50.5148C222.031 50.2268 221.943 49.9095 221.925 49.5846C221.909 49.386 221.939 49.1865 222.013 49.0014C222.087 48.8164 222.202 48.6508 222.351 48.5176C222.954 48.0083 223.926 48.1731 224.634 48.4975L225.245 48.7772L224.074 40.2291L223.342 40.3292L224.339 47.6004C223.931 47.4493 223.492 47.4026 223.061 47.4645C222.631 47.5263 222.223 47.6949 221.874 47.9547C221.64 48.1591 221.456 48.415 221.337 48.7022C221.218 48.9894 221.167 49.3003 221.188 49.6105C221.209 50.047 221.326 50.4736 221.53 50.8603C221.734 51.2471 222.02 51.5845 222.369 51.8491C223.537 52.7022 225.056 52.7447 226.276 52.7789Z" fill="#2F2E41"/>
<path d="M219.727 40.9562H215.752V41.6934H219.727V40.9562Z" fill="#2F2E41"/>
<path d="M232.273 40.9562H228.298V41.6934H232.273V40.9562Z" fill="#2F2E41"/>
<path d="M237.602 85.1536L236.037 84.0673L233.125 82.0482C232.562 81.6594 231.868 81.5094 231.194 81.6311C230.521 81.7528 229.923 82.1364 229.532 82.6976L220.04 96.3432L211.203 109.048L210.415 110.182V127.071H210.485C211.1 127.01 211.672 126.73 212.097 126.283C212.188 126.19 212.271 126.088 212.345 125.98L215.095 122.021L221.892 112.248L228.937 102.125L229.607 101.161L238.244 88.7431C238.291 88.6773 238.334 88.609 238.374 88.5384C238.413 88.471 238.449 88.4013 238.48 88.3298C238.728 87.7812 238.776 87.1633 238.615 86.5832C238.455 86.0031 238.096 85.4973 237.602 85.1536Z" fill="#EF802F"/>
<path d="M237.629 79.7536C237.351 79.5708 237.058 79.4103 236.755 79.2734C235.408 78.6572 233.891 78.5227 232.457 78.8925C231.024 79.2624 229.761 80.1141 228.882 81.3043L219.914 93.4504C219.734 93.7396 219.614 94.0617 219.559 94.398C219.505 94.7342 219.518 95.0779 219.598 95.409C219.678 95.7402 219.823 96.0521 220.025 96.3267C220.227 96.6012 220.481 96.833 220.773 97.0084L228.937 102.125L229.04 102.188L229.449 102.444C230.036 102.798 230.738 102.905 231.403 102.743C232.069 102.581 232.643 102.162 233 101.578L239.331 89.0226L239.438 88.814L239.442 88.81L239.832 88.0268C240.543 86.6177 240.712 84.9968 240.306 83.4717C239.9 81.9467 238.947 80.6236 237.629 79.7536Z" fill="#2F2E41"/>
<path d="M182.723 129.814V159.447C182.724 160.13 182.996 160.785 183.48 161.269C183.964 161.752 184.62 162.024 185.304 162.025H190.753C191.437 162.024 192.093 161.752 192.577 161.269C193.061 160.785 193.333 160.13 193.334 159.447V129.814H182.723Z" fill="#EF802F"/>
<path d="M223.322 126.283H211.203V102.212C211.201 101.238 210.814 100.305 210.125 99.6162C209.435 98.9278 208.501 98.5406 207.526 98.5395H162.581C161.606 98.5397 160.67 98.9266 159.98 99.6151C159.29 100.304 158.902 101.237 158.901 102.212V126.929C158.902 127.903 159.29 128.837 159.98 129.525C160.67 130.214 161.606 130.601 162.581 130.601H223.322C223.385 130.601 223.445 130.597 223.504 130.593C223.559 130.589 223.614 130.577 223.669 130.569C224.071 130.488 224.433 130.271 224.693 129.954C224.953 129.637 225.095 129.24 225.095 128.83V128.055C225.095 127.585 224.909 127.134 224.576 126.802C224.244 126.47 223.793 126.283 223.322 126.283ZM223.322 129.814H162.581C161.815 129.814 161.08 129.51 160.538 128.969C159.995 128.428 159.69 127.694 159.689 126.929V102.212C159.69 101.446 159.995 100.713 160.538 100.172C161.08 99.6309 161.815 99.327 162.581 99.3267H207.526C208.292 99.3278 209.026 99.6321 209.567 100.173C210.109 100.714 210.413 101.447 210.414 102.212V127.071H223.322C223.584 127.071 223.834 127.174 224.019 127.359C224.203 127.543 224.307 127.794 224.307 128.055V128.83C224.307 129.091 224.203 129.341 224.019 129.525C223.834 129.71 223.584 129.814 223.322 129.814Z" fill="#3F3D56"/>
<path d="M185.052 117.597C186.725 117.597 188.082 116.242 188.082 114.571C188.082 112.899 186.725 111.544 185.052 111.544C183.379 111.544 182.022 112.899 182.022 114.571C182.022 116.242 183.379 117.597 185.052 117.597Z" fill="#EF802F"/>
<path d="M211.191 126.701H210.403V130.243H211.191V126.701Z" fill="#3F3D56"/>
<path d="M89.2655 102.474C90.9385 98.1018 91.1809 94.1321 89.8068 93.6075C88.4327 93.0828 85.9625 96.202 84.2895 100.574C82.6165 104.947 82.3742 108.916 83.7483 109.441C85.1224 109.966 87.5925 106.846 89.2655 102.474Z" fill="#2F2E41"/>
<path d="M87.8428 117.04C89.344 107.799 83.0617 99.0922 73.8109 97.5927C64.5601 96.0931 55.8439 102.369 54.3427 111.609C52.8415 120.85 59.1238 129.557 68.3746 131.056C77.6254 132.556 86.3416 126.28 87.8428 117.04Z" fill="#2F2E41"/>
<path d="M68.5155 127.628H63.3604V136.854H68.5155V127.628Z" fill="#2F2E41"/>
<path d="M78.8256 127.628H73.6704V136.854H78.8256V127.628Z" fill="#2F2E41"/>
<path d="M67.6564 138.57C70.029 138.57 71.9524 137.85 71.9524 136.961C71.9524 136.072 70.029 135.352 67.6564 135.352C65.2837 135.352 63.3604 136.072 63.3604 136.961C63.3604 137.85 65.2837 138.57 67.6564 138.57Z" fill="#2F2E41"/>
<path d="M77.9664 138.356C80.339 138.356 82.2624 137.635 82.2624 136.747C82.2624 135.858 80.339 135.137 77.9664 135.137C75.5938 135.137 73.6704 135.858 73.6704 136.747C73.6704 137.635 75.5938 138.356 77.9664 138.356Z" fill="#2F2E41"/>
<path d="M71.693 115.824C74.8946 115.73 77.4138 113.061 77.3197 109.863C77.2256 106.665 74.5539 104.148 71.3523 104.242C68.1506 104.336 65.6314 107.005 65.7255 110.203C65.8196 113.401 68.4913 115.918 71.693 115.824Z" fill="white"/>
<path d="M71.5226 111.964C72.5902 111.964 73.4558 111.1 73.4558 110.033C73.4558 108.967 72.5902 108.102 71.5226 108.102C70.4549 108.102 69.5894 108.967 69.5894 110.033C69.5894 111.1 70.4549 111.964 71.5226 111.964Z" fill="#3F3D56"/>
<path d="M54.6322 98.5608C53.262 92.4312 57.642 86.2374 64.4151 84.7267C71.1882 83.216 77.7896 86.9604 79.1598 93.09C80.53 99.2195 76.0412 101.48 69.2681 102.991C62.495 104.502 56.0024 104.69 54.6322 98.5608Z" fill="#EF802F"/>
<path d="M59.6459 110.091C60.2763 108.763 57.3551 106.061 53.1213 104.055C48.8874 102.049 44.9442 101.5 44.3138 102.827C43.6834 104.155 46.6046 106.857 50.8384 108.863C55.0723 110.869 59.0155 111.419 59.6459 110.091Z" fill="#2F2E41"/>
<path d="M62.7578 120.44C62.7578 122.099 67.0342 125.375 71.7794 125.375C76.5246 125.375 80.9738 120.704 80.9738 119.045C80.9738 117.386 76.5246 119.367 71.7794 119.367C67.0342 119.367 62.7578 118.781 62.7578 120.44Z" fill="white"/>
<path d="M103.84 110.691L91.3492 113.127C91.1469 113.167 90.9381 113.16 90.7388 113.108C90.5394 113.055 90.3546 112.958 90.1987 112.823C90.0395 112.686 89.9136 112.516 89.8305 112.323C89.7474 112.131 89.7094 111.922 89.7193 111.713C89.9324 106.596 88.9368 101.502 86.813 96.841C86.7251 96.6508 86.6818 96.4431 86.6864 96.2336C86.6909 96.0242 86.7433 95.8186 86.8394 95.6324C86.9332 95.4489 87.0677 95.2893 87.2326 95.1655C87.3975 95.0418 87.5885 94.9574 87.7911 94.9185L100.282 92.483C100.601 92.4214 100.932 92.475 101.215 92.6342C101.499 92.7934 101.717 93.048 101.83 93.3525C103.677 98.4797 104.729 103.859 104.947 109.304C104.957 109.629 104.851 109.946 104.648 110.2C104.445 110.454 104.159 110.628 103.84 110.691Z" fill="#FF6584"/>
<path d="M49.072 122.105L36.5811 124.541C36.3788 124.581 36.1701 124.574 35.9707 124.522C35.7713 124.469 35.5866 124.372 35.4306 124.237C35.2714 124.101 35.1455 123.93 35.0624 123.737C34.9793 123.545 34.9413 123.336 34.9512 123.127C35.1643 118.01 34.1687 112.916 32.045 108.255C31.957 108.065 31.9137 107.857 31.9183 107.648C31.9229 107.438 31.9752 107.233 32.0714 107.046C32.1652 106.863 32.2996 106.703 32.4646 106.58C32.6295 106.456 32.8205 106.371 33.023 106.333L45.5139 103.897C45.8332 103.835 46.164 103.889 46.4474 104.048C46.7309 104.207 46.9485 104.462 47.0617 104.766C48.9094 109.894 49.9606 115.273 50.1789 120.718C50.1887 121.043 50.0828 121.36 49.8801 121.614C49.6774 121.868 49.391 122.042 49.072 122.105Z" fill="#CCCCCC"/>
<path d="M231.544 31.6176C227.988 33.2031 223.954 33.3432 220.297 32.0081C217.615 30.9811 215.291 29.1954 213.609 26.8697C211.928 24.5439 210.961 21.7789 210.828 18.913L209.939 19.4228L213.688 22.058C213.766 22.103 213.854 22.1295 213.944 22.1356C214.034 22.1417 214.125 22.1272 214.208 22.0932C214.292 22.0592 214.367 22.0066 214.427 21.9393C214.487 21.8721 214.532 21.792 214.556 21.7052C214.82 20.6512 215.298 19.6628 215.961 18.8018C216.624 17.9407 217.458 17.2254 218.41 16.7006C220.497 15.5374 222.925 15.1341 225.277 15.5595C230.149 16.3489 234.534 19.5931 237.388 23.527C238.945 25.6672 240.099 28.0731 240.793 30.6267C240.839 30.7729 240.939 30.8956 241.074 30.9689C241.209 31.0422 241.367 31.0604 241.514 31.0197C241.662 30.979 241.788 30.8825 241.866 30.7507C241.944 30.6188 241.968 30.4618 241.933 30.3128C240.573 25.3485 237.587 20.9828 233.45 17.914C229.217 14.7736 223.289 12.8756 218.309 15.4106C215.939 16.6171 214.01 18.765 213.417 21.3913L214.285 21.0385L210.535 18.4032C210.445 18.3519 210.343 18.325 210.24 18.3252C210.136 18.3253 210.035 18.3525 209.945 18.404C209.855 18.4555 209.78 18.5295 209.728 18.6188C209.675 18.7081 209.647 18.8095 209.646 18.913C209.832 22.8903 211.48 26.6592 214.276 29.4973C217.198 32.4145 221.151 34.0663 225.282 34.0962C227.648 34.1222 229.99 33.6239 232.141 32.6372C232.831 32.3211 232.231 31.3031 231.544 31.6176Z" fill="#2F2E41"/>
<path d="M65.6721 179.539L53.1812 181.974C52.9789 182.014 52.7701 182.008 52.5708 181.955C52.3714 181.903 52.1867 181.805 52.0307 181.67C51.8715 181.534 51.7456 181.363 51.6625 181.171C51.5794 180.978 51.5414 180.77 51.5513 180.56C51.7644 175.444 50.7688 170.349 48.645 165.688C48.5571 165.498 48.5138 165.291 48.5184 165.081C48.523 164.872 48.5753 164.666 48.6715 164.48C48.7653 164.296 48.8997 164.137 49.0647 164.013C49.2296 163.889 49.4206 163.805 49.6231 163.766L62.114 161.33C62.4333 161.269 62.7641 161.322 63.0475 161.482C63.331 161.641 63.5486 161.895 63.6618 162.2C65.5095 167.327 66.5607 172.707 66.779 178.152C66.7888 178.476 66.6829 178.794 66.4802 179.048C66.2775 179.302 65.9911 179.476 65.6721 179.539Z" fill="#EF802F"/>
</g>
<defs>
<clipPath id="clip0">
<rect width="316" height="182" fill="white"/>
</clipPath>
</defs>
</svg>
